<svg width="210" height="60" viewBox="0 0 210 60" fill="none" xmlns="http://www.w3.org/2000/svg">
<circle cx="30" cy="30" r="28.5" stroke="white" stroke-width="3"/>
<g clip-path="url(#clip0)">
<path d="M47.4329 27.1163C46.126 26.5581 44.3057 26.0465 42.112 25.6279C40.8518 21.907 37.8646 18.9767 34.1774 17.6744C34.084 17.1628 33.944 16.6512 33.8506 16.186C32.8705 12.093 31.5169 10 29.8833 10C28.8098 10 27.8763 10.8837 27.1295 12.6047C26.5694 13.8605 26.056 15.6279 25.6826 17.7674C21.9953 19.0698 19.0548 22.0465 17.8413 25.814C15.6476 26.2326 13.8273 26.7442 12.5671 27.3488C10.8401 28.1395 10 29.0698 10 30.1395C10 31.7674 12.1004 33.0698 16.2544 34C16.8145 34.1395 17.4212 34.2326 18.028 34.3721C19.3816 37.8605 22.2287 40.6512 25.776 41.907C26.4761 45.6744 27.783 50 30.1167 50C31.7503 50 33.0572 47.907 33.9907 43.7674C34.1307 43.1628 34.2707 42.5116 34.3641 41.8605C37.9113 40.5581 40.7118 37.7674 42.0187 34.2326C42.6254 34.1395 43.2322 34 43.7923 33.8605C47.9463 32.8837 50.0467 31.5349 50 29.907C50 28.7907 49.1132 27.8605 47.4329 27.1163ZM41.2252 29.7674C41.2252 30.7907 41.0852 31.814 40.8051 32.7907C39.0782 33.0698 37.1645 33.3023 35.1575 33.4419C35.2042 32.2791 35.2042 31.1163 35.2042 29.9535C35.2042 29.4884 35.2042 29.0233 35.2042 28.5581L37.9113 28.3256C38.1914 28.2791 38.4714 28.093 38.5648 27.814C38.6581 27.5349 38.6114 27.2093 38.4247 26.9767L34.9242 23.2558C34.7841 21.9535 34.6441 20.6977 34.4574 19.4884C38.4247 21.2093 41.2252 25.1628 41.2252 29.7674ZM29.8833 11.5349C29.8833 11.5349 31.1435 11.5814 32.3104 16.5116C32.3571 16.7442 32.4037 16.9767 32.4504 17.2093C31.6569 17.0698 30.8168 16.9767 29.9767 16.9767C29.0898 16.9767 28.203 17.0698 27.3629 17.2558C28.203 13.1163 29.3232 11.5349 29.8833 11.5349ZM29.9767 18.5581C30.9568 18.5581 31.8903 18.6977 32.7771 18.9302C33.0105 20.4186 33.2439 22 33.3839 23.7209L30.7701 27.6744C30.5834 27.907 30.5834 28.2326 30.7701 28.5116C30.9102 28.7442 31.1902 28.8837 31.4236 28.8837H31.4702L33.6173 28.6977C33.6173 29.1163 33.6173 29.5349 33.6173 29.9535C33.6173 31.1628 33.6173 32.3721 33.5706 33.5349C32.4037 33.5814 31.1902 33.6279 29.9767 33.6279C29.8366 33.6279 29.6966 33.6279 29.5566 33.6279V31.0698C29.5566 30.7907 29.3699 30.5116 29.0898 30.3721C28.8098 30.2326 28.4831 30.2791 28.2497 30.4651L24.4224 33.4884C22.5554 33.3488 20.7818 33.1628 19.1482 32.9302C18.8681 31.9535 18.6814 30.8837 18.6814 29.7674C18.7281 23.5814 23.769 18.5581 29.9767 18.5581ZM16.5344 32.4186C11.5403 31.3023 11.4936 30.093 11.4936 30.0465C11.4936 29.7674 11.9137 29.2558 13.1739 28.6977C14.2007 28.2326 15.6476 27.814 17.3746 27.4419C17.2345 28.186 17.1412 28.9767 17.1412 29.7674C17.1412 30.7442 17.2345 31.6744 17.4679 32.6047C17.1879 32.5581 16.8611 32.4651 16.5344 32.4186ZM19.8016 34.6047C21.2019 34.7907 22.7421 34.9302 24.3291 35.0698L28.2964 38.1395C28.4364 38.2326 28.6231 38.3256 28.7631 38.3256C29.1832 38.3256 29.5566 37.9535 29.5566 37.5349V37.4884V35.2558C29.6966 35.2558 29.8366 35.2558 29.9767 35.2558C31.1902 35.2558 32.3571 35.2093 33.4772 35.1628C33.3839 37.1163 33.1505 38.9767 32.9172 40.6512C31.9837 40.9302 30.9568 41.0698 29.93 41.0698C25.4959 40.9767 21.6219 38.3721 19.8016 34.6047ZM32.4504 43.3023C31.3302 48.2791 30.1167 48.3256 30.07 48.3256C29.79 48.3256 29.2765 47.907 28.7165 46.6512C28.203 45.5814 27.783 44.0465 27.4096 42.2791C28.2497 42.4651 29.0898 42.5116 29.9767 42.5116C30.9102 42.5116 31.797 42.4186 32.6838 42.2326C32.5904 42.6047 32.5438 42.9767 32.4504 43.3023ZM34.6441 39.9535C34.8308 38.4186 35.0175 36.7442 35.1109 34.9767C36.8845 34.8372 38.6114 34.6512 40.1984 34.4186C39.0782 36.8837 37.0712 38.8372 34.6441 39.9535ZM43.4189 32.2326C43.1389 32.3256 42.8121 32.3721 42.4854 32.4186C42.6721 31.5349 42.7655 30.6512 42.7655 29.7209C42.7655 28.8837 42.6721 28.0465 42.5321 27.2558C46.7795 28.093 48.4131 29.2093 48.4131 29.7674C48.4597 29.8605 48.4131 31.0698 43.4189 32.2326Z" fill="#42949B"/>
</g>
<path d="M84.0684 24.912V36H81.4444V26.928H78.1484V36H75.5244V24.912H84.0684ZM90.6294 24.64C92.208 24.64 93.4347 25.1467 94.3094 26.16C95.1947 27.1733 95.6374 28.6027 95.6374 30.448C95.6374 31.6533 95.4347 32.6933 95.0294 33.568C94.6347 34.4427 94.0587 35.1147 93.3014 35.584C92.5547 36.0427 91.664 36.272 90.6294 36.272C89.5947 36.272 88.704 36.0427 87.9574 35.584C87.2107 35.1253 86.6347 34.464 86.2294 33.6C85.8347 32.7253 85.6374 31.6747 85.6374 30.448C85.6374 29.2533 85.8347 28.2187 86.2294 27.344C86.6347 26.4693 87.2107 25.8027 87.9574 25.344C88.704 24.8747 89.5947 24.64 90.6294 24.64ZM90.6294 26.56C89.872 26.56 89.3067 26.8693 88.9334 27.488C88.5707 28.096 88.3894 29.0827 88.3894 30.448C88.3894 31.8133 88.576 32.8053 88.9494 33.424C89.3227 34.0427 89.8827 34.352 90.6294 34.352C91.3974 34.352 91.9627 34.048 92.3254 33.44C92.6987 32.8213 92.8854 31.824 92.8854 30.448C92.8854 29.072 92.6987 28.08 92.3254 27.472C91.952 26.864 91.3867 26.56 90.6294 26.56ZM105.932 24.912L103.196 29.936L106.236 36H103.372L100.988 31.184H99.8359V36H97.2119V24.912H99.8359V29.264H101.052L103.356 24.912H105.932ZM110.765 24.912C112.226 24.912 113.362 25.216 114.173 25.824C114.983 26.432 115.389 27.3333 115.389 28.528C115.389 29.776 114.989 30.72 114.189 31.36C113.399 31.9893 112.338 32.304 111.005 32.304H109.805V36H107.181V24.912H110.765ZM110.781 30.416C111.399 30.416 111.869 30.272 112.189 29.984C112.519 29.6853 112.685 29.2 112.685 28.528C112.685 27.3653 112.034 26.784 110.733 26.784H109.805V30.416H110.781ZM121.966 32.688C121.646 33.552 121.278 34.2293 120.862 34.72C120.457 35.2107 119.966 35.5733 119.39 35.808C118.825 36.0427 118.11 36.1973 117.246 36.272L116.894 34.512C117.598 34.4267 118.137 34.2827 118.51 34.08C118.883 33.8667 119.198 33.5307 119.454 33.072H118.622L115.23 24.912H117.918L120.238 31.584L122.27 24.912H124.926L121.966 32.688ZM133.28 24.912L133.024 26.928H130.288V36H127.664V26.928H124.8V24.912H133.28ZM142.881 36H140.305V31.856C140.305 30.3307 140.428 28.8747 140.673 27.488L137.489 36H134.337V24.912H136.913V29.136C136.913 30.0213 136.881 30.7573 136.817 31.344C136.753 31.9307 136.657 32.6133 136.529 33.392L139.777 24.912H142.881V36ZM159.751 36H157.175L156.983 31.664C156.93 30.6293 156.903 29.7067 156.903 28.896C156.903 28.2773 156.919 27.6907 156.951 27.136L155.239 34.832H152.759L150.935 27.136C150.999 28.064 151.031 28.9387 151.031 29.76C151.031 30.3787 151.015 31.024 150.983 31.696L150.791 36H148.231L149.063 24.912H152.375L154.039 32.432L155.591 24.912H158.919L159.751 36ZM165.645 24.64C167.224 24.64 168.45 25.1467 169.325 26.16C170.21 27.1733 170.653 28.6027 170.653 30.448C170.653 31.6533 170.45 32.6933 170.045 33.568C169.65 34.4427 169.074 35.1147 168.317 35.584C167.57 36.0427 166.68 36.272 165.645 36.272C164.61 36.272 163.72 36.0427 162.973 35.584C162.226 35.1253 161.65 34.464 161.245 33.6C160.85 32.7253 160.653 31.6747 160.653 30.448C160.653 29.2533 160.85 28.2187 161.245 27.344C161.65 26.4693 162.226 25.8027 162.973 25.344C163.72 24.8747 164.61 24.64 165.645 24.64ZM165.645 26.56C164.888 26.56 164.322 26.8693 163.949 27.488C163.586 28.096 163.405 29.0827 163.405 30.448C163.405 31.8133 163.592 32.8053 163.965 33.424C164.338 34.0427 164.898 34.352 165.645 34.352C166.413 34.352 166.978 34.048 167.341 33.44C167.714 32.8213 167.901 31.824 167.901 30.448C167.901 29.072 167.714 28.08 167.341 27.472C166.968 26.864 166.402 26.56 165.645 26.56ZM180.903 34V38.656H179.079L178.791 36H172.935L172.647 38.656H170.823V34H171.639C171.863 33.744 172.045 33.4187 172.183 33.024C172.333 32.6187 172.466 32.0693 172.583 31.376C172.711 30.6827 172.861 29.6907 173.031 28.4L173.463 24.912H179.927V34H180.903ZM177.383 26.848H175.671L175.543 28.176C175.415 29.4133 175.271 30.4 175.111 31.136C174.962 31.872 174.775 32.464 174.551 32.912C174.338 33.3493 174.055 33.712 173.703 34H177.383V26.848ZM188.949 24.912L188.677 26.784H184.773V29.44H188.181V31.28H184.773V34.112H188.949V36H182.149V24.912H188.949ZM198.987 24.912V36H196.363V26.896H194.059L193.643 30.656C193.494 31.9253 193.302 32.928 193.067 33.664C192.843 34.4 192.507 34.976 192.059 35.392C191.611 35.808 190.987 36.1013 190.187 36.272L189.563 34.432C189.947 34.2827 190.235 34.0747 190.427 33.808C190.619 33.5413 190.763 33.184 190.859 32.736C190.955 32.2773 191.062 31.5413 191.179 30.528L191.851 24.912H198.987ZM204.864 28.688C206.272 28.688 207.354 28.9867 208.112 29.584C208.88 30.1707 209.264 31.056 209.264 32.24C209.264 33.488 208.869 34.4267 208.08 35.056C207.29 35.6853 206.234 36 204.912 36H201.056V24.912H203.68V28.688H204.864ZM204.688 34.096C205.285 34.096 205.738 33.952 206.048 33.664C206.368 33.3653 206.528 32.9013 206.528 32.272C206.528 31.6747 206.373 31.232 206.064 30.944C205.754 30.656 205.28 30.512 204.64 30.512H203.68V34.096H204.688Z" fill="#42949B"/>
<defs>
<clipPath id="clip0">
<rect width="40" height="40" fill="white" transform="translate(10 10)"/>
</clipPath>
</defs>
</svg>
