<svg width="75" height="44" viewBox="0 0 75 44" fill="none" xmlns="http://www.w3.org/2000/svg">
<path d="M1.64729 34.9142C5.08915 34.9142 6.66667 35.7255 8.3876 36.3744C10.2519 37.1857 12.1163 38.1591 15.9884 38.1591C19.8605 38.1591 21.7248 37.3479 23.5891 36.3744C25.3101 35.5632 27.031 34.9142 30.3295 34.9142C33.7713 34.9142 35.3488 35.7255 37.0698 36.3744C38.9341 37.1857 40.7984 38.1591 44.6705 38.1591C48.3992 38.1591 50.407 37.3479 52.2713 36.3744C53.9922 35.5632 55.7132 34.9142 59.0116 34.9142C62.3101 34.9142 64.031 35.7255 65.7519 36.3744C67.6163 37.1857 69.4806 38.1591 73.3527 38.1591C73.9264 38.1591 74.5 37.6724 74.5 36.8612C74.5 36.05 74.0698 35.5632 73.3527 35.5632C69.9109 35.5632 68.3333 34.752 66.6124 34.103C64.7481 33.2918 62.8837 32.3183 59.0116 32.3183C55.2829 32.3183 53.2752 33.1295 51.4109 34.103C49.6899 34.9142 47.969 35.5632 44.6705 35.5632C41.2287 35.5632 39.6512 34.752 37.9302 34.103C36.0659 33.2918 34.2015 32.3183 30.3295 32.3183C26.6008 32.3183 24.593 33.1295 22.7287 34.103C21.0077 34.9142 19.2868 35.5632 15.9884 35.5632C12.5465 35.5632 10.969 34.752 9.24806 34.103C7.38372 33.2918 5.51938 32.3183 1.64729 32.3183C1.07364 32.3183 0.5 32.805 0.5 33.6163C0.5 34.4275 0.930233 34.9142 1.64729 34.9142Z" fill="white"/>
<path d="M73.3527 41.4041C69.9109 41.4041 68.3333 40.5928 66.6124 39.9439C64.7481 39.1326 62.8837 38.1592 59.0116 38.1592C55.2829 38.1592 53.2752 38.9704 51.4109 39.9439C49.6899 40.7551 47.969 41.4041 44.6705 41.4041C41.2287 41.4041 39.6512 40.5928 37.9302 39.9439C36.0659 39.1326 34.2015 38.1592 30.3295 38.1592C26.6008 38.1592 24.593 38.9704 22.7287 39.9439C21.0077 40.7551 19.2868 41.4041 15.9884 41.4041C12.5465 41.4041 10.969 40.5928 9.24806 39.9439C7.38372 39.1326 5.51938 38.1592 1.64729 38.1592C1.07364 38.1592 0.5 38.6459 0.5 39.4571C0.5 40.2684 0.930233 40.7551 1.64729 40.7551C5.08915 40.7551 6.66667 41.5663 8.3876 42.2153C10.2519 43.0265 12.1163 44 15.9884 44C19.8605 44 21.7248 43.1888 23.5891 42.2153C25.3101 41.4041 27.031 40.7551 30.3295 40.7551C33.7713 40.7551 35.3488 41.5663 37.0698 42.2153C38.9341 43.0265 40.7984 44 44.6705 44C48.3992 44 50.407 43.1888 52.2713 42.2153C53.9922 41.4041 55.7132 40.7551 59.0116 40.7551C62.3101 40.7551 64.031 41.5663 65.7519 42.2153C67.6163 43.0265 69.4806 44 73.3527 44C73.9264 44 74.5 43.5133 74.5 42.702C74.5 41.8908 73.9264 41.4041 73.3527 41.4041Z" fill="white"/>
<path d="M40.2248 1.65391C44.0969 3.27636 46.8217 8.14373 47.6822 12.6866H59.155C61.0194 12.6866 61.0194 15.7693 59.155 15.7693H57.8643C58.1512 16.4182 58.2946 17.0672 58.2946 17.7162C58.2946 20.3121 56.4302 22.4213 54.1357 22.4213C51.8411 22.4213 49.9767 20.3121 49.9767 17.7162C49.9767 17.0672 50.1202 16.256 50.407 15.7693H47.8256C47.6822 22.5836 42.8062 25.6662 37.3566 25.6662C31.907 25.6662 26.8876 22.7458 26.8876 15.7693H24.3062C24.593 16.4182 24.7364 17.0672 24.7364 17.7162C24.7364 20.3121 22.8721 22.4213 20.5775 22.4213C18.2829 22.4213 16.4186 20.3121 16.4186 17.7162C16.4186 17.0672 16.562 16.256 16.8488 15.7693H15.5581C13.6938 15.7693 13.6938 12.6866 15.5581 12.6866H27.031C27.8915 8.30597 30.6163 3.43861 34.4884 1.65391C34.6318 1.65391 34.9186 1.49166 35.062 1.49166C35.4923 1.32942 36.2093 1.16717 37.3566 1.16717C38.9341 1.00492 40.0814 1.65391 40.2248 1.65391ZM37.5 15.7693C38.9341 15.7693 40.0814 17.0672 40.0814 18.6897C40.0814 20.3121 38.9341 21.6101 37.5 21.6101C36.0659 21.6101 34.9186 20.3121 34.9186 18.6897C34.7752 17.0672 35.9225 15.7693 37.5 15.7693ZM55.5698 15.7693H52.845C52.2713 16.256 51.9845 17.0672 51.9845 17.7162C51.9845 19.1764 52.9884 20.3121 54.2791 20.3121C55.5698 20.3121 56.5736 19.1764 56.5736 17.7162C56.4302 16.905 56.1434 16.256 55.5698 15.7693ZM22.155 15.7693H19.4302C18.8566 16.256 18.5698 17.0672 18.5698 17.7162C18.5698 19.1764 19.5736 20.3121 20.8643 20.3121C22.155 20.3121 23.1589 19.1764 23.1589 17.7162C23.0155 16.905 22.5853 16.256 22.155 15.7693ZM37.3566 3.11412C32.3372 3.11412 28.7519 10.4152 28.7519 15.4448C28.7519 21.1234 32.9109 23.3948 37.3566 23.3948C41.8023 23.3948 45.9612 21.2856 45.9612 15.4448C46.1047 10.4152 42.5194 3.11412 37.3566 3.11412Z" fill="white"/>
<path d="M46.6783 2.30288H28.0349C27.4612 2.30288 27.031 1.81615 27.031 1.16716C27.031 0.518182 27.4612 0.0314456 28.0349 0.0314456H46.6783C47.2519 -0.1308 47.8256 0.355937 47.8256 1.00492C47.8256 1.81615 47.2519 2.30288 46.6783 2.30288Z" fill="white"/>
</svg>
