<svg width="51" height="44" viewBox="0 0 51 44" fill="none" xmlns="http://www.w3.org/2000/svg">
<path d="M39.9046 29.0516C39.9046 28.5894 39.3792 28.1933 38.7662 28.1933C38.1532 28.1933 37.6278 28.5894 37.6278 29.0516C37.6278 29.5138 38.1532 29.91 38.7662 29.91C39.3792 29.91 39.9046 29.5138 39.9046 29.0516Z" fill="white"/>
<path d="M44.1953 10.036C42.8818 10.036 41.5683 10.3661 40.6051 10.7623C40.1673 10.4322 39.4667 10.2341 38.7662 10.2341C38.0657 10.2341 37.4527 10.4322 36.9273 10.7623C35.8765 10.3661 34.6506 10.036 33.3371 10.036C29.8345 10.036 27.0324 11.0264 27.0324 12.2149C27.0324 13.4034 29.8345 14.3938 33.3371 14.3938C34.6506 14.3938 35.9641 14.0636 36.9273 13.6675C37.19 13.8655 37.4527 13.9976 37.7154 14.0636V26.6086C37.7154 27.0048 38.1532 27.401 38.7662 27.401C39.3792 27.401 39.817 27.0708 39.817 26.6086V13.9976C40.0797 13.9316 40.3424 13.7995 40.6051 13.6014C41.6559 13.9976 42.8818 14.3277 44.1953 14.3277C47.6979 14.3277 50.5 13.3373 50.5 12.1489C50.5 10.9604 47.6103 10.036 44.1953 10.036ZM29.3967 12.2149C30.0096 11.9508 31.3231 11.5546 33.3371 11.5546C34.3879 11.5546 35.3511 11.8187 36.1392 12.1489C36.1392 12.1489 36.1392 12.1489 36.1392 12.2149C36.1392 12.2149 36.1392 12.2149 36.1392 12.2809C35.3511 12.611 34.3879 12.8751 33.3371 12.8751C31.3231 12.8091 30.0096 12.479 29.3967 12.2149ZM44.1953 12.8091C43.1445 12.8091 42.1813 12.545 41.3932 12.2149C41.3932 12.2149 41.3932 12.2149 41.3932 12.1489C41.3932 12.1489 41.3932 12.1489 41.3932 12.0828C42.1813 11.7527 43.1445 11.4886 44.1953 11.4886C46.2093 11.4886 47.5228 11.8187 48.1357 12.1489C47.5228 12.479 46.2093 12.8091 44.1953 12.8091Z" fill="white"/>
<path d="M35.3511 29.7779C35.8765 29.7779 36.4019 29.4478 36.4019 28.9856C36.4019 28.5234 35.9641 28.1933 35.3511 28.1933H19.7644C19.6769 27.9952 19.5018 27.7971 19.2391 27.599C19.7644 26.8067 20.2023 25.8824 20.2023 24.892C20.2023 22.2509 18.8888 20.1381 17.3126 20.1381C15.7364 20.1381 14.4229 22.2509 14.4229 24.892C14.4229 25.8824 14.8608 26.8727 15.3862 27.599C14.9483 27.9292 14.6856 28.4574 14.6856 28.9856C14.6856 29.5138 14.9483 29.976 15.3862 30.3721C14.8608 31.1645 14.4229 32.0888 14.4229 33.0792C14.4229 35.7203 15.7364 37.8331 17.3126 37.8331C18.8888 37.8331 20.2023 35.7203 20.2023 33.0792C20.2023 32.0888 19.7644 31.0984 19.2391 30.3721C19.4142 30.1741 19.6769 29.976 19.7644 29.7779H35.3511ZM17.4002 21.9208C17.7504 22.383 18.2758 23.3734 18.2758 24.892C18.2758 25.6843 17.9256 26.4106 17.4877 27.0048C17.4877 27.0048 17.4877 27.0048 17.4002 27.0048C17.4002 27.0048 17.4002 27.0048 17.3126 27.0048C16.8748 26.4106 16.5245 25.6843 16.5245 24.892C16.5245 23.3734 17.0499 22.383 17.4002 21.9208ZM17.4002 36.0504C17.0499 35.5882 16.5245 34.5978 16.5245 33.0792C16.5245 32.2869 16.8748 31.5606 17.3126 30.9664C17.3126 30.9664 17.3126 30.9664 17.4002 30.9664C17.4002 30.9664 17.4002 30.9664 17.4877 30.9664C17.9256 31.5606 18.2758 32.2869 18.2758 33.0792C18.1883 34.5978 17.7504 35.5882 17.4002 36.0504Z" fill="white"/>
<path d="M25.1935 5.61224C25.2811 5.61224 25.4562 5.61224 25.5438 5.54622C26.4194 5.28211 27.2951 5.01801 28.1708 4.81993C28.6962 4.68788 28.9588 4.29172 28.7837 3.89556C28.6961 3.4994 28.1708 3.30132 27.6454 3.36735C26.6821 3.56543 25.7189 3.82953 24.8433 4.15966C24.3179 4.29172 24.0552 4.7539 24.3179 5.15006C24.4054 5.48019 24.7557 5.61224 25.1935 5.61224Z" fill="white"/>
<path d="M15.3862 10.3661C15.6489 10.3661 15.9116 10.3001 16.0867 10.1681C16.7872 9.70588 17.4877 9.2437 18.2758 8.78151C18.7137 8.5174 18.8012 8.05522 18.451 7.72509C18.1007 7.39495 17.4877 7.32893 17.0499 7.59303C16.2618 8.05522 15.4737 8.5174 14.7732 9.04562C14.3354 9.30972 14.3354 9.83793 14.6856 10.102C14.7732 10.3001 15.1235 10.3661 15.3862 10.3661Z" fill="white"/>
<path d="M30.7102 4.29171C30.7977 4.29171 30.8853 4.29171 30.9729 4.29171C31.8485 4.15966 32.8117 4.02761 33.775 3.89556C34.3004 3.82953 34.7382 3.43337 34.6506 3.03721C34.563 2.64105 34.1252 2.31092 33.5123 2.37695C32.549 2.509 31.4983 2.64105 30.535 2.77311C30.0096 2.83913 29.6594 3.30132 29.7469 3.69748C29.8345 4.09363 30.2723 4.29171 30.7102 4.29171Z" fill="white"/>
<path d="M20.0271 7.65907C20.2023 7.65907 20.3774 7.59304 20.5525 7.52701C21.3406 7.13085 22.2163 6.80072 23.0044 6.47059C23.5298 6.27251 23.7049 5.81033 23.4422 5.41417C23.1795 5.01801 22.5666 4.88596 22.0412 5.08404C21.1655 5.41417 20.2898 5.81033 19.4142 6.20648C18.9764 6.40456 18.8012 6.93278 19.1515 7.26291C19.3266 7.52701 19.6769 7.65907 20.0271 7.65907Z" fill="white"/>
<path d="M4.61559 25.6843C4.70316 25.6843 4.70316 25.6843 4.79072 25.6843C5.31612 25.6843 5.75394 25.4202 5.75394 25.024C5.84151 24.2977 6.01664 23.6375 6.27934 22.9112C6.3669 22.515 6.01664 22.1188 5.49125 21.9868C4.96585 21.9208 4.44046 22.1849 4.26533 22.581C4.0902 23.3073 3.91506 24.0996 3.73993 24.8259C3.65237 25.2881 4.0902 25.6182 4.61559 25.6843Z" fill="white"/>
<path d="M5.75394 21.3926C5.84151 21.3926 5.92907 21.4586 6.01664 21.4586C6.45447 21.4586 6.80473 21.2605 6.97986 20.9304C7.24256 20.2701 7.59282 19.5438 7.94308 18.9496C8.11821 18.5534 7.94308 18.0912 7.41769 17.9592C6.89229 17.8271 6.27933 17.9592 6.1042 18.3553C5.75394 19.0816 5.40368 19.7419 5.05341 20.4682C4.87828 20.7983 5.22855 21.2605 5.75394 21.3926Z" fill="white"/>
<path d="M7.76795 17.2329C7.94309 17.2989 8.11822 17.2989 8.20578 17.2989C8.55604 17.2989 8.90631 17.1669 9.08144 16.9028C9.51927 16.2425 9.9571 15.6483 10.4825 15.054C10.7452 14.7239 10.6576 14.2617 10.2198 13.9976C9.78197 13.7995 9.169 13.8655 8.81874 14.1957C8.29335 14.8559 7.76795 15.5162 7.33012 16.1765C7.15499 16.5726 7.33013 17.0348 7.76795 17.2329Z" fill="white"/>
<path d="M11.4457 13.6014C11.7084 13.6014 12.0587 13.4694 12.2338 13.3373C12.8468 12.7431 13.4597 12.2149 14.0727 11.6867C14.4229 11.3565 14.4229 10.8944 13.9851 10.6303C13.5473 10.3661 12.9343 10.3661 12.5841 10.6963C11.8835 11.2245 11.2706 11.8187 10.6576 12.413C10.3074 12.7431 10.3949 13.2053 10.8327 13.4694C11.0079 13.5354 11.183 13.6014 11.4457 13.6014Z" fill="white"/>
<path d="M36.5771 3.76351C36.8398 3.76351 37.0149 3.76351 37.2776 3.76351V5.54622L40.9553 2.77311L37.19 0V2.17887C36.9273 2.17887 36.7522 2.17887 36.4895 2.17887C35.9641 2.17887 35.5263 2.57503 35.5263 2.97119C35.6138 3.43337 36.0517 3.76351 36.5771 3.76351Z" fill="white"/>
<path d="M4.44046 31.2965L8.38091 28.3253H5.49124V28.2593C5.49124 27.8631 5.49124 27.533 5.49124 27.1369C5.49124 26.7407 5.05342 26.3445 4.52802 26.3445C4.00263 26.3445 3.47723 26.6747 3.47723 27.0708C3.47723 27.467 3.47723 27.8631 3.47723 28.2593V28.3253H0.5L4.44046 31.2965Z" fill="white"/>
<path d="M45.5088 40.012H5.22854L6.80473 38.9556C7.24256 38.6255 7.24256 38.0972 6.89229 37.7671C6.54203 37.437 5.8415 37.437 5.40368 37.7011C5.40368 37.7011 5.31611 37.7011 5.31611 37.7671L1.63835 40.2761C1.37565 40.4742 1.28809 40.6723 1.28809 40.9364C1.28809 41.2005 1.46322 41.3986 1.72592 41.5306L5.8415 43.8415C6.3669 44.1056 6.97986 44.0396 7.33012 43.6435C7.68038 43.2473 7.59282 42.7851 7.06742 42.521L5.57881 41.6627H45.4212C46.0341 41.6627 46.472 41.2665 46.5595 40.8703C46.5595 40.3421 46.1217 40.012 45.5088 40.012Z" fill="white"/>
</svg>
