<svg width="71" height="44" viewBox="0 0 71 44" fill="none" xmlns="http://www.w3.org/2000/svg">
<path d="M69.4949 42.0173H2.00006C1.45886 42.0173 0.99498 42.4749 0.99498 43.0087C0.99498 43.5425 1.45886 44 2.00006 44H69.4949C70.0361 44 70.5 43.5425 70.5 43.0087C70.5 42.3986 70.0361 42.0173 69.4949 42.0173Z" fill="white"/>
<path d="M2.0772 39.0433L12.0507 31.7227L11.6641 33.5529C11.5868 34.0867 11.896 34.5442 12.4372 34.6967C12.5146 34.6967 12.5919 34.6967 12.5919 34.6967C13.0557 34.6967 13.4423 34.3917 13.5196 33.9341L14.3701 29.6638C14.4474 29.3588 14.3701 29.13 14.1381 28.9012C13.9835 28.6725 13.6743 28.5199 13.365 28.5199H8.88081C8.33961 28.5199 7.87573 28.9775 7.87573 29.5113C7.87573 30.0451 8.33961 30.5026 8.88081 30.5026H10.5817L0.917494 37.5182C0.453612 37.8232 0.376298 38.4333 0.685553 38.8146C0.84018 39.0433 1.14944 39.1958 1.45869 39.1958C1.69063 39.1958 1.92257 39.1196 2.0772 39.0433Z" fill="white"/>
<path d="M26.3539 38.8908C26.4312 39.4246 26.8178 39.8059 27.2816 39.8059H27.359L31.7658 39.5009C32.0751 39.5009 32.307 39.3484 32.4617 39.1196C32.6163 38.8908 32.6936 38.5858 32.6163 38.357L31.3793 34.0867C31.2246 33.5529 30.6834 33.2478 30.2196 33.4003C29.6784 33.5529 29.3691 34.0867 29.5237 34.5442L29.9876 36.0693L20.478 28.7487C20.0915 28.4437 19.473 28.5199 19.0864 28.9012C18.7771 29.2825 18.8544 29.8926 19.241 30.2738L29.0599 37.8232L27.2043 37.9757C26.7404 37.8995 26.2766 38.357 26.3539 38.8908Z" fill="white"/>
<path d="M49.0068 34.6205C49.0841 34.6205 49.1614 34.6205 49.1614 34.6205C49.6253 34.6205 50.0119 34.3154 50.0892 33.8579L50.9396 29.5875C51.0169 29.2825 50.9396 29.0537 50.7077 28.825C50.5531 28.5962 50.2438 28.4437 49.9346 28.4437H45.4504C44.9092 28.4437 44.4453 28.9012 44.4453 29.435C44.4453 29.9688 44.9092 30.4264 45.4504 30.4264H47.074L37.4097 37.5182C36.9459 37.8232 36.8685 38.4333 37.1778 38.8146C37.3324 39.0433 37.6417 39.1959 37.9509 39.1959C38.1829 39.1959 38.3375 39.1196 38.4921 39.0433L48.4656 31.7227L48.079 33.5529C48.1563 34.0104 48.5429 34.4679 49.0068 34.6205Z" fill="white"/>
<path d="M66.557 35.9931L57.0474 28.6724C56.6609 28.3674 56.0423 28.4437 55.6558 28.825C55.3465 29.2062 55.4238 29.8163 55.8104 30.1976L65.6292 37.747L63.7737 37.8995C63.2325 37.9757 62.8459 38.4333 62.9233 38.8908C63.0006 39.4246 63.3871 39.8059 63.851 39.8059H63.9283L68.3352 39.5009C68.6445 39.5009 68.8764 39.3484 69.031 39.1196C69.1857 38.8908 69.263 38.5858 69.1857 38.357L67.9487 34.0867C67.794 33.5529 67.2528 33.2478 66.7889 33.4004C66.2477 33.5529 65.9385 34.0867 66.0931 34.5442L66.557 35.9931Z" fill="white"/>
<path d="M18.9318 20.1317C18.8544 20.4367 18.9318 20.7418 19.0864 20.9705C19.241 21.1993 19.5503 21.3518 19.8595 21.3518H33.3894C33.9306 21.3518 34.3172 20.9705 34.3172 20.4367V11.1335C34.3172 10.5997 33.9306 10.2184 33.3894 10.2184C27.7455 10.2184 20.7873 13.8787 18.9318 20.1317ZM32.3843 12.0485V19.4454H21.1739C22.9521 15.5563 27.6682 12.4298 32.3843 12.0485Z" fill="white"/>
<path d="M13.5971 4.65165H32.3843V6.4818C22.2563 6.93934 14.6795 14.26 14.6022 23.792C14.6022 23.8683 14.5249 23.9445 14.5249 24.0971C14.5249 24.6308 14.9114 25.0121 15.4526 25.0121H39.188C42.7444 25.0121 45.605 22.1906 45.605 18.6828V14.6412L54.1868 12.9636C54.6507 12.8873 54.96 12.5061 54.96 12.0485V7.39688C54.96 6.86309 54.5734 6.4818 54.0322 6.4818H34.3172V4.65165H54.96C55.5012 4.65165 55.8877 4.27036 55.8877 3.73657C55.8877 3.20277 55.5012 2.82149 54.96 2.82149H34.3172V0.915078C34.3172 0.381283 33.9306 0 33.3894 0C32.8482 0 32.4617 0.381283 32.4617 0.915078V2.74523H13.5971C13.0559 2.74523 12.6693 3.12652 12.6693 3.66031C12.6693 4.19411 13.1332 4.65165 13.5971 4.65165ZM53.1044 11.286L44.4453 12.9636C43.9814 13.0399 43.6721 13.4211 43.6721 13.8787V18.6828C43.6721 21.1231 41.662 23.1057 39.188 23.1057H16.4577C16.9216 14.565 24.0345 8.31196 33.3121 8.31196H53.1044V11.286Z" fill="white"/>
<path d="M47.6152 15.4801C47.3059 15.6326 47.3059 15.9376 47.3059 15.9376C47.3059 15.9376 47.4605 19.4454 47.3059 20.2842C47.074 21.1993 46.842 21.9619 46.0689 22.8769C45.5277 23.5633 44.9865 24.0208 44.5999 24.4021C44.368 24.6308 44.5226 25.0121 44.8319 25.0121L62.4594 25.3172C63.1552 25.3172 63.6191 24.6308 63.3098 24.0208L61.6089 20.2842C61.377 19.7504 60.8358 19.3691 60.2946 19.1404L48.2337 15.4038C48.2337 15.4801 47.9244 15.3275 47.6152 15.4801ZM49.0841 20.513C49.2387 19.6742 49.1614 18.6828 49.1614 18.0728C49.1614 17.9965 49.1614 17.844 49.2387 17.7678C49.3934 17.6152 49.7799 17.844 49.7799 17.844L58.903 20.5892C59.5215 20.7418 60.0627 21.1993 60.2946 21.8094L60.6038 22.4957C60.8358 23.0295 60.4492 23.5633 59.908 23.5633L48.1563 23.4107C47.6925 23.4107 48.2337 22.9532 48.3883 22.5719C48.7749 21.8094 49.0068 21.123 49.0841 20.513Z" fill="white"/>
</svg>
