<svg width="41" height="44" viewBox="0 0 41 44" fill="none" xmlns="http://www.w3.org/2000/svg">
<path d="M26.9304 10.1972C23.7752 10.2938 13.578 10.8254 6.81039 13.6285C6.53603 13.7251 6.30739 13.8701 6.03303 13.9668C6.26166 13.8701 6.53603 13.7251 6.81039 13.6285C13.578 10.7771 23.7752 10.2455 26.9304 10.1972Z" fill="white"/>
<path d="M1.96329 20.2011C2.00902 20.3461 2.1462 20.6844 2.37484 21.1677C2.10047 20.6844 2.00902 20.3461 1.96329 20.2011Z" fill="white"/>
<path d="M11.2459 24.164C10.9258 24.2123 10.6972 24.4539 10.6057 24.7439L9.73691 28.6585C9.18818 28.3685 8.63945 28.0302 8.18218 27.6919C5.39281 25.8071 3.79235 23.7774 2.92353 22.2792C3.83808 23.7774 5.43854 25.8071 8.18218 27.6919C8.63945 28.0302 9.18818 28.3202 9.73691 28.6585L10.6057 24.7439C10.6515 24.4056 10.9258 24.164 11.2459 24.164Z" fill="white"/>
<path d="M23.9582 23.0041C17.785 24.2606 14.5383 26.2421 13.1665 27.3053L12.0233 24.5506L13.1665 27.257C14.5383 26.2421 17.7392 24.2606 23.9582 23.0041C23.9124 23.0041 23.9124 23.0041 23.9582 23.0041Z" fill="white"/>
<path d="M40.0084 21.8926H39.9627C39.9627 21.8926 39.9627 21.8926 40.0084 21.8926Z" fill="white"/>
<path d="M39.8713 21.8443H39.8255C39.8255 21.8443 39.8255 21.8443 39.8713 21.8443Z" fill="white"/>
<path d="M40.1456 21.9893C40.1456 21.9893 40.0999 21.9893 40.0999 21.941C40.0999 21.941 40.0999 21.941 40.1456 21.9893Z" fill="white"/>
<path d="M40.3285 22.1343C40.3285 22.0859 40.2828 22.0859 40.2828 22.0859C40.2828 22.0859 40.2828 22.0859 40.3285 22.1343Z" fill="white"/>
<path d="M40.42 22.2793C40.42 22.2309 40.3743 22.2309 40.3743 22.1826C40.3743 22.2309 40.3743 22.2309 40.42 22.2793Z" fill="white"/>
<path d="M40.4657 22.4242C40.4657 22.3759 40.4657 22.3283 40.42 22.3283C40.42 22.3283 40.4657 22.3759 40.4657 22.4242Z" fill="white"/>
<path d="M40.1914 22.0376C40.1456 22.0376 40.1456 21.9893 40.0999 21.9893C40.1456 21.9893 40.1914 21.9893 40.1914 22.0376Z" fill="white"/>
<path d="M39.9627 21.8926C39.917 21.8926 39.917 21.8926 39.8713 21.8926C39.8713 21.8926 39.917 21.8926 39.9627 21.8926Z" fill="white"/>
<path d="M40.0999 21.941C40.0542 21.941 40.0541 21.8926 40.0084 21.8926C40.0084 21.8926 40.0542 21.941 40.0999 21.941Z" fill="white"/>
<path d="M39.7798 33.4913C39.7798 33.4913 39.6883 33.4913 39.5512 33.443C39.6426 33.443 39.6883 33.443 39.7798 33.3946V33.4913Z" fill="white"/>
<path d="M40.4657 22.5209C40.4657 22.4725 40.4657 22.4725 40.4657 22.4242C40.4657 22.4242 40.4657 22.4242 40.4657 22.3759C40.4657 22.3276 40.42 22.2793 40.42 22.2793L40.42 22.2309C40.42 22.1826 40.3743 22.1826 40.3743 22.1342L40.3285 22.0859C40.3285 22.0859 40.2828 22.0376 40.2828 21.9893C40.2828 21.9893 40.2371 21.9893 40.2371 21.9409C40.2371 21.9409 40.1913 21.8926 40.1456 21.8926C40.1456 21.8926 40.0999 21.8926 40.0999 21.8443C40.0542 21.8443 40.0542 21.7959 40.0084 21.7959H39.9627C39.917 21.7959 39.917 21.7959 39.8713 21.7959H39.8255C35.9387 21.6993 32.6006 21.7959 29.6741 22.0859C23.2265 21.7476 14.8127 20.0561 8.13647 14.6917C14.2639 12.4686 23.2722 11.7437 27.6621 11.6471C28.0736 11.6471 28.348 11.3088 28.348 10.8738V0.724921C28.348 0.531609 28.2565 0.289968 28.1193 0.144984C27.9821 0.048328 27.7992 0 27.5706 0C1.91755 1.59483 0.5 6.91091 0.5 7.97413V20.2978C0.5 20.3461 0.5 20.4428 0.545727 20.4911C0.591455 20.6844 1.78037 25.0823 7.31338 28.8518C7.99929 29.3351 8.6852 29.7217 9.46256 30.1084L7.77065 37.7925C7.77065 37.8409 7.77065 37.8892 7.77065 37.9858C7.77065 38.2758 7.95356 38.5658 8.1822 38.6624L18.8824 43.9302C19.1568 44.0752 19.4769 43.9785 19.7055 43.7852C19.9341 43.5436 19.9799 43.2053 19.8427 42.9153L18.2879 39.2907C28.4851 32.8631 39.5512 34.2163 39.6883 34.2163C39.917 34.2646 40.0999 34.1679 40.2371 34.0229C40.3743 33.878 40.4657 33.6846 40.4657 33.443L40.4657 22.6175C40.5114 22.5692 40.5114 22.5692 40.4657 22.5209ZM1.96328 8.07078C1.96328 8.02246 2.009 7.97413 2.009 7.87747C2.46628 6.95924 5.66719 2.99634 26.9304 1.59483L26.9304 10.1972C23.7752 10.2938 13.578 10.7772 6.81037 13.5802C6.53601 13.6768 6.30737 13.8218 6.03301 13.9185C5.80437 14.0151 5.57574 14.1601 5.3471 14.2568C3.97528 14.9817 2.78637 15.7549 1.96328 16.7215V8.07078ZM2.92355 22.2309C2.87782 22.1342 2.8321 22.0859 2.78637 21.9893C2.69491 21.8443 2.64919 21.6993 2.55773 21.5543C2.46628 21.4093 2.42057 21.3127 2.37484 21.1677C2.1462 20.6844 2.00902 20.3461 1.96329 20.2011L1.96328 19.9112C2.28337 18.0264 4.02101 16.5282 6.58174 15.3683C11.8404 19.8145 18.2422 21.9892 23.9582 23.0041C23.9582 23.0041 23.9581 23.0041 23.9124 23.0041C17.7392 24.2607 14.5383 26.2421 13.1665 27.3053L12.0233 24.599C12.0233 24.5506 11.9776 24.5506 11.9776 24.5023C11.8404 24.2607 11.566 24.1157 11.2917 24.1157C10.9716 24.164 10.7429 24.4057 10.6515 24.6956L9.78265 28.6102C9.23392 28.2719 8.6852 27.9819 8.22792 27.6436C5.43855 25.8072 3.8381 23.7774 2.92355 22.2309C2.92355 22.2792 2.92355 22.2792 2.92355 22.2309ZM39.0482 32.6214C37.1276 32.4764 31.9604 32.3315 25.9701 34.1679C23.0893 35.0378 20.0256 36.391 17.0076 38.3725C16.6875 38.5658 16.596 39.0007 16.7332 39.339L17.7392 41.7071L9.32538 37.5992L10.7887 30.8333L11.1087 29.3351L11.566 27.257L12.2519 28.8518C12.3434 29.0935 12.5263 29.2385 12.7549 29.2868C12.9836 29.3351 13.2122 29.2385 13.3951 29.0935C13.578 28.9002 17.5563 24.8889 29.7655 23.6807C32.4634 23.4391 35.5272 23.2941 39.0482 23.3424V32.6214Z" fill="white"/>
</svg>
