<svg width="32" height="32" viewBox="0 0 32 32" fill="none" xmlns="http://www.w3.org/2000/svg">
<rect width="32" height="32" rx="6" fill="#413E45"/>
<path d="M25 14.0444C25 11.7911 23.2671 10 21.087 10H10.913C8.73292 10 7 11.7911 7 14.0444V18.9556C7 21.2089 8.73292 23 10.913 23H21.087C23.2671 23 25 21.2089 25 18.9556V14.0444ZM18.6273 16.7022L14.6025 19.0133C14.4348 19.1289 14.2671 18.9556 14.2671 18.7822V14.0444C14.2671 13.8133 14.4348 13.6978 14.6025 13.8133L18.6832 16.24C18.795 16.3556 18.795 16.6444 18.6273 16.7022Z" fill="#7B797E"/>
</svg>
