<svg width="60" height="60" viewBox="0 0 60 60" fill="none" xmlns="http://www.w3.org/2000/svg">
<path d="M6.8711 59.1816C6.8711 59.2778 6.8711 59.3499 6.89327 59.422C6.91543 59.4941 6.9376 59.5662 6.98193 59.6143C7.02626 59.6624 7.07059 59.7105 7.11492 59.7345C7.18141 59.7586 7.2479 59.7826 7.33656 59.7826C7.42522 59.7826 7.49172 59.7586 7.55821 59.7345C7.62471 59.7105 7.66904 59.6624 7.6912 59.6143C7.73553 59.5662 7.75769 59.4941 7.77986 59.422C7.80202 59.3499 7.80202 59.2537 7.80202 59.1816V56.6816H7.97934V59.1576C7.97934 59.2778 7.95718 59.398 7.93501 59.4941C7.91285 59.5903 7.86852 59.6864 7.82419 59.7586C7.77986 59.8307 7.71337 59.9028 7.62471 59.9268C7.53605 59.9509 7.44739 59.9989 7.33656 59.9989C7.22574 59.9989 7.11492 59.9749 7.04842 59.9268C6.98193 59.8787 6.89327 59.8307 6.84894 59.7586C6.80461 59.6864 6.76028 59.5903 6.73812 59.4941C6.71595 59.398 6.69379 59.2778 6.69379 59.1576V56.6816H6.8711V59.1816Z" fill="url(#paint0_linear)"/>
<path d="M11.3705 58.4374L11.171 58.798V59.9759H10.9716V56.6826H11.171V58.4134L12.1685 56.6826H12.3679L11.5035 58.2211L12.4344 59.9759H12.235L11.3705 58.4374Z" fill="url(#paint1_linear)"/>
<path d="M16.003 56.6826C16.2246 56.6826 16.402 56.7547 16.4906 56.8749C16.5793 56.9951 16.6458 57.1874 16.6458 57.4278V57.7163C16.6458 58.1009 16.4906 58.3172 16.2025 58.3893C16.3576 58.4374 16.4685 58.5095 16.535 58.6297C16.6014 58.7499 16.6458 58.8941 16.6458 59.0624V59.5672C16.6458 59.6393 16.6458 59.7114 16.6679 59.7836C16.6901 59.8557 16.6901 59.9038 16.7344 59.9759H16.535C16.5128 59.9278 16.4906 59.8797 16.4906 59.8076C16.4906 59.7355 16.4685 59.6634 16.4685 59.5913V59.0865C16.4685 58.9663 16.4463 58.8941 16.4241 58.822C16.402 58.7499 16.3576 58.7018 16.3133 58.6538C16.269 58.6057 16.2025 58.5816 16.136 58.5576C16.0695 58.5336 15.9808 58.5336 15.8922 58.5336H15.5819V59.9999H15.3824V56.7067H16.003V56.6826ZM15.8922 58.2932C15.9808 58.2932 16.0695 58.2932 16.136 58.2691C16.2025 58.2451 16.269 58.2211 16.3133 58.173C16.3576 58.1249 16.402 58.0768 16.4241 58.0047C16.4463 57.9326 16.4685 57.8365 16.4685 57.7403V57.4518C16.4685 57.2836 16.4241 57.1393 16.3576 57.0432C16.2911 56.947 16.1803 56.899 16.003 56.899H15.5819V58.3172H15.8922V58.2932Z" fill="url(#paint2_linear)"/>
<path d="M19.9705 59.2547L19.8153 59.9759H19.638L20.3029 56.6826H20.5911L21.256 59.9759H21.0565L20.9014 59.2547H19.9705ZM20.0148 59.0624H20.9014L20.4581 56.947L20.0148 59.0624Z" fill="url(#paint3_linear)"/>
<path d="M24.4256 56.6826V59.9759H24.2261V56.6826H24.4256Z" fill="url(#paint4_linear)"/>
<path d="M27.5952 59.9759H27.4178V56.6826H27.6838L28.5926 59.447V56.6826H28.7699V59.9759H28.5482L27.5952 57.0432V59.9759Z" fill="url(#paint5_linear)"/>
<path d="M32.7817 58.1967V58.389H31.9616V59.7592H32.959V59.9515H31.7621V56.6582H32.959V56.8505H31.9616V58.1726H32.7817V58.1967Z" fill="url(#paint6_linear)"/>
<path fill-rule="evenodd" clip-rule="evenodd" d="M30.1884 54.8313L28.0163 51.1534L26.2652 48.1967L23.805 46.1053L20.7462 43.5092L23.805 40.913L26.2652 38.8217H26.1987L30.2106 16.3457L34.1337 38.8217H34.0894V38.8457L36.5497 40.937L39.6084 43.5332L36.5718 46.1053L34.1116 48.1967L32.3605 51.1534L30.1884 54.8313ZM12.7447 42.6678L12.3679 42.3313L11.2375 41.3697H11.2597L10.9272 39.5428L10.8829 39.3265L10.7942 38.8217L9.70816 32.6678L9.42002 31.0813L9.13188 32.6678L8.71075 35.0717L8.04581 38.8217L7.95715 39.3505L7.91282 39.5669L7.58035 41.4178H7.60251L6.47211 42.3794L6.09531 42.7159L5.89583 42.8842L5.07573 43.5813L5.89583 44.2784L6.09531 44.4467L6.47211 44.7832L7.60251 45.7447L8.40044 47.0909L8.66642 47.5236L8.77724 47.7159L9.39786 48.7736L10.0185 47.7159L10.1293 47.5236L10.3953 47.0909L11.1932 45.7447L12.3236 44.7832L12.7004 44.4467L12.8334 44.3265L13.72 43.5813L12.8334 42.8361L12.7447 42.6678ZM9.44219 54.8313L7.27004 51.1534L5.54119 48.1967L3.0809 46.1053L0 43.5092L3.05874 40.913L5.51902 38.8217H5.45253L9.44219 16.3457L13.3653 38.8217H13.321V38.8457L15.7813 40.937L18.8844 43.5092L15.8256 46.1053L13.3653 48.1967L11.6143 51.1534L9.44219 54.8313ZM33.5131 42.6678L33.1363 42.3313L32.0059 41.3697H32.0281L31.6956 39.5428L31.6513 39.3265L31.5626 38.8217L30.4765 32.6678L30.1884 31.0813L29.9003 32.6678L29.4791 35.0717L28.8142 38.8217L28.6812 39.5428L28.3487 41.3938H28.3709L27.2405 42.3553L26.8637 42.6919L26.6642 42.8601L25.8441 43.5572L26.6642 44.2544L26.8637 44.4226L27.2405 44.7592L28.3709 45.7207L29.1688 47.0669L29.4348 47.4995L29.5456 47.6918L30.1662 48.7495L30.7868 47.6918L30.8977 47.4995L31.1637 47.0669L31.9616 45.7207L33.092 44.7592L33.4688 44.4226L33.6018 44.3024L34.4884 43.5572L33.5131 42.6678Z" fill="url(#paint7_linear)"/>
<path fill-rule="evenodd" clip-rule="evenodd" d="M16.7122 22.476H16.7566L14.8504 24.5673L12.4788 27.1635L14.8504 29.7596L16.7566 31.851L18.1086 34.8077L19.7931 38.4856L21.4776 34.8077L22.8297 31.851L24.7359 29.7596L27.1075 27.1635L24.7359 24.5673L22.8297 22.476V22.4519H22.8519L19.771 0L16.7122 22.476ZM22.3421 26.3221L23.14 27.1875L22.4529 27.9327L22.3421 28.0529L22.0318 28.3894L21.1452 29.351L20.5246 30.6971L20.3251 31.1298L20.2364 31.3221L19.7488 32.3798L19.1725 31.1298L18.973 30.6971L18.3524 29.351L17.4658 28.3894L17.1555 28.0529L16.3576 27.1875L17.0004 26.4904L17.1555 26.3221L17.4658 25.9856L18.3303 25.024H18.3081L18.5519 23.1731L18.5741 22.9567L18.6406 22.4279L18.9287 20.2885L19.4828 16.274L19.7045 14.6875L19.9261 16.274L20.7684 22.4279L20.8349 22.9327L20.857 23.149L21.1008 24.976H21.0787L21.9653 25.9375L22.3421 26.3221Z" fill="url(#paint8_linear)"/>
<path d="M46.3022 24.4473V36.5867C46.3022 37.7165 46.7677 38.1252 47.4769 38.1252C48.2084 38.1252 48.6517 37.7165 48.6517 36.5867V24.4473H50.8016V36.4184C50.8016 38.9425 49.6491 40.3848 47.4104 40.3848C45.1718 40.3848 44.0192 38.9425 44.0192 36.4184V24.4473H46.3022Z" fill="url(#paint9_linear)"/>
<path d="M59.734 40.1684H57.4289L57.0299 37.3078H54.2372L53.8382 40.1684H51.7547L54.082 24.4473H57.4289L59.734 40.1684ZM54.5475 35.1925H56.7418L55.6335 27.2357L54.5475 35.1925Z" fill="url(#paint10_linear)"/>
<path d="M45.4821 52.0912H47.7207V53.7979H45.4821V58.7258H43.7532V46.8027H48.3192V48.5095H45.4821V52.0912Z" fill="url(#paint11_linear)"/>
<path d="M49.1614 46.8027H50.8903V57.0191H53.7274V58.7258H49.1614V46.8027Z" fill="url(#paint12_linear)"/>
<path d="M55.1237 54.7595L52.9516 46.8027H54.7469L56.0547 52.2354L57.3624 46.8027H59.0026L56.8304 54.7595V58.7018H55.1016V54.7595H55.1237Z" fill="url(#paint13_linear)"/>
<path d="M60 42.0674H43.7532V44.1587H60V42.0674Z" fill="url(#paint14_linear)"/>
<path d="M59.9778 42.0674H51.8655V44.1587H59.9778V42.0674Z" fill="url(#paint15_linear)"/>
<defs>
<linearGradient id="paint0_linear" x1="7.2482" y1="59.7968" x2="8.78761" y2="58.1815" gradientUnits="userSpaceOnUse">
<stop stop-color="white"/>
<stop offset="1" stop-color="white"/>
</linearGradient>
<linearGradient id="paint1_linear" x1="11.6024" y1="59.7752" x2="13.1068" y2="57.9659" gradientUnits="userSpaceOnUse">
<stop stop-color="white"/>
<stop offset="1" stop-color="white"/>
</linearGradient>
<linearGradient id="paint2_linear" x1="15.9655" y1="59.7978" x2="17.4992" y2="58.1052" gradientUnits="userSpaceOnUse">
<stop stop-color="white"/>
<stop offset="1" stop-color="white"/>
</linearGradient>
<linearGradient id="paint3_linear" x1="20.3358" y1="59.7752" x2="21.8056" y2="57.82" gradientUnits="userSpaceOnUse">
<stop stop-color="white"/>
<stop offset="1" stop-color="white"/>
</linearGradient>
<linearGradient id="paint4_linear" x1="24.3122" y1="59.7752" x2="24.8009" y2="59.6951" gradientUnits="userSpaceOnUse">
<stop stop-color="white"/>
<stop offset="1" stop-color="white"/>
</linearGradient>
<linearGradient id="paint5_linear" x1="28.0009" y1="59.7752" x2="29.5224" y2="58.0839" gradientUnits="userSpaceOnUse">
<stop stop-color="white"/>
<stop offset="1" stop-color="white"/>
</linearGradient>
<linearGradient id="paint6_linear" x1="32.2783" y1="59.7508" x2="33.8082" y2="58.2454" gradientUnits="userSpaceOnUse">
<stop stop-color="white"/>
<stop offset="1" stop-color="white"/>
</linearGradient>
<linearGradient id="paint7_linear" x1="17.0816" y1="52.4866" x2="28.4504" y2="20.8059" gradientUnits="userSpaceOnUse">
<stop stop-color="white"/>
<stop offset="1" stop-color="white"/>
</linearGradient>
<linearGradient id="paint8_linear" x1="18.7876" y1="36.1409" x2="36.6604" y2="17.7462" gradientUnits="userSpaceOnUse">
<stop stop-color="white"/>
<stop offset="1" stop-color="white"/>
</linearGradient>
<linearGradient id="paint9_linear" x1="46.9442" y1="39.4138" x2="54.275" y2="30.9668" gradientUnits="userSpaceOnUse">
<stop stop-color="white"/>
<stop offset="1" stop-color="white"/>
</linearGradient>
<linearGradient id="paint10_linear" x1="55.1959" y1="39.2106" x2="62.1457" y2="29.6598" gradientUnits="userSpaceOnUse">
<stop stop-color="white"/>
<stop offset="1" stop-color="white"/>
</linearGradient>
<linearGradient id="paint11_linear" x1="45.7223" y1="57.9994" x2="51.2581" y2="52.2594" gradientUnits="userSpaceOnUse">
<stop stop-color="white"/>
<stop offset="1" stop-color="white"/>
</linearGradient>
<linearGradient id="paint12_linear" x1="51.1306" y1="57.9994" x2="56.6663" y2="52.2594" gradientUnits="userSpaceOnUse">
<stop stop-color="white"/>
<stop offset="1" stop-color="white"/>
</linearGradient>
<linearGradient id="paint13_linear" x1="55.5612" y1="57.9768" x2="60.8182" y2="50.7384" gradientUnits="userSpaceOnUse">
<stop stop-color="white"/>
<stop offset="1" stop-color="white"/>
</linearGradient>
<linearGradient id="paint14_linear" x1="50.7598" y1="44.0313" x2="50.852" y2="42.0924" gradientUnits="userSpaceOnUse">
<stop stop-color="white"/>
<stop offset="1" stop-color="white"/>
</linearGradient>
<linearGradient id="paint15_linear" x1="55.3641" y1="44.0313" x2="55.5474" y2="42.1055" gradientUnits="userSpaceOnUse">
<stop stop-color="white"/>
<stop offset="1" stop-color="white"/>
</linearGradient>
</defs>
</svg>
