<svg width="287" height="86" viewBox="0 0 287 86" fill="none" xmlns="http://www.w3.org/2000/svg">
<path d="M19.6044 35.9292H28.5105C35.5681 35.9292 39.0969 32.4647 39.0969 25.5355C39.0969 22.8388 38.2567 20.6477 36.5763 18.9622C34.8959 17.2393 32.5247 16.3779 29.4627 16.3779C26.9608 16.3779 24.7763 17.1082 22.9092 18.569C21.0794 20.0297 20.1646 21.8463 20.1646 24.0186H1.28829C1.28829 19.7113 2.48323 15.8722 4.87311 12.5013C7.26298 9.13037 10.5677 6.50853 14.7874 4.6358C19.0443 2.7256 23.712 1.77051 28.7905 1.77051C37.8646 1.77051 44.9969 3.84925 50.1874 8.00672C55.3779 12.1642 57.9731 17.876 57.9731 25.1423C57.9731 28.663 56.8902 31.9965 54.7244 35.1427C52.5959 38.2514 49.4779 40.7796 45.3703 42.7273C49.7019 44.3004 53.1 46.6975 55.5646 49.9186C58.0292 53.1022 59.2614 57.0537 59.2614 61.773C59.2614 69.0767 56.4608 74.9196 50.8595 79.3018C45.2583 83.684 37.9019 85.8751 28.7905 85.8751C23.4507 85.8751 18.4842 84.8639 13.8911 82.8413C9.33545 80.7813 5.88133 77.9535 3.5288 74.3578C1.17627 70.7247 0 66.6047 0 61.9977H18.9883C18.9883 64.5072 19.9965 66.6796 22.013 68.5149C24.0294 70.3501 26.5127 71.2678 29.4627 71.2678C32.7861 71.2678 35.4374 70.3501 37.4165 68.5149C39.3956 66.6421 40.3852 64.2638 40.3852 61.3797C40.3852 57.2597 39.3583 54.3382 37.3045 52.6153C35.2507 50.8924 32.4127 50.0309 28.7905 50.0309H19.6044V35.9292Z" fill="#3A3A3A"/>
<path d="M139.192 84.7515H120.259V24.2995L101.663 29.7492V15.3666L137.455 2.95033H139.192V84.7515Z" fill="#3A3A3A"/>
<path d="M220.466 13.0631L189.995 84.7515H170.055L200.581 17.5577H161.709V2.95033H220.466V13.0631Z" fill="#3A3A3A"/>
<path d="M286.841 51.3231C286.841 62.3723 284.358 70.8932 279.391 76.886C274.462 82.8788 267.498 85.8751 258.499 85.8751C249.425 85.8751 242.404 82.86 237.438 76.8298C232.471 70.7996 229.988 62.2974 229.988 51.3231V36.3787C229.988 25.3295 232.453 16.8086 237.382 10.8158C242.348 4.82307 249.35 1.82669 258.387 1.82669C267.423 1.82669 274.425 4.8418 279.391 10.872C284.358 16.9022 286.841 25.4232 286.841 36.4349V51.3231ZM267.965 33.9629C267.965 28.0825 267.199 23.7003 265.668 20.8162C264.137 17.8948 261.71 16.434 258.387 16.434C255.138 16.434 252.767 17.7824 251.273 20.4792C249.817 23.1759 249.032 27.2585 248.92 32.7269V53.6266C248.92 59.7317 249.686 64.2076 251.217 67.0541C252.748 69.8632 255.175 71.2678 258.499 71.2678C261.71 71.2678 264.081 69.9007 265.612 67.1665C267.143 64.3948 267.927 60.0688 267.965 54.1884V33.9629Z" fill="#3A3A3A"/>
<path d="M19.6044 34.1587H28.5105C35.5681 34.1587 39.0969 30.6942 39.0969 23.765C39.0969 21.0683 38.2567 18.8772 36.5763 17.1917C34.8959 15.4688 32.5247 14.6074 29.4627 14.6074C26.9608 14.6074 24.7763 15.3377 22.9092 16.7985C21.0794 18.2592 20.1646 20.0757 20.1646 22.2481H1.28829C1.28829 17.9408 2.48323 14.1017 4.87311 10.7308C7.26298 7.35986 10.5677 4.73803 14.7874 2.86529C19.0443 0.955096 23.712 0 28.7905 0C37.8646 0 44.9969 2.07874 50.1874 6.23622C55.3779 10.3937 57.9731 16.1055 57.9731 23.3718C57.9731 26.8925 56.8902 30.226 54.7244 33.3722C52.5959 36.4809 49.4779 39.0091 45.3703 40.9568C49.7019 42.5299 53.1 44.927 55.5646 48.1481C58.0292 51.3317 59.2614 55.2832 59.2614 60.0025C59.2614 67.3062 56.4608 73.1491 50.8595 77.5313C45.2583 81.9135 37.9019 84.1046 28.7905 84.1046C23.4507 84.1046 18.4842 83.0934 13.8911 81.0708C9.33545 79.0108 5.88133 76.183 3.5288 72.5873C1.17627 68.9542 0 64.8342 0 60.2272H18.9883C18.9883 62.7367 19.9965 64.9091 22.013 66.7444C24.0294 68.5796 26.5127 69.4973 29.4627 69.4973C32.7861 69.4973 35.4374 68.5796 37.4165 66.7444C39.3956 64.8716 40.3852 62.4932 40.3852 59.6092C40.3852 55.4892 39.3583 52.5677 37.3045 50.8448C35.2507 49.1219 32.4127 48.2604 28.7905 48.2604H19.6044V34.1587Z" fill="url(#paint0_linear)"/>
<path d="M139.192 82.981H120.259V22.529L101.663 27.9787V13.5961L137.455 1.17982H139.192V82.981Z" fill="url(#paint1_linear)"/>
<path d="M220.466 11.2926L189.995 82.981H170.055L200.581 15.7872H161.709V1.17982H220.466V11.2926Z" fill="url(#paint2_linear)"/>
<path d="M286.841 49.5526C286.841 60.6018 284.358 69.1227 279.391 75.1155C274.462 81.1083 267.498 84.1046 258.499 84.1046C249.425 84.1046 242.404 81.0895 237.438 75.0593C232.471 69.0291 229.988 60.5269 229.988 49.5526V34.6082C229.988 23.559 232.453 15.0381 237.382 9.04532C242.348 3.05256 249.35 0.0561821 258.387 0.0561821C267.423 0.0561821 274.425 3.07129 279.391 9.1015C284.358 15.1317 286.841 23.6527 286.841 34.6644V49.5526ZM267.965 32.1924C267.965 26.312 267.199 21.9298 265.668 19.0457C264.137 16.1243 261.71 14.6635 258.387 14.6635C255.138 14.6635 252.767 16.0119 251.273 18.7086C249.817 21.4054 249.032 25.488 248.92 30.9563V51.8561C248.92 57.9612 249.686 62.4371 251.217 65.2836C252.748 68.0927 255.175 69.4973 258.499 69.4973C261.71 69.4973 264.081 68.1302 265.612 65.396C267.143 62.6243 267.927 58.2983 267.965 52.4179V32.1924Z" fill="url(#paint3_linear)"/>
<defs>
<linearGradient id="paint0_linear" x1="143.421" y1="0" x2="143.421" y2="84.1046" gradientUnits="userSpaceOnUse">
<stop stop-color="#DC1A1C"/>
<stop offset="1" stop-color="#0C4B88"/>
</linearGradient>
<linearGradient id="paint1_linear" x1="143.421" y1="0" x2="143.421" y2="84.1046" gradientUnits="userSpaceOnUse">
<stop stop-color="#DC1A1C"/>
<stop offset="1" stop-color="#0C4B88"/>
</linearGradient>
<linearGradient id="paint2_linear" x1="143.421" y1="0" x2="143.421" y2="84.1046" gradientUnits="userSpaceOnUse">
<stop stop-color="#DC1A1C"/>
<stop offset="1" stop-color="#0C4B88"/>
</linearGradient>
<linearGradient id="paint3_linear" x1="143.421" y1="0" x2="143.421" y2="84.1046" gradientUnits="userSpaceOnUse">
<stop stop-color="#DC1A1C"/>
<stop offset="1" stop-color="#0C4B88"/>
</linearGradient>
</defs>
</svg>
