<svg width="1067" height="189" viewBox="0 0 1067 189" fill="none" xmlns="http://www.w3.org/2000/svg">
<path d="M177.44 99L177.38 73.86L165.02 94.56H160.7L148.34 74.34V99H139.22V57H147.26L162.98 83.1L178.46 57H186.5L186.56 99H177.44ZM196.273 66.72H205.573V85.92L221.293 66.72H229.873V99H220.573V79.8L204.913 99H196.273V66.72ZM254.483 78.36H271.463V85.86H254.483V78.36Z" fill="#3A3A3A"/>
<path d="M328.1 66.72V99H318.74V74.4H305.3V99H296V66.72H328.1ZM356.094 66.24C359.094 66.24 361.814 66.94 364.254 68.34C366.734 69.7 368.674 71.64 370.074 74.16C371.474 76.64 372.174 79.54 372.174 82.86C372.174 86.18 371.474 89.1 370.074 91.62C368.674 94.1 366.734 96.04 364.254 97.44C361.814 98.8 359.094 99.48 356.094 99.48C351.974 99.48 348.734 98.18 346.374 95.58V110.64H337.014V66.72H345.954V70.44C348.274 67.64 351.654 66.24 356.094 66.24ZM354.474 91.8C356.874 91.8 358.834 91 360.354 89.4C361.914 87.76 362.694 85.58 362.694 82.86C362.694 80.14 361.914 77.98 360.354 76.38C358.834 74.74 356.874 73.92 354.474 73.92C352.074 73.92 350.094 74.74 348.534 76.38C347.014 77.98 346.254 80.14 346.254 82.86C346.254 85.58 347.014 87.76 348.534 89.4C350.094 91 352.074 91.8 354.474 91.8ZM393.854 99.48C390.454 99.48 387.394 98.78 384.674 97.38C381.994 95.94 379.894 93.96 378.374 91.44C376.854 88.92 376.094 86.06 376.094 82.86C376.094 79.66 376.854 76.8 378.374 74.28C379.894 71.76 381.994 69.8 384.674 68.4C387.394 66.96 390.454 66.24 393.854 66.24C397.254 66.24 400.294 66.96 402.974 68.4C405.654 69.8 407.754 71.76 409.274 74.28C410.794 76.8 411.554 79.66 411.554 82.86C411.554 86.06 410.794 88.92 409.274 91.44C407.754 93.96 405.654 95.94 402.974 97.38C400.294 98.78 397.254 99.48 393.854 99.48ZM393.854 91.8C396.254 91.8 398.214 91 399.734 89.4C401.294 87.76 402.074 85.58 402.074 82.86C402.074 80.14 401.294 77.98 399.734 76.38C398.214 74.74 396.254 73.92 393.854 73.92C391.454 73.92 389.474 74.74 387.914 76.38C386.354 77.98 385.574 80.14 385.574 82.86C385.574 85.58 386.354 87.76 387.914 89.4C389.474 91 391.454 91.8 393.854 91.8ZM442.652 82.14C446.452 83.42 448.352 85.98 448.352 89.82C448.352 92.74 447.252 95 445.052 96.6C442.852 98.2 439.572 99 435.212 99H417.992V66.72H434.492C438.532 66.72 441.692 67.46 443.972 68.94C446.252 70.38 447.392 72.42 447.392 75.06C447.392 76.66 446.972 78.08 446.132 79.32C445.332 80.52 444.172 81.46 442.652 82.14ZM426.572 79.98H433.652C436.932 79.98 438.572 78.82 438.572 76.5C438.572 74.22 436.932 73.08 433.652 73.08H426.572V79.98ZM434.432 92.64C437.872 92.64 439.592 91.46 439.592 89.1C439.592 87.86 439.192 86.96 438.392 86.4C437.592 85.8 436.332 85.5 434.612 85.5H426.572V92.64H434.432ZM455.256 66.72H464.616V99H455.256V66.72ZM459.936 62.22C458.216 62.22 456.816 61.72 455.736 60.72C454.656 59.72 454.116 58.48 454.116 57C454.116 55.52 454.656 54.28 455.736 53.28C456.816 52.28 458.216 51.78 459.936 51.78C461.656 51.78 463.056 52.26 464.136 53.22C465.216 54.18 465.756 55.38 465.756 56.82C465.756 58.38 465.216 59.68 464.136 60.72C463.056 61.72 461.656 62.22 459.936 62.22ZM509.778 91.32V105.96H501.078V99H478.398V105.96H469.698V91.32H471.018C473.018 91.28 474.398 90.1 475.158 87.78C475.918 85.46 476.398 82.16 476.598 77.88L477.018 66.72H505.158V91.32H509.778ZM485.058 78.54C484.938 81.82 484.678 84.5 484.278 86.58C483.918 88.66 483.218 90.24 482.178 91.32H495.798V74.4H485.238L485.058 78.54ZM515.668 66.72H524.968V79.32H539.008V66.72H548.368V99H539.008V86.94H524.968V99H515.668V66.72ZM557.328 66.72H566.628V85.92L582.348 66.72H590.928V99H581.628V79.8L565.968 99H557.328V66.72ZM599.926 66.72H609.226V85.92L624.946 66.72H633.526V99H624.226V79.8L608.566 99H599.926V66.72ZM616.126 63.24C609.086 63.24 605.546 60.14 605.506 53.94H611.626C611.666 55.34 612.046 56.44 612.766 57.24C613.526 58 614.626 58.38 616.066 58.38C617.506 58.38 618.606 58 619.366 57.24C620.166 56.44 620.566 55.34 620.566 53.94H626.806C626.766 60.14 623.206 63.24 616.126 63.24ZM684.176 82.14C687.976 83.42 689.876 85.98 689.876 89.82C689.876 92.74 688.776 95 686.576 96.6C684.376 98.2 681.096 99 676.736 99H659.516V66.72H676.016C680.056 66.72 683.216 67.46 685.496 68.94C687.776 70.38 688.916 72.42 688.916 75.06C688.916 76.66 688.496 78.08 687.656 79.32C686.856 80.52 685.696 81.46 684.176 82.14ZM668.096 79.98H675.176C678.456 79.98 680.096 78.82 680.096 76.5C680.096 74.22 678.456 73.08 675.176 73.08H668.096V79.98ZM675.956 92.64C679.396 92.64 681.116 91.46 681.116 89.1C681.116 87.86 680.716 86.96 679.916 86.4C679.116 85.8 677.856 85.5 676.136 85.5H668.096V92.64H675.956ZM696.84 66.72H706.14V85.92L721.86 66.72H730.44V99H721.14V79.8L705.48 99H696.84V66.72ZM758.458 66.24C761.458 66.24 764.178 66.94 766.617 68.34C769.098 69.7 771.038 71.64 772.438 74.16C773.838 76.64 774.538 79.54 774.538 82.86C774.538 86.18 773.838 89.1 772.438 91.62C771.038 94.1 769.098 96.04 766.617 97.44C764.178 98.8 761.458 99.48 758.458 99.48C754.338 99.48 751.098 98.18 748.738 95.58V110.64H739.378V66.72H748.318V70.44C750.638 67.64 754.018 66.24 758.458 66.24ZM756.838 91.8C759.238 91.8 761.198 91 762.718 89.4C764.278 87.76 765.058 85.58 765.058 82.86C765.058 80.14 764.278 77.98 762.718 76.38C761.198 74.74 759.238 73.92 756.838 73.92C754.438 73.92 752.458 74.74 750.898 76.38C749.378 77.98 748.618 80.14 748.618 82.86C748.618 85.58 749.378 87.76 750.898 89.4C752.458 91 754.438 91.8 756.838 91.8ZM796.218 99.48C792.818 99.48 789.758 98.78 787.038 97.38C784.358 95.94 782.258 93.96 780.738 91.44C779.218 88.92 778.458 86.06 778.458 82.86C778.458 79.66 779.218 76.8 780.738 74.28C782.258 71.76 784.358 69.8 787.038 68.4C789.758 66.96 792.818 66.24 796.218 66.24C799.618 66.24 802.658 66.96 805.338 68.4C808.018 69.8 810.118 71.76 811.638 74.28C813.158 76.8 813.918 79.66 813.918 82.86C813.918 86.06 813.158 88.92 811.638 91.44C810.118 93.96 808.018 95.94 805.338 97.38C802.658 98.78 799.618 99.48 796.218 99.48ZM796.218 91.8C798.618 91.8 800.578 91 802.098 89.4C803.658 87.76 804.438 85.58 804.438 82.86C804.438 80.14 803.658 77.98 802.098 76.38C800.578 74.74 798.618 73.92 796.218 73.92C793.818 73.92 791.838 74.74 790.278 76.38C788.718 77.98 787.938 80.14 787.938 82.86C787.938 85.58 788.718 87.76 790.278 89.4C791.838 91 793.818 91.8 796.218 91.8ZM839.015 68.94C842.095 68.94 844.795 69.58 847.115 70.86C849.435 72.1 851.215 73.86 852.455 76.14C853.735 78.42 854.375 81.06 854.375 84.06C854.375 87.14 853.615 89.88 852.095 92.28C850.615 94.64 848.535 96.48 845.855 97.8C843.175 99.08 840.135 99.72 836.735 99.72C831.095 99.72 826.655 97.92 823.415 94.32C820.215 90.68 818.615 85.36 818.615 78.36C818.615 71.88 820.015 66.72 822.815 62.88C825.655 59 829.995 56.46 835.835 55.26L851.195 52.2L852.455 60.24L838.895 62.94C835.215 63.66 832.475 64.86 830.675 66.54C828.915 68.22 827.875 70.6 827.555 73.68C828.955 72.16 830.635 71 832.595 70.2C834.555 69.36 836.695 68.94 839.015 68.94ZM836.795 92.46C839.195 92.46 841.115 91.68 842.555 90.12C844.035 88.56 844.775 86.58 844.775 84.18C844.775 81.74 844.035 79.8 842.555 78.36C841.115 76.92 839.195 76.2 836.795 76.2C834.355 76.2 832.395 76.92 830.915 78.36C829.435 79.8 828.695 81.74 828.695 84.18C828.695 86.62 829.455 88.62 830.975 90.18C832.495 91.7 834.435 92.46 836.795 92.46ZM860.727 66.72H870.027V79.32H884.067V66.72H893.427V99H884.067V86.94H870.027V99H860.727V66.72ZM902.387 66.72H911.687V85.92L927.407 66.72H935.987V99H926.687V79.8L911.027 99H902.387V66.72ZM959.204 86.76H954.344V99H944.984V66.72H954.344V79.26H959.384L968.144 66.72H978.104L966.824 82.2L978.884 99H967.844L959.204 86.76ZM982.1 57H993.26L991.4 84.42H983.96L982.1 57ZM987.68 99.48C986.04 99.48 984.66 98.96 983.54 97.92C982.46 96.84 981.92 95.54 981.92 94.02C981.92 92.5 982.46 91.24 983.54 90.24C984.62 89.2 986 88.68 987.68 88.68C989.36 88.68 990.74 89.2 991.82 90.24C992.9 91.24 993.44 92.5 993.44 94.02C993.44 95.54 992.88 96.84 991.76 97.92C990.68 98.96 989.32 99.48 987.68 99.48Z" fill="#BD1C29"/>
<path d="M158.592 137.86C160.128 138.316 161.304 139.06 162.12 140.092C162.936 141.124 163.344 142.396 163.344 143.908C163.344 146.14 162.492 147.88 160.788 149.128C159.108 150.376 156.696 151 153.552 151H141.132V125.8H152.868C155.796 125.8 158.076 126.364 159.708 127.492C161.34 128.62 162.156 130.228 162.156 132.316C162.156 133.564 161.844 134.668 161.22 135.628C160.596 136.564 159.72 137.308 158.592 137.86ZM146.928 136.24H152.364C153.636 136.24 154.596 135.988 155.244 135.484C155.892 134.956 156.216 134.188 156.216 133.18C156.216 132.196 155.88 131.44 155.208 130.912C154.56 130.384 153.612 130.12 152.364 130.12H146.928V136.24ZM153.336 146.68C156.072 146.68 157.44 145.6 157.44 143.44C157.44 141.352 156.072 140.308 153.336 140.308H146.928V146.68H153.336ZM186.352 141.388C186.352 141.46 186.316 141.964 186.244 142.9H171.592C171.856 144.1 172.48 145.048 173.464 145.744C174.448 146.44 175.672 146.788 177.136 146.788C178.144 146.788 179.032 146.644 179.8 146.356C180.592 146.044 181.324 145.564 181.996 144.916L184.984 148.156C183.16 150.244 180.496 151.288 176.992 151.288C174.808 151.288 172.876 150.868 171.196 150.028C169.516 149.164 168.22 147.976 167.308 146.464C166.396 144.952 165.94 143.236 165.94 141.316C165.94 139.42 166.384 137.716 167.272 136.204C168.184 134.668 169.42 133.48 170.98 132.64C172.564 131.776 174.328 131.344 176.272 131.344C178.168 131.344 179.884 131.752 181.42 132.568C182.956 133.384 184.156 134.56 185.02 136.096C185.908 137.608 186.352 139.372 186.352 141.388ZM176.308 135.592C175.036 135.592 173.968 135.952 173.104 136.672C172.24 137.392 171.712 138.376 171.52 139.624H181.06C180.868 138.4 180.34 137.428 179.476 136.708C178.612 135.964 177.556 135.592 176.308 135.592ZM209.057 131.632V151H203.441V136.24H197.321L197.141 139.66C197.045 142.204 196.805 144.316 196.421 145.996C196.037 147.676 195.413 148.996 194.549 149.956C193.685 150.916 192.485 151.396 190.949 151.396C190.133 151.396 189.161 151.252 188.033 150.964L188.321 146.356C188.705 146.404 188.981 146.428 189.149 146.428C189.989 146.428 190.613 146.128 191.021 145.528C191.453 144.904 191.741 144.124 191.885 143.188C192.029 142.228 192.137 140.968 192.209 139.408L192.497 131.632H209.057ZM214.458 131.632H220.038V143.152L229.47 131.632H234.618V151H229.038V139.48L219.642 151H214.458V131.632ZM248.548 143.656H245.632V151H240.016V131.632H245.632V139.156H248.656L253.912 131.632H259.888L253.12 140.92L260.356 151H253.732L248.548 143.656ZM263.114 131.632H268.694V143.152L278.126 131.632H283.274V151H277.694V139.48L268.298 151H263.114V131.632ZM288.673 131.632H294.253V143.152L303.685 131.632H308.833V151H303.253V139.48L293.857 151H288.673V131.632ZM298.393 129.544C294.169 129.544 292.045 127.684 292.021 123.964H295.693C295.717 124.804 295.945 125.464 296.377 125.944C296.833 126.4 297.493 126.628 298.357 126.628C299.221 126.628 299.881 126.4 300.337 125.944C300.817 125.464 301.057 124.804 301.057 123.964H304.801C304.777 127.684 302.641 129.544 298.393 129.544ZM333.643 151.288C331.579 151.288 329.719 150.868 328.063 150.028C326.431 149.164 325.147 147.976 324.211 146.464C323.299 144.952 322.843 143.236 322.843 141.316C322.843 139.396 323.299 137.68 324.211 136.168C325.147 134.656 326.431 133.48 328.063 132.64C329.719 131.776 331.579 131.344 333.643 131.344C335.683 131.344 337.459 131.776 338.971 132.64C340.507 133.48 341.623 134.692 342.319 136.276L337.963 138.616C336.955 136.84 335.503 135.952 333.607 135.952C332.143 135.952 330.931 136.432 329.971 137.392C329.011 138.352 328.531 139.66 328.531 141.316C328.531 142.972 329.011 144.28 329.971 145.24C330.931 146.2 332.143 146.68 333.607 146.68C335.527 146.68 336.979 145.792 337.963 144.016L342.319 146.392C341.623 147.928 340.507 149.128 338.971 149.992C337.459 150.856 335.683 151.288 333.643 151.288ZM354.263 143.656H351.347V151H345.731V131.632H351.347V139.156H354.371L359.627 131.632H365.603L358.835 140.92L366.071 151H359.447L354.263 143.656ZM387.405 131.632V151H381.789V136.24H375.669L375.489 139.66C375.393 142.204 375.153 144.316 374.769 145.996C374.385 147.676 373.761 148.996 372.897 149.956C372.033 150.916 370.833 151.396 369.297 151.396C368.481 151.396 367.509 151.252 366.381 150.964L366.669 146.356C367.053 146.404 367.329 146.428 367.497 146.428C368.337 146.428 368.961 146.128 369.369 145.528C369.801 144.904 370.089 144.124 370.233 143.188C370.377 142.228 370.485 140.968 370.557 139.408L370.845 131.632H387.405ZM400.329 131.344C403.329 131.344 405.633 132.064 407.241 133.504C408.849 134.92 409.653 137.068 409.653 139.948V151H404.397V148.588C403.341 150.388 401.373 151.288 398.493 151.288C397.005 151.288 395.709 151.036 394.605 150.532C393.525 150.028 392.697 149.332 392.121 148.444C391.545 147.556 391.257 146.548 391.257 145.42C391.257 143.62 391.929 142.204 393.273 141.172C394.641 140.14 396.741 139.624 399.573 139.624H404.037C404.037 138.4 403.665 137.464 402.921 136.816C402.177 136.144 401.061 135.808 399.573 135.808C398.541 135.808 397.521 135.976 396.513 136.312C395.529 136.624 394.689 137.056 393.993 137.608L391.977 133.684C393.033 132.94 394.293 132.364 395.757 131.956C397.245 131.548 398.769 131.344 400.329 131.344ZM399.897 147.508C400.857 147.508 401.709 147.292 402.453 146.86C403.197 146.404 403.725 145.744 404.037 144.88V142.9H400.185C397.881 142.9 396.729 143.656 396.729 145.168C396.729 145.888 397.005 146.464 397.557 146.896C398.133 147.304 398.913 147.508 399.897 147.508ZM436.24 146.392V155.176H431.02V151H417.412V155.176H412.192V146.392H412.984C414.184 146.368 415.012 145.66 415.468 144.268C415.924 142.876 416.212 140.896 416.332 138.328L416.584 131.632H433.468V146.392H436.24ZM421.408 138.724C421.336 140.692 421.18 142.3 420.94 143.548C420.724 144.796 420.304 145.744 419.68 146.392H427.852V136.24H421.516L421.408 138.724Z" fill="#0C4B88"/>
<path d="M457.494 131.344C460.494 131.344 462.798 132.064 464.406 133.504C466.014 134.92 466.818 137.068 466.818 139.948V151H461.562V148.588C460.506 150.388 458.538 151.288 455.658 151.288C454.17 151.288 452.874 151.036 451.77 150.532C450.69 150.028 449.862 149.332 449.286 148.444C448.71 147.556 448.422 146.548 448.422 145.42C448.422 143.62 449.094 142.204 450.438 141.172C451.806 140.14 453.906 139.624 456.738 139.624H461.202C461.202 138.4 460.83 137.464 460.086 136.816C459.342 136.144 458.226 135.808 456.738 135.808C455.706 135.808 454.686 135.976 453.678 136.312C452.694 136.624 451.854 137.056 451.158 137.608L449.142 133.684C450.198 132.94 451.458 132.364 452.922 131.956C454.41 131.548 455.934 131.344 457.494 131.344ZM457.062 147.508C458.022 147.508 458.874 147.292 459.618 146.86C460.362 146.404 460.89 145.744 461.202 144.88V142.9H457.35C455.046 142.9 453.894 143.656 453.894 145.168C453.894 145.888 454.17 146.464 454.722 146.896C455.298 147.304 456.078 147.508 457.062 147.508ZM480.912 151.288C478.848 151.288 476.988 150.868 475.332 150.028C473.7 149.164 472.416 147.976 471.48 146.464C470.568 144.952 470.112 143.236 470.112 141.316C470.112 139.396 470.568 137.68 471.48 136.168C472.416 134.656 473.7 133.48 475.332 132.64C476.988 131.776 478.848 131.344 480.912 131.344C482.952 131.344 484.728 131.776 486.24 132.64C487.776 133.48 488.892 134.692 489.588 136.276L485.232 138.616C484.224 136.84 482.772 135.952 480.876 135.952C479.412 135.952 478.2 136.432 477.24 137.392C476.28 138.352 475.8 139.66 475.8 141.316C475.8 142.972 476.28 144.28 477.24 145.24C478.2 146.2 479.412 146.68 480.876 146.68C482.796 146.68 484.248 145.792 485.232 144.016L489.588 146.392C488.892 147.928 487.776 149.128 486.24 149.992C484.728 150.856 482.952 151.288 480.912 151.288ZM501.827 151.288C499.787 151.288 497.951 150.868 496.319 150.028C494.711 149.164 493.451 147.976 492.539 146.464C491.627 144.952 491.171 143.236 491.171 141.316C491.171 139.396 491.627 137.68 492.539 136.168C493.451 134.656 494.711 133.48 496.319 132.64C497.951 131.776 499.787 131.344 501.827 131.344C503.867 131.344 505.691 131.776 507.299 132.64C508.907 133.48 510.167 134.656 511.079 136.168C511.991 137.68 512.447 139.396 512.447 141.316C512.447 143.236 511.991 144.952 511.079 146.464C510.167 147.976 508.907 149.164 507.299 150.028C505.691 150.868 503.867 151.288 501.827 151.288ZM501.827 146.68C503.267 146.68 504.443 146.2 505.355 145.24C506.291 144.256 506.759 142.948 506.759 141.316C506.759 139.684 506.291 138.388 505.355 137.428C504.443 136.444 503.267 135.952 501.827 135.952C500.387 135.952 499.199 136.444 498.263 137.428C497.327 138.388 496.859 139.684 496.859 141.316C496.859 142.948 497.327 144.256 498.263 145.24C499.199 146.2 500.387 146.68 501.827 146.68ZM527.721 131.344C529.521 131.344 531.153 131.764 532.617 132.604C534.105 133.42 535.269 134.584 536.109 136.096C536.949 137.584 537.369 139.324 537.369 141.316C537.369 143.308 536.949 145.06 536.109 146.572C535.269 148.06 534.105 149.224 532.617 150.064C531.153 150.88 529.521 151.288 527.721 151.288C525.249 151.288 523.305 150.508 521.889 148.948V157.984H516.273V131.632H521.637V133.864C523.029 132.184 525.057 131.344 527.721 131.344ZM526.749 146.68C528.189 146.68 529.365 146.2 530.277 145.24C531.213 144.256 531.681 142.948 531.681 141.316C531.681 139.684 531.213 138.388 530.277 137.428C529.365 136.444 528.189 135.952 526.749 135.952C525.309 135.952 524.121 136.444 523.185 137.428C522.273 138.388 521.817 139.684 521.817 141.316C521.817 142.948 522.273 144.256 523.185 145.24C524.121 146.2 525.309 146.68 526.749 146.68ZM556.874 136.24H550.322V151H544.742V136.24H538.19V131.632H556.874V136.24ZM559.868 131.632H565.448V143.152L574.88 131.632H580.028V151H574.448V139.48L565.052 151H559.868V131.632ZM604.327 151V139.408L598.531 149.128H596.155L590.503 139.372V151H585.427V131.632H591.295L597.487 142.828L604.075 131.632H609.331L609.403 151H604.327ZM633.61 141.388C633.61 141.46 633.574 141.964 633.502 142.9H618.85C619.114 144.1 619.738 145.048 620.722 145.744C621.706 146.44 622.93 146.788 624.394 146.788C625.402 146.788 626.29 146.644 627.058 146.356C627.85 146.044 628.582 145.564 629.254 144.916L632.242 148.156C630.418 150.244 627.754 151.288 624.25 151.288C622.066 151.288 620.134 150.868 618.454 150.028C616.774 149.164 615.478 147.976 614.566 146.464C613.654 144.952 613.198 143.236 613.198 141.316C613.198 139.42 613.642 137.716 614.53 136.204C615.442 134.668 616.678 133.48 618.238 132.64C619.822 131.776 621.586 131.344 623.53 131.344C625.426 131.344 627.142 131.752 628.678 132.568C630.214 133.384 631.414 134.56 632.278 136.096C633.166 137.608 633.61 139.372 633.61 141.388ZM623.566 135.592C622.294 135.592 621.226 135.952 620.362 136.672C619.498 137.392 618.97 138.376 618.778 139.624H628.318C628.126 138.4 627.598 137.428 626.734 136.708C625.87 135.964 624.814 135.592 623.566 135.592ZM637.915 131.632H643.495V139.192H651.919V131.632H657.535V151H651.919V143.764H643.495V151H637.915V131.632ZM679.183 136.24H672.631V151H667.051V136.24H660.499V131.632H679.183V136.24ZM701.581 131.632L692.833 152.188C691.945 154.42 690.841 155.992 689.521 156.904C688.225 157.816 686.653 158.272 684.805 158.272C683.797 158.272 682.801 158.116 681.817 157.804C680.833 157.492 680.029 157.06 679.405 156.508L681.457 152.512C681.889 152.896 682.381 153.196 682.933 153.412C683.509 153.628 684.073 153.736 684.625 153.736C685.393 153.736 686.017 153.544 686.497 153.16C686.977 152.8 687.409 152.188 687.793 151.324L687.865 151.144L679.477 131.632H685.273L690.709 144.772L696.181 131.632H701.581ZM729.281 140.884C731.561 141.652 732.701 143.188 732.701 145.492C732.701 147.244 732.041 148.6 730.721 149.56C729.401 150.52 727.433 151 724.817 151H714.485V131.632H724.385C726.809 131.632 728.705 132.076 730.073 132.964C731.441 133.828 732.125 135.052 732.125 136.636C732.125 137.596 731.873 138.448 731.369 139.192C730.889 139.912 730.193 140.476 729.281 140.884ZM719.633 139.588H723.881C725.849 139.588 726.833 138.892 726.833 137.5C726.833 136.132 725.849 135.448 723.881 135.448H719.633V139.588ZM724.349 147.184C726.413 147.184 727.445 146.476 727.445 145.06C727.445 144.316 727.205 143.776 726.725 143.44C726.245 143.08 725.489 142.9 724.457 142.9H719.633V147.184H724.349ZM747.075 131.632H752.655V139.192H761.079V131.632H766.695V151H761.079V143.764H752.655V151H747.075V131.632ZM779.595 131.344C782.595 131.344 784.899 132.064 786.507 133.504C788.115 134.92 788.919 137.068 788.919 139.948V151H783.663V148.588C782.607 150.388 780.639 151.288 777.759 151.288C776.271 151.288 774.975 151.036 773.871 150.532C772.791 150.028 771.963 149.332 771.387 148.444C770.811 147.556 770.523 146.548 770.523 145.42C770.523 143.62 771.195 142.204 772.539 141.172C773.907 140.14 776.007 139.624 778.839 139.624H783.303C783.303 138.4 782.931 137.464 782.187 136.816C781.443 136.144 780.327 135.808 778.839 135.808C777.807 135.808 776.787 135.976 775.779 136.312C774.795 136.624 773.955 137.056 773.259 137.608L771.243 133.684C772.299 132.94 773.559 132.364 775.023 131.956C776.511 131.548 778.035 131.344 779.595 131.344ZM779.163 147.508C780.123 147.508 780.975 147.292 781.719 146.86C782.463 146.404 782.991 145.744 783.303 144.88V142.9H779.451C777.147 142.9 775.995 143.656 775.995 145.168C775.995 145.888 776.271 146.464 776.823 146.896C777.399 147.304 778.179 147.508 779.163 147.508ZM811.006 131.632V151H806.002V145.456H801.862L798.19 151H792.214L796.642 144.664C795.298 144.136 794.266 143.38 793.546 142.396C792.85 141.388 792.502 140.176 792.502 138.76C792.502 136.48 793.318 134.728 794.95 133.504C796.606 132.256 798.874 131.632 801.754 131.632H811.006ZM801.862 136.204C800.662 136.204 799.75 136.42 799.126 136.852C798.526 137.284 798.226 137.98 798.226 138.94C798.226 139.9 798.514 140.608 799.09 141.064C799.69 141.496 800.59 141.712 801.79 141.712H806.002V136.204H801.862ZM831.199 140.884C833.479 141.652 834.619 143.188 834.619 145.492C834.619 147.244 833.959 148.6 832.639 149.56C831.319 150.52 829.351 151 826.735 151H816.403V131.632H826.303C828.727 131.632 830.623 132.076 831.991 132.964C833.359 133.828 834.043 135.052 834.043 136.636C834.043 137.596 833.791 138.448 833.287 139.192C832.807 139.912 832.111 140.476 831.199 140.884ZM821.551 139.588H825.799C827.767 139.588 828.751 138.892 828.751 137.5C828.751 136.132 827.767 135.448 825.799 135.448H821.551V139.588ZM826.267 147.184C828.331 147.184 829.363 146.476 829.363 145.06C829.363 144.316 829.123 143.776 828.643 143.44C828.163 143.08 827.407 142.9 826.375 142.9H821.551V147.184H826.267ZM838.798 131.632H844.378V139.192H852.802V131.632H858.418V151H852.802V143.764H844.378V151H838.798V131.632ZM872.866 151.288C870.826 151.288 868.99 150.868 867.358 150.028C865.75 149.164 864.49 147.976 863.578 146.464C862.666 144.952 862.21 143.236 862.21 141.316C862.21 139.396 862.666 137.68 863.578 136.168C864.49 134.656 865.75 133.48 867.358 132.64C868.99 131.776 870.826 131.344 872.866 131.344C874.906 131.344 876.73 131.776 878.338 132.64C879.946 133.48 881.206 134.656 882.118 136.168C883.03 137.68 883.486 139.396 883.486 141.316C883.486 143.236 883.03 144.952 882.118 146.464C881.206 147.976 879.946 149.164 878.338 150.028C876.73 150.868 874.906 151.288 872.866 151.288ZM872.866 146.68C874.306 146.68 875.482 146.2 876.394 145.24C877.33 144.256 877.798 142.948 877.798 141.316C877.798 139.684 877.33 138.388 876.394 137.428C875.482 136.444 874.306 135.952 872.866 135.952C871.426 135.952 870.238 136.444 869.302 137.428C868.366 138.388 867.898 139.684 867.898 141.316C867.898 142.948 868.366 144.256 869.302 145.24C870.238 146.2 871.426 146.68 872.866 146.68ZM896.564 151.288C894.5 151.288 892.64 150.868 890.984 150.028C889.352 149.164 888.068 147.976 887.132 146.464C886.22 144.952 885.764 143.236 885.764 141.316C885.764 139.396 886.22 137.68 887.132 136.168C888.068 134.656 889.352 133.48 890.984 132.64C892.64 131.776 894.5 131.344 896.564 131.344C898.604 131.344 900.38 131.776 901.892 132.64C903.428 133.48 904.544 134.692 905.24 136.276L900.884 138.616C899.876 136.84 898.424 135.952 896.528 135.952C895.064 135.952 893.852 136.432 892.892 137.392C891.932 138.352 891.452 139.66 891.452 141.316C891.452 142.972 891.932 144.28 892.892 145.24C893.852 146.2 895.064 146.68 896.528 146.68C898.448 146.68 899.9 145.792 900.884 144.016L905.24 146.392C904.544 147.928 903.428 149.128 901.892 149.992C900.38 150.856 898.604 151.288 896.564 151.288ZM924.855 136.24H918.303V151H912.723V136.24H906.171V131.632H924.855V136.24ZM927.812 131.632H933.428V151H927.812V131.632ZM930.62 128.932C929.588 128.932 928.748 128.632 928.1 128.032C927.452 127.432 927.128 126.688 927.128 125.8C927.128 124.912 927.452 124.168 928.1 123.568C928.748 122.968 929.588 122.668 930.62 122.668C931.652 122.668 932.492 122.956 933.14 123.532C933.788 124.108 934.112 124.828 934.112 125.692C934.112 126.628 933.788 127.408 933.14 128.032C932.492 128.632 931.652 128.932 930.62 128.932Z" fill="#3A3A3A"/>
<path d="M123 159.963V189H15.5368V159.963H51.7895V64.6852C51.7895 62.2654 51.8326 59.8457 51.919 57.4259C52.0053 54.9198 52.1347 52.4136 52.3074 49.9074L30.8147 67.7963C28.9158 69.2654 27.0168 70.1728 25.1179 70.5185C23.3053 70.7778 21.5789 70.7778 19.9389 70.5185C18.2989 70.1728 16.8316 69.6111 15.5368 68.8333C14.2421 67.9691 13.2926 67.1049 12.6884 66.2407L0 49.3889L58.7811 0H91.9263V159.963H123Z" fill="#0C4B8B"/>
<rect x="1061" y="14" width="6" height="162" fill="#0C4B8B"/>
<rect x="176" y="14" width="6" height="18" fill="#0C4B8B"/>
<rect x="176" y="158" width="6" height="18" fill="#0C4B8B"/>
<rect x="1067" y="14" width="6.00004" height="891" transform="rotate(90 1067 14)" fill="#0C4B8B"/>
<rect x="1067" y="170" width="6.00004" height="891" transform="rotate(90 1067 170)" fill="#0C4B8B"/>
</svg>
