<svg id="Слой_1" data-name="Слой 1" xmlns="http://www.w3.org/2000/svg" viewBox="0 0 10.56 145.86"><defs><style>.cls-1{fill:#999;}.cls-2{fill:#76003e;opacity:0.8;}</style></defs><title>акції</title><path class="cls-1" d="M6.47,4.16l-4-3V0H8.76V1.6H4.87L8.76,4.54V5.76H2.47V4.16Zm-4,6.62V9.05l3,2.45L8.76,8.86v1.82L6.34,12.62V13H8.76v1.59H2.47V13H5v-.36Zm0,15L5,24.21v-.62H2.47V22H5v-.62L2.47,19.78V18l3,2,3.25-2.22v1.89L6.29,21.23V22H8.76v1.63H6.29v.73l2.47,1.58v1.88L5.51,25.56l-3,2Zm4,9.32-4-3V30.93H8.76v1.6H4.87l3.89,2.94v1.22H2.47v-1.6ZM4.85,44.68v-2.5H2.47V40.59H8.76v1.59H6.22v2.5H8.76v1.59H2.47V44.68ZM3.16,54.31a2.8,2.8,0,0,1-.6-1,3.41,3.41,0,0,1-.2-1.13,2.9,2.9,0,0,1,.11-.79,2.05,2.05,0,0,1,.3-.65,1.38,1.38,0,0,1,.52-.44A1.31,1.31,0,0,1,4,50.11a1.49,1.49,0,0,1,.89.27,1.15,1.15,0,0,1,.47.76,1.7,1.7,0,0,1,.56-1A1.63,1.63,0,0,1,7,49.76a1.62,1.62,0,0,1,.79.19,1.82,1.82,0,0,1,.6.51,2.39,2.39,0,0,1,.4.78,3.3,3.3,0,0,1,.13,1,3.54,3.54,0,0,1-.24,1.33,2.44,2.44,0,0,1-.67,1l-1-.77a1.5,1.5,0,0,0,.45-.58,2,2,0,0,0,.15-.78,1.25,1.25,0,0,0-.21-.78.65.65,0,0,0-.59-.29.79.79,0,0,0-.66.32,1.82,1.82,0,0,0-.24,1.07v.49H4.92v-.48a1.43,1.43,0,0,0-.22-.87.68.68,0,0,0-.57-.32.54.54,0,0,0-.46.23,1,1,0,0,0-.15.58,1.63,1.63,0,0,0,.14.66,1.92,1.92,0,0,0,.4.63ZM7.7,71.69a2,2,0,0,0-.14-.77,1.36,1.36,0,0,0-.38-.57.58.58,0,0,0-.46-.27H6a3.61,3.61,0,0,0-.17.63,2.91,2.91,0,0,0-.07.64,1.69,1.69,0,0,0,.29,1,.82.82,0,0,0,.71.4.86.86,0,0,0,.68-.31A1.14,1.14,0,0,0,7.7,71.69Zm1.18.46a2.66,2.66,0,0,1-.14.85,2.44,2.44,0,0,1-.42.68,2.22,2.22,0,0,1-.64.46,2,2,0,0,1-.79.15,1.74,1.74,0,0,1-.82-.19,2,2,0,0,1-.65-.55A2.67,2.67,0,0,1,5,72.7a3.4,3.4,0,0,1-.16-1.08,4.47,4.47,0,0,1,.07-.82,3.4,3.4,0,0,1,.21-.72H4.78a1.24,1.24,0,0,0-1,.36,1.43,1.43,0,0,0-.34,1,2.78,2.78,0,0,0,.18,1,4.51,4.51,0,0,0,.53,1l-1,.5a4.63,4.63,0,0,1-.81-2.62A3,3,0,0,1,3,69.23,2.43,2.43,0,0,1,5,68.47h2a.56.56,0,0,0,.36-.08.42.42,0,0,0,.12-.3H8.76a3.27,3.27,0,0,1,.08.71,1.09,1.09,0,0,1-.2.71.91.91,0,0,1-.54.3l-.35,0a2.74,2.74,0,0,1,.84,1A3,3,0,0,1,8.88,72.15ZM8.76,79v1.6H3.86v2H2.47V77.08H3.86v2Zm0,19.08H2.47V96.51H8.76ZM1.51,96.84H.08V95.51H1.51Zm0,2.3H.08V97.81H1.51Zm.09,4.49H0V102H1.6Zm7.16,0H2.47V102H8.76Zm-6.29,9.7v-1.6h4.9v-2.09H2.47v-1.59h4.9v-1h3.19v1.41H8.76v4.9Zm0,5v-1.73l3,2.45,3.24-2.64v1.82l-2.42,1.94v.42H8.76v1.59H2.47v-1.59H5v-.36Zm5.23,11a1.94,1.94,0,0,0-.14-.76,1.47,1.47,0,0,0-.38-.58.57.57,0,0,0-.46-.26H6a3.74,3.74,0,0,0-.17.62,2.94,2.94,0,0,0-.07.65,1.73,1.73,0,0,0,.29,1,.83.83,0,0,0,.71.39.86.86,0,0,0,.68-.31A1.12,1.12,0,0,0,7.7,129.36Zm1.18.46a2.61,2.61,0,0,1-.14.85,2.5,2.5,0,0,1-.42.69,2.18,2.18,0,0,1-.64.45,1.94,1.94,0,0,1-1.61,0,2,2,0,0,1-.65-.56,2.67,2.67,0,0,1-.4-.85,3.4,3.4,0,0,1-.16-1.08,4.28,4.28,0,0,1,.07-.81,3.08,3.08,0,0,1,.21-.72H4.78a1.24,1.24,0,0,0-1,.36,1.42,1.42,0,0,0-.34,1,2.74,2.74,0,0,0,.18,1,4.81,4.81,0,0,0,.53,1l-1,.49A4.63,4.63,0,0,1,2.36,129,3,3,0,0,1,3,126.9,2.42,2.42,0,0,1,5,126.15h2a.56.56,0,0,0,.36-.09.42.42,0,0,0,.12-.3H8.76a3.34,3.34,0,0,1,.08.71,1.07,1.07,0,0,1-.2.71.91.91,0,0,1-.54.3l-.35,0a2.74,2.74,0,0,1,.84,1A2.93,2.93,0,0,1,8.88,129.82Z"/><rect class="cls-2" x="2.95" y="140.52" width="5.43" height="5.34"/></svg>