<svg id="Слой_1" data-name="Слой 1" xmlns="http://www.w3.org/2000/svg" viewBox="0 0 6.52 636"><defs><style>.cls-1{fill:#e8e8e8;}</style></defs><title>контакти</title><path class="cls-1" d="M2.9,324V636h1V324ZM2.9,0V219.5h1V0Z"/><path class="cls-1" d="M4.1,234l-4-3v-1.19H6.4v1.6H2.51L6.4,234.4v1.22H.11V234Zm2.3,6.91v1.6H1.5v2H.11V239H1.5v1.95ZM.11,249v-1.73l3.05,2.45,3.24-2.64v1.82L4,250.82v.42H6.4v1.58H.11v-1.58H2.6v-.36Zm5.23,11a2.19,2.19,0,0,0-.14-.77,1.48,1.48,0,0,0-.39-.58.58.58,0,0,0-.45-.26H3.64a3,3,0,0,0-.17.62,3,3,0,0,0-.07.65,1.69,1.69,0,0,0,.28,1,.83.83,0,0,0,.71.4.93.93,0,0,0,.69-.31A1.19,1.19,0,0,0,5.34,260Zm1.18.45a2.43,2.43,0,0,1-.15.86A2,2,0,0,1,6,262a2.22,2.22,0,0,1-.63.46,2.07,2.07,0,0,1-.8.15,1.73,1.73,0,0,1-.81-.19,2,2,0,0,1-.65-.55,2.8,2.8,0,0,1-.41-.85,3.71,3.71,0,0,1-.15-1.08,4.39,4.39,0,0,1,.07-.82,3.41,3.41,0,0,1,.2-.72H2.41a1.27,1.27,0,0,0-1,.36,1.46,1.46,0,0,0-.33,1,2.8,2.8,0,0,0,.18,1,4.45,4.45,0,0,0,.52,1l-1,.49a4.66,4.66,0,0,1-.8-2.61,3,3,0,0,1,.67-2.1,2.39,2.39,0,0,1,1.92-.76h2a.64.64,0,0,0,.36-.08.46.46,0,0,0,.12-.3H6.4a4,4,0,0,1,.08.71,1.1,1.1,0,0,1-.2.7.91.91,0,0,1-.54.3l-.35,0a2.74,2.74,0,0,1,.84,1A3,3,0,0,1,6.52,260.44Zm-.12,6.9v1.59H1.5v2H.11v-5.52H1.5v2Zm-3.92,11v-2.5H.11v-1.6H6.4v1.6H3.85v2.5H6.4v1.59H.11v-1.59Zm.78,10a2.35,2.35,0,0,0,.77-.12,1.9,1.9,0,0,0,.59-.34,1.85,1.85,0,0,0,.4-.53,1.69,1.69,0,0,0,0-1.3,1.54,1.54,0,0,0-.4-.51,1.64,1.64,0,0,0-.6-.35,2.11,2.11,0,0,0-.77-.13,2,2,0,0,0-.75.13,1.49,1.49,0,0,0-.6.35,1.39,1.39,0,0,0-.39.51,1.58,1.58,0,0,0,0,1.3,1.85,1.85,0,0,0,.4.53,2,2,0,0,0,.6.34A2.27,2.27,0,0,0,3.26,288.37Zm3.26-1.64a3.4,3.4,0,0,1-.27,1.38,3,3,0,0,1-.71,1,3.2,3.2,0,0,1-1,.65,3.46,3.46,0,0,1-2.48,0,3.08,3.08,0,0,1-1.76-1.69A3.57,3.57,0,0,1,0,286.73a3.49,3.49,0,0,1,.26-1.37,3.08,3.08,0,0,1,.72-1,3,3,0,0,1,1-.66,3.46,3.46,0,0,1,2.48,0,3.2,3.2,0,0,1,1,.65,2.92,2.92,0,0,1,.71,1A3.4,3.4,0,0,1,6.52,286.73ZM.11,294.39v-1.73l3.05,2.45,3.24-2.64v1.83L4,296.24v.42H6.4v1.58H.11v-1.58H2.6v-.36Z"/></svg>