<svg id="Слой_1" data-name="Слой 1" xmlns="http://www.w3.org/2000/svg" viewBox="0 0 10.69 497.52"><defs><style>.cls-1{fill:#e8e8e8;}.cls-2{fill:#76003e;opacity:0.8;}</style></defs><title>особиста відповідальнгість</title><rect class="cls-1" x="5.39" y="240.02" width="1" height="257.5"/><path class="cls-1" d="M7.63,2.52a1,1,0,0,0-.21-.66.89.89,0,0,0-.66-.24.83.83,0,0,0-.66.25.89.89,0,0,0-.24.64V3.62H7.63Zm-5,2.7V3.62h2V2.4a2.85,2.85,0,0,1,.14-.94A2,2,0,0,1,5.15.7,1.71,1.71,0,0,1,5.82.19,2,2,0,0,1,6.73,0a2.32,2.32,0,0,1,.94.18,1.94,1.94,0,0,1,.67.49,2.28,2.28,0,0,1,.42.75,3,3,0,0,1,.13.92V5.22Zm6.29,5.32v1.59H4v2H2.6V8.58H4v2ZM5.75,23.14a3.46,3.46,0,0,1-1.25-.22,3.09,3.09,0,0,1-1.74-1.71,3.4,3.4,0,0,1-.26-1.38,3.23,3.23,0,0,1,.44-1.75A2.82,2.82,0,0,1,4.1,17l.48,1.57a1.42,1.42,0,0,0-.52.54,1.44,1.44,0,0,0-.2.74,1.41,1.41,0,0,0,.15.65,1.52,1.52,0,0,0,.38.53,2,2,0,0,0,.59.35,2.35,2.35,0,0,0,.77.12,2.15,2.15,0,0,0,.77-.14,2,2,0,0,0,.6-.34,1.82,1.82,0,0,0,.39-.53,1.53,1.53,0,0,0,.13-.64,1.56,1.56,0,0,0-.21-.79,1.17,1.17,0,0,0-.53-.51L7.38,17A2.75,2.75,0,0,1,8.56,18,3.4,3.4,0,0,1,9,19.82a3.57,3.57,0,0,1-.26,1.38,3.1,3.1,0,0,1-.71,1,3.29,3.29,0,0,1-1,.68A3.54,3.54,0,0,1,5.75,23.14Zm-4,5.09H.13V26.62h1.6Zm7.16,0H2.6V26.62H8.89ZM5,36.22v-2.5H2.6v-1.6H8.89v1.6H6.35v2.5H8.89v1.59H2.6V36.22Zm2.65,7.5a1,1,0,0,0-.21-.66.89.89,0,0,0-.66-.24.87.87,0,0,0-.66.25.91.91,0,0,0-.24.64v1.12H7.63Zm-5,2.7V44.83h2V43.6a2.83,2.83,0,0,1,.14-.93,2,2,0,0,1,.41-.77,1.69,1.69,0,0,1,.67-.5,2,2,0,0,1,.91-.2,2.32,2.32,0,0,1,.94.18,2,2,0,0,1,.67.5,2.14,2.14,0,0,1,.42.74,3,3,0,0,1,.13.92v2.88Zm4.92,9.94a1.24,1.24,0,0,0-.14-.56.87.87,0,0,0-.44-.37,3.54,3.54,0,0,0-.89-.26q-.58-.11-1.5-.21L2.6,54.74v-4.4H8.89v1.59H4v1.41l1,.12a13.56,13.56,0,0,1,2,.35,3.82,3.82,0,0,1,1.23.52,1.8,1.8,0,0,1,.65.78,3.78,3.78,0,0,1,.2,1.16Zm.32,6.51a2,2,0,0,0-.15-.77,1.37,1.37,0,0,0-.38-.58.6.6,0,0,0-.46-.26H6.13a3.74,3.74,0,0,0-.17.62,3.79,3.79,0,0,0-.07.65,1.69,1.69,0,0,0,.29,1,.82.82,0,0,0,.71.4.89.89,0,0,0,.68-.31A1.15,1.15,0,0,0,7.84,62.87ZM9,63.32a2.67,2.67,0,0,1-.14.86,2.44,2.44,0,0,1-.42.68,2.42,2.42,0,0,1-.64.46,2,2,0,0,1-.79.15,1.74,1.74,0,0,1-.82-.19,2,2,0,0,1-.64-.55,2.58,2.58,0,0,1-.41-.85A3.4,3.4,0,0,1,5,62.8,5.44,5.44,0,0,1,5.06,62a3.4,3.4,0,0,1,.21-.72H4.91a1.24,1.24,0,0,0-1,.36,1.42,1.42,0,0,0-.34,1,2.8,2.8,0,0,0,.18,1,4.51,4.51,0,0,0,.53,1l-1,.49a4.58,4.58,0,0,1-.8-2.61,3,3,0,0,1,.67-2.1,2.39,2.39,0,0,1,1.92-.76H7a.64.64,0,0,0,.36-.08.38.38,0,0,0,.12-.3H8.89A3.35,3.35,0,0,1,9,60a1,1,0,0,1-.21.7.86.86,0,0,1-.54.3l-.35,0a2.74,2.74,0,0,1,.84,1A2.82,2.82,0,0,1,9,63.32ZM7.5,71H4v1.4l1,.12a10.39,10.39,0,0,1,1.58.3,3.73,3.73,0,0,1,1,.43Zm0,4.57V75.2a.86.86,0,0,0-.18-.47,1.22,1.22,0,0,0-.48-.32A3.66,3.66,0,0,0,6,74.18c-.37-.06-.83-.13-1.4-.19L2.6,73.77v-4.4H7.5v-.84h3.19V70H8.89v4.2h1.8v1.38ZM1.73,80.47H.13V78.86h1.6Zm7.16,0H2.6V78.86H8.89ZM7.73,86.36a.72.72,0,0,0-.23-.56A.79.79,0,0,0,7,85.59a.77.77,0,0,0-.55.2.68.68,0,0,0-.23.55v1.6H7.73Zm-2.5.21A.76.76,0,0,0,5,86a.74.74,0,0,0-.55-.2A.76.76,0,0,0,4,86a.61.61,0,0,0-.21.51v1.42H5.23ZM2.6,85.82a1.47,1.47,0,0,1,.14-.64,1.41,1.41,0,0,1,.33-.49,1.45,1.45,0,0,1,.51-.33,1.54,1.54,0,0,1,.61-.12,1.87,1.87,0,0,1,.83.22,1.35,1.35,0,0,1,.61.71,1.63,1.63,0,0,1,.54-.87,1.54,1.54,0,0,1,1-.32,1.46,1.46,0,0,1,1.28.6,2.85,2.85,0,0,1,.42,1.66v3.3H2.6ZM5.76,98a2.35,2.35,0,0,0,.77-.12,2,2,0,0,0,.59-.35A1.69,1.69,0,0,0,7.51,97a1.67,1.67,0,0,0,0-1.29,1.65,1.65,0,0,0-.39-.52,1.79,1.79,0,0,0-.6-.35,2.39,2.39,0,0,0-.77-.13,2.33,2.33,0,0,0-.76.13,1.79,1.79,0,0,0-.6.35A1.49,1.49,0,0,0,4,95.7,1.46,1.46,0,0,0,4,97a1.69,1.69,0,0,0,.39.53,2,2,0,0,0,.6.35A2.37,2.37,0,0,0,5.76,98ZM9,96.35a3.57,3.57,0,0,1-.26,1.38,3.31,3.31,0,0,1-.71,1,3.2,3.2,0,0,1-1,.65,3.48,3.48,0,0,1-2.49,0,3.16,3.16,0,0,1-1-.65,3.34,3.34,0,0,1-.72-1,3.4,3.4,0,0,1-.26-1.38A3.28,3.28,0,0,1,2.76,95a3.08,3.08,0,0,1,.72-1,3,3,0,0,1,1-.66,3.27,3.27,0,0,1,1.25-.23A3.29,3.29,0,0,1,7,93.29a3.18,3.18,0,0,1,1,.64,3.1,3.1,0,0,1,.71,1A3.5,3.5,0,0,1,9,96.35Zm-.12,6.78v1.59H4V107H8.89v1.59H2.6v-5.5ZM7.5,114.58H4V116l1,.12a10.39,10.39,0,0,1,1.58.3,3.44,3.44,0,0,1,1,.43Zm0,4.58v-.34a.86.86,0,0,0-.18-.47,1.12,1.12,0,0,0-.48-.32A3.66,3.66,0,0,0,6,117.8c-.37-.06-.83-.13-1.4-.19l-1.95-.22V113H7.5v-.84h3.19v1.43H8.89v4.2h1.8v1.38Zm-5.77,4.93H.13v-1.61h1.6Zm7.16,0H2.6v-1.61H8.89ZM7.73,130a.72.72,0,0,0-.23-.55.79.79,0,0,0-.55-.21.73.73,0,0,0-.55.2.68.68,0,0,0-.23.55v1.6H7.73Zm-2.5.22a.76.76,0,0,0-.19-.54.7.7,0,0,0-.55-.2.76.76,0,0,0-.51.18.61.61,0,0,0-.21.51v1.42H5.23Zm-2.63-.76a1.46,1.46,0,0,1,.14-.63,1.41,1.41,0,0,1,.33-.49,1.32,1.32,0,0,1,.51-.33,1.54,1.54,0,0,1,.61-.12,1.75,1.75,0,0,1,.83.22,1.35,1.35,0,0,1,.61.71,1.63,1.63,0,0,1,.54-.87,1.54,1.54,0,0,1,1-.32,1.46,1.46,0,0,1,1.28.6,2.84,2.84,0,0,1,.42,1.65v3.3H2.6ZM7.84,150.9a2,2,0,0,0-.15-.77,1.37,1.37,0,0,0-.38-.58.6.6,0,0,0-.46-.26H6.13a3.74,3.74,0,0,0-.17.62,3.79,3.79,0,0,0-.07.65,1.69,1.69,0,0,0,.29,1,.84.84,0,0,0,.71.4.87.87,0,0,0,.68-.32A1.1,1.1,0,0,0,7.84,150.9Zm1.17.45a2.57,2.57,0,0,1-.14.85,2.36,2.36,0,0,1-.42.69,2.18,2.18,0,0,1-.64.45,1.86,1.86,0,0,1-.79.16,1.74,1.74,0,0,1-.82-.19,2,2,0,0,1-.64-.55,2.54,2.54,0,0,1-.41-.86A3.31,3.31,0,0,1,5,150.82a5.31,5.31,0,0,1,.07-.81,3.4,3.4,0,0,1,.21-.72H4.91a1.24,1.24,0,0,0-1,.36,1.42,1.42,0,0,0-.34,1,2.8,2.8,0,0,0,.18,1,4.75,4.75,0,0,0,.53,1l-1,.49a4.61,4.61,0,0,1-.8-2.61,3,3,0,0,1,.67-2.1,2.39,2.39,0,0,1,1.92-.76H7a.64.64,0,0,0,.36-.08.38.38,0,0,0,.12-.3H8.89A3.27,3.27,0,0,1,9,148a1.07,1.07,0,0,1-.21.71.86.86,0,0,1-.54.3l-.35,0a2.74,2.74,0,0,1,.84,1A2.82,2.82,0,0,1,9,151.35Zm-.12,6.9v1.59H4v2H2.6v-5.52H4v2Zm-3.14,12.6a3.47,3.47,0,0,1-1.25-.23,2.94,2.94,0,0,1-1-.66,3.2,3.2,0,0,1-.71-1,3.4,3.4,0,0,1-.26-1.38,3.23,3.23,0,0,1,.44-1.75,2.85,2.85,0,0,1,1.16-1.1l.48,1.58a1.29,1.29,0,0,0-.52.54,1.48,1.48,0,0,0,0,1.39,1.62,1.62,0,0,0,.38.53,1.79,1.79,0,0,0,.59.34,2.35,2.35,0,0,0,.77.12,2.15,2.15,0,0,0,.77-.13,2,2,0,0,0,.6-.35,1.65,1.65,0,0,0,.39-.52,1.56,1.56,0,0,0,.13-.64,1.53,1.53,0,0,0-.21-.79,1.26,1.26,0,0,0-.53-.52l.48-1.57a2.69,2.69,0,0,1,1.18,1.07A3.37,3.37,0,0,1,9,167.53a3.57,3.57,0,0,1-.26,1.38A3.31,3.31,0,0,1,8,170a3.26,3.26,0,0,1-1,.67A3.55,3.55,0,0,1,5.75,170.85Zm.85,7.66-4-3v-1.19H8.89v1.59H5l3.89,2.94v1.23H2.6v-1.6Zm-.71,9.88a2,2,0,0,0,.72-.12,2,2,0,0,0,.57-.32,1.6,1.6,0,0,0,.36-.49,1.7,1.7,0,0,0,.13-.64,1.41,1.41,0,0,0-.47-1.1,1.84,1.84,0,0,0-1.26-.42,1.57,1.57,0,0,0-1.16.43,1.63,1.63,0,0,0,0,2.24A1.57,1.57,0,0,0,5.89,188.39Zm-4-1.67a2.18,2.18,0,0,0,.64,1.2,2.67,2.67,0,0,0,1.38.59,2.53,2.53,0,0,1-.69-.9A2.7,2.7,0,0,1,3,186.42a2.64,2.64,0,0,1,.22-1.08,2.85,2.85,0,0,1,.63-.87,2.66,2.66,0,0,1,.93-.6,3,3,0,0,1,1.17-.23,3.26,3.26,0,0,1,1.21.23,2.57,2.57,0,0,1,1,.64,2.8,2.8,0,0,1,.65,1A3.62,3.62,0,0,1,9,186.87a2.87,2.87,0,0,1-1,2.36,4.42,4.42,0,0,1-2.87.81,7.33,7.33,0,0,1-1.86-.21A3.73,3.73,0,0,1,2,189.22a3.36,3.36,0,0,1-.92-1,5.44,5.44,0,0,1-.52-1.44L0,184.42l1.36-.11Zm3.86,11.53a2.35,2.35,0,0,0,.77-.12,2,2,0,0,0,.59-.35,1.69,1.69,0,0,0,.39-.53,1.67,1.67,0,0,0,0-1.29,1.65,1.65,0,0,0-.39-.52,1.79,1.79,0,0,0-.6-.35,2.39,2.39,0,0,0-.77-.13,2.33,2.33,0,0,0-.76.13,1.79,1.79,0,0,0-.6.35A1.49,1.49,0,0,0,4,196a1.46,1.46,0,0,0,0,1.29,1.69,1.69,0,0,0,.39.53,2,2,0,0,0,.6.35A2.37,2.37,0,0,0,5.76,198.25ZM9,196.61A3.57,3.57,0,0,1,8.75,198,3.31,3.31,0,0,1,8,199a3.2,3.2,0,0,1-1,.65,3.48,3.48,0,0,1-2.49,0,3.16,3.16,0,0,1-1-.65,3.34,3.34,0,0,1-.72-1,3.4,3.4,0,0,1-.26-1.38,3.28,3.28,0,0,1,.26-1.37,3.08,3.08,0,0,1,.72-1,3,3,0,0,1,1-.66,3.27,3.27,0,0,1,1.25-.23,3.29,3.29,0,0,1,1.24.23,3.18,3.18,0,0,1,1,.64,3.1,3.1,0,0,1,.71,1A3.5,3.5,0,0,1,9,196.61ZM5.75,209a3.47,3.47,0,0,1-1.25-.23,2.94,2.94,0,0,1-1-.66,3.2,3.2,0,0,1-.71-1,3.4,3.4,0,0,1-.26-1.38A3.23,3.23,0,0,1,2.94,204a2.85,2.85,0,0,1,1.16-1.1l.48,1.58a1.29,1.29,0,0,0-.52.54,1.48,1.48,0,0,0,0,1.39,1.62,1.62,0,0,0,.38.53,1.79,1.79,0,0,0,.59.34,2.35,2.35,0,0,0,.77.12,2.15,2.15,0,0,0,.77-.13,2,2,0,0,0,.6-.35,1.65,1.65,0,0,0,.39-.52,1.56,1.56,0,0,0,.13-.64,1.53,1.53,0,0,0-.21-.79,1.26,1.26,0,0,0-.53-.52l.48-1.57a2.69,2.69,0,0,1,1.18,1.07A3.37,3.37,0,0,1,9,205.69a3.57,3.57,0,0,1-.26,1.38,3.31,3.31,0,0,1-.71,1,3.26,3.26,0,0,1-1,.67A3.55,3.55,0,0,1,5.75,209Zm0,8a2.35,2.35,0,0,0,.77-.12,2,2,0,0,0,.59-.35,1.69,1.69,0,0,0,.39-.53,1.67,1.67,0,0,0,0-1.29,1.65,1.65,0,0,0-.39-.52,1.79,1.79,0,0,0-.6-.35,2.39,2.39,0,0,0-.77-.13,2.33,2.33,0,0,0-.76.13,1.79,1.79,0,0,0-.6.35,1.49,1.49,0,0,0-.38.52A1.46,1.46,0,0,0,4,216a1.69,1.69,0,0,0,.39.53,2,2,0,0,0,.6.35A2.37,2.37,0,0,0,5.76,217ZM9,215.39a3.57,3.57,0,0,1-.26,1.38,3.31,3.31,0,0,1-.71,1,3.2,3.2,0,0,1-1,.65,3.48,3.48,0,0,1-2.49,0,3.16,3.16,0,0,1-1-.65,3.34,3.34,0,0,1-.72-1,3.4,3.4,0,0,1-.26-1.38A3.28,3.28,0,0,1,2.76,214a3.08,3.08,0,0,1,.72-1,3,3,0,0,1,1-.66,3.27,3.27,0,0,1,1.25-.23,3.29,3.29,0,0,1,1.24.23A3.18,3.18,0,0,1,8,213a3.1,3.1,0,0,1,.71,1A3.5,3.5,0,0,1,9,215.39Z"/><rect class="cls-2" x="3.08" y="226.6" width="5.43" height="5.34"/></svg>