<svg id="Слой_1" data-name="Слой 1" xmlns="http://www.w3.org/2000/svg" viewBox="0 0 11.32 431.06"><defs><style>.cls-1{fill:#e8e8e8;}.cls-2{fill:#76003e;opacity:0.8;}</style></defs><title>портфоліо</title><rect class="cls-1" x="5.26" y="105.06" width="1" height="326"/><path class="cls-1" d="M5.63,4.93a2.39,2.39,0,0,0,.77-.12A1.87,1.87,0,0,0,7,4.46a1.68,1.68,0,0,0,.4-.52,1.57,1.57,0,0,0,.13-.65,1.57,1.57,0,0,0-.13-.65A1.68,1.68,0,0,0,7,2.12a1.6,1.6,0,0,0-.6-.34,2.13,2.13,0,0,0-1.52,0,1.77,1.77,0,0,0-.6.34,1.37,1.37,0,0,0-.38.52,1.48,1.48,0,0,0,0,1.3,1.52,1.52,0,0,0,.39.52,2,2,0,0,0,.6.35A2.33,2.33,0,0,0,5.63,4.93ZM8.88,3.29a3.57,3.57,0,0,1-.26,1.38,3.36,3.36,0,0,1-.71,1,3.25,3.25,0,0,1-1,.65,3.4,3.4,0,0,1-1.23.23,3.47,3.47,0,0,1-1.25-.23,3.06,3.06,0,0,1-1-.65,2.94,2.94,0,0,1-.72-1,3.4,3.4,0,0,1-.27-1.38,3.32,3.32,0,0,1,.27-1.37,2.82,2.82,0,0,1,.72-1,2.94,2.94,0,0,1,1-.66A3.47,3.47,0,0,1,5.63,0,3.4,3.4,0,0,1,6.86.23a3.25,3.25,0,0,1,1,.65,3.2,3.2,0,0,1,.71,1A3.57,3.57,0,0,1,8.88,3.29ZM1.6,11.67H0v-1.6H1.6Zm7.16,0H2.47v-1.6H8.76ZM7.39,21.61a1.24,1.24,0,0,0-.14-.56.86.86,0,0,0-.45-.37,3.32,3.32,0,0,0-.88-.26q-.58-.11-1.5-.21L2.47,20v-4.4H8.76v1.59H3.82v1.41l.94.12a13.47,13.47,0,0,1,2,.35A3.92,3.92,0,0,1,8,19.58a1.71,1.71,0,0,1,.64.78,3.76,3.76,0,0,1,.21,1.16ZM5.63,29.24a2.39,2.39,0,0,0,.77-.12A1.87,1.87,0,0,0,7,28.77a1.68,1.68,0,0,0,.4-.52,1.69,1.69,0,0,0,0-1.3,1.68,1.68,0,0,0-.4-.52,1.6,1.6,0,0,0-.6-.34,2.13,2.13,0,0,0-1.52,0,1.77,1.77,0,0,0-.6.34,1.37,1.37,0,0,0-.38.52,1.48,1.48,0,0,0,0,1.3,1.52,1.52,0,0,0,.39.52,2,2,0,0,0,.6.35A2.33,2.33,0,0,0,5.63,29.24ZM8.88,27.6A3.57,3.57,0,0,1,8.62,29a3.36,3.36,0,0,1-.71,1,3.25,3.25,0,0,1-1,.65,3.4,3.4,0,0,1-1.23.23,3.47,3.47,0,0,1-1.25-.23,3.06,3.06,0,0,1-1-.65,2.94,2.94,0,0,1-.72-1,3.4,3.4,0,0,1-.27-1.38,3.32,3.32,0,0,1,.27-1.37,2.82,2.82,0,0,1,.72-1,2.94,2.94,0,0,1,1-.66,3.47,3.47,0,0,1,1.25-.23,3.4,3.4,0,0,1,1.23.23,3.25,3.25,0,0,1,1,.65,3.2,3.2,0,0,1,.71,1A3.57,3.57,0,0,1,8.88,27.6ZM7.51,37.1a1.8,1.8,0,0,0-.62-1.18,2,2,0,0,0-1.27-.37,1.94,1.94,0,0,0-1.25.38,1.85,1.85,0,0,0-.63,1.17ZM3.74,38.71a1.91,1.91,0,0,0,.62,1.22,1.9,1.9,0,0,0,1.26.4,2,2,0,0,0,1.28-.39,1.8,1.8,0,0,0,.62-1.23ZM2.42,37.1a4.24,4.24,0,0,1,.38-1.33,2.84,2.84,0,0,1,1.65-1.59A3.5,3.5,0,0,1,5.64,34a3,3,0,0,1,2.16.81,3.71,3.71,0,0,1,1,2.31h2.5v1.61H8.83a3.77,3.77,0,0,1-1,2.37,3,3,0,0,1-2.18.82,3.36,3.36,0,0,1-1.2-.21,2.66,2.66,0,0,1-1-.61,3.25,3.25,0,0,1-.69-1,5,5,0,0,1-.37-1.38H0V37.1Zm6.34,9.39v1.6H3.86v2H2.47V44.54H3.86v2ZM7.51,56a1.45,1.45,0,0,0-.15-.66,1.7,1.7,0,0,0-.42-.53,2.06,2.06,0,0,0-.62-.34,2.18,2.18,0,0,0-.72-.12,2,2,0,0,0-.73.14,1.68,1.68,0,0,0-.6.37,1.45,1.45,0,0,0-.39.55,1.57,1.57,0,0,0-.15.68,1.31,1.31,0,0,0,.09.47A1.54,1.54,0,0,0,4,57a2.37,2.37,0,0,0,.34.37,1.76,1.76,0,0,0,.42.24H6.26a2.29,2.29,0,0,0,.9-.66A1.5,1.5,0,0,0,7.51,56Zm1.37-.54a2.54,2.54,0,0,1-.32,1.29,2.5,2.5,0,0,1-.9.87h3.66v1.61H2.47V57.81H3.55a2.47,2.47,0,0,1-.86-.9,2.43,2.43,0,0,1-.33-1.27,2.62,2.62,0,0,1,.27-1.18,2.86,2.86,0,0,1,.69-.92,3.07,3.07,0,0,1,1-.61A3.41,3.41,0,0,1,5.6,52.7a4.15,4.15,0,0,1,1.29.2,3.18,3.18,0,0,1,1,.58,2.63,2.63,0,0,1,.7.86A2.44,2.44,0,0,1,8.88,55.45ZM5.63,67.66a2.39,2.39,0,0,0,.77-.12A2.08,2.08,0,0,0,7,67.19a1.73,1.73,0,0,0,.4-.53,1.67,1.67,0,0,0,0-1.29,1.58,1.58,0,0,0-.4-.52,1.61,1.61,0,0,0-.6-.35,2.06,2.06,0,0,0-.76-.13,2.06,2.06,0,0,0-.76.13,1.79,1.79,0,0,0-.6.35,1.3,1.3,0,0,0-.38.52,1.46,1.46,0,0,0,0,1.29,1.55,1.55,0,0,0,.39.53,2.2,2.2,0,0,0,.6.35A2.33,2.33,0,0,0,5.63,67.66ZM8.88,66a3.5,3.5,0,0,1-.26,1.38,3.41,3.41,0,0,1-.71,1,3.43,3.43,0,0,1-1,.65,3.39,3.39,0,0,1-1.23.22,3.46,3.46,0,0,1-1.25-.22,3.22,3.22,0,0,1-1-.65,3,3,0,0,1-.72-1A3.33,3.33,0,0,1,2.36,66a3.27,3.27,0,0,1,.27-1.36,2.86,2.86,0,0,1,.72-1,3.25,3.25,0,0,1,1-.66,3.46,3.46,0,0,1,1.25-.22A3.39,3.39,0,0,1,6.86,63a3.43,3.43,0,0,1,1,.65,3.32,3.32,0,0,1,.71,1A3.57,3.57,0,0,1,8.88,66Zm-.12,6.78v1.6H3.86v2.32h4.9V78.3H2.47V72.79Z"/><rect class="cls-2" x="2.95" y="86.92" width="5.43" height="5.34"/></svg>