<svg id="Слой_1" data-name="Слой 1" xmlns="http://www.w3.org/2000/svg" viewBox="0 0 9.13 885.54"><defs><style>.cls-1{fill:#e8e8e8;}.cls-2{fill:#76003e;opacity:0.8;}</style></defs><title>приклади розрахунку</title><rect class="cls-1" x="2.4" y="183.37" width="1" height="702.18"/><path class="cls-1" d="M7.52,5.54a1.39,1.39,0,0,0,.17-.38,1.63,1.63,0,0,0,0-.36.64.64,0,0,0-.3-.52,3,3,0,0,0-1-.38L.11,6.38V4.73L5,3,.11,1.51V0l7.1,2.47a3.38,3.38,0,0,1,1.48.89,1.9,1.9,0,0,1,.44,1.27,1.8,1.8,0,0,1-.05.49,1.12,1.12,0,0,1-.18.42ZM.11,10.72V9l3.05,2.45L6.4,8.8v1.82L4,12.56V13H6.4v1.59H.11V13H2.6v-.35ZM2.48,22.56v-2.5H.11v-1.6H6.4v1.6H3.85v2.5H6.4v1.59H.11V22.56ZM7.52,33a1.39,1.39,0,0,0,.17-.38,1.63,1.63,0,0,0,0-.36.64.64,0,0,0-.3-.52,3,3,0,0,0-1-.38L.11,33.83V32.18L5,30.47.11,29V27.45l7.1,2.47a3.38,3.38,0,0,1,1.48.89,1.9,1.9,0,0,1,.44,1.27,1.8,1.8,0,0,1-.05.49A1.12,1.12,0,0,1,8.9,33ZM.11,41l2-1.35.21-.1-.21-.12L.11,38V36.38l3.15,2.25L6.4,36.34V38l-2,1.39-.2.11.2.1L6.4,41v1.65L3.26,40.36.11,42.6Zm5.23,8.14a2.19,2.19,0,0,0-.14-.77,1.37,1.37,0,0,0-.39-.57.57.57,0,0,0-.45-.27H3.64a3.06,3.06,0,0,0-.17.63,2.94,2.94,0,0,0-.07.65,1.73,1.73,0,0,0,.28,1,.84.84,0,0,0,.71.39.89.89,0,0,0,.69-.31A1.18,1.18,0,0,0,5.34,49.09Zm1.18.46a2.37,2.37,0,0,1-.15.85,2,2,0,0,1-.42.68,1.9,1.9,0,0,1-.63.46,2.08,2.08,0,0,1-.8.16,1.73,1.73,0,0,1-.81-.2A1.91,1.91,0,0,1,3.06,51a2.69,2.69,0,0,1-.41-.85A3.71,3.71,0,0,1,2.5,49a4.47,4.47,0,0,1,.07-.82,3.41,3.41,0,0,1,.2-.72H2.41a1.27,1.27,0,0,0-1,.36,1.47,1.47,0,0,0-.33,1,2.78,2.78,0,0,0,.18,1,4.45,4.45,0,0,0,.52,1l-1,.5A4.69,4.69,0,0,1,0,48.73a3,3,0,0,1,.67-2.1,2.42,2.42,0,0,1,1.92-.75h2a.56.56,0,0,0,.36-.09.42.42,0,0,0,.12-.3H6.4a4,4,0,0,1,.08.71,1.15,1.15,0,0,1-.2.71.91.91,0,0,1-.54.3l-.35,0a2.74,2.74,0,0,1,.84,1A3,3,0,0,1,6.52,49.55ZM5.15,58A1.34,1.34,0,0,0,5,57.37a1.46,1.46,0,0,0-.42-.53A2,2,0,0,0,4,56.5a2.18,2.18,0,0,0-.72-.12,1.94,1.94,0,0,0-.73.14,1.68,1.68,0,0,0-.6.37,1.59,1.59,0,0,0-.4.55,1.72,1.72,0,0,0-.14.68,1.55,1.55,0,0,0,.08.47,1.57,1.57,0,0,0,.22.45,2.3,2.3,0,0,0,.33.37,1.76,1.76,0,0,0,.42.24H3.9A2.29,2.29,0,0,0,4.8,59,1.56,1.56,0,0,0,5.15,58Zm1.37-.54a2.45,2.45,0,0,1-.33,1.29,2.35,2.35,0,0,1-.9.87H9v1.61H.11V59.85H1.19A2.5,2.5,0,0,1,.32,59,2.52,2.52,0,0,1,0,57.68a2.75,2.75,0,0,1,1-2.1A3,3,0,0,1,2,55a3.47,3.47,0,0,1,1.25-.23,4.09,4.09,0,0,1,1.28.2,3.34,3.34,0,0,1,1.05.58,2.6,2.6,0,0,1,.69.86A2.45,2.45,0,0,1,6.52,57.49ZM.79,69.29a3.12,3.12,0,0,1-.6-1A3.35,3.35,0,0,1,0,67.14a2.9,2.9,0,0,1,.11-.79,1.76,1.76,0,0,1,.3-.65,1.35,1.35,0,0,1,.51-.44,1.45,1.45,0,0,1,.7-.17,1.45,1.45,0,0,1,.89.28,1.14,1.14,0,0,1,.47.75,1.63,1.63,0,0,1,.56-1,1.61,1.61,0,0,1,1.06-.35,1.77,1.77,0,0,1,.79.19,1.82,1.82,0,0,1,.6.51,2.2,2.2,0,0,1,.39.78,3.29,3.29,0,0,1,.14,1,3.54,3.54,0,0,1-.24,1.33,2.39,2.39,0,0,1-.68,1l-1-.76A1.66,1.66,0,0,0,5,68.14a2.21,2.21,0,0,0,.14-.78,1.32,1.32,0,0,0-.2-.78.69.69,0,0,0-.59-.29.76.76,0,0,0-.66.32,1.82,1.82,0,0,0-.24,1.07v.49H2.56v-.48a1.51,1.51,0,0,0-.22-.87.68.68,0,0,0-.58-.31.5.5,0,0,0-.45.22,1,1,0,0,0-.16.58A1.65,1.65,0,0,0,1.3,68a2,2,0,0,0,.39.64Zm2.47,7.95A2.35,2.35,0,0,0,4,77.12a1.92,1.92,0,0,0,.59-.35,1.68,1.68,0,0,0,.4-.52A1.69,1.69,0,0,0,5,75a1.68,1.68,0,0,0-.4-.52,1.77,1.77,0,0,0-.6-.34A2.11,2.11,0,0,0,3.25,74a2,2,0,0,0-.75.14,1.6,1.6,0,0,0-.6.34,1.52,1.52,0,0,0-.39.52,1.58,1.58,0,0,0,0,1.3,1.68,1.68,0,0,0,.4.52,2,2,0,0,0,.6.35A2.27,2.27,0,0,0,3.26,77.24ZM6.52,75.6A3.4,3.4,0,0,1,6.25,77a3.05,3.05,0,0,1-.71,1,3.2,3.2,0,0,1-1,.65,3.46,3.46,0,0,1-2.48,0A3.1,3.1,0,0,1,1,78a3.22,3.22,0,0,1-.72-1A3.57,3.57,0,0,1,0,75.6a3.49,3.49,0,0,1,.26-1.37,3.08,3.08,0,0,1,.72-1,3,3,0,0,1,1-.66,3.46,3.46,0,0,1,2.48,0,3.2,3.2,0,0,1,1,.65,2.92,2.92,0,0,1,.71,1A3.4,3.4,0,0,1,6.52,75.6ZM5.15,85.27A1.34,1.34,0,0,0,5,84.61a1.46,1.46,0,0,0-.42-.53A2,2,0,0,0,4,83.74a2.18,2.18,0,0,0-.72-.12,1.94,1.94,0,0,0-.73.14,1.68,1.68,0,0,0-.6.37,1.59,1.59,0,0,0-.4.55,1.72,1.72,0,0,0-.14.68,1.55,1.55,0,0,0,.08.47,1.57,1.57,0,0,0,.22.45,2.3,2.3,0,0,0,.33.37,1.76,1.76,0,0,0,.42.24H3.9a2.29,2.29,0,0,0,.9-.66A1.56,1.56,0,0,0,5.15,85.27Zm1.37-.54A2.45,2.45,0,0,1,6.19,86a2.35,2.35,0,0,1-.9.87H9V88.5H.11V87.09H1.19a2.5,2.5,0,0,1-.87-.9A2.52,2.52,0,0,1,0,84.92a2.75,2.75,0,0,1,1-2.1,3,3,0,0,1,1-.61A3.47,3.47,0,0,1,3.24,82a4.09,4.09,0,0,1,1.28.2,3.34,3.34,0,0,1,1.05.58,2.6,2.6,0,0,1,.69.86A2.45,2.45,0,0,1,6.52,84.73ZM5,99.73H1.45v1.4l1,.12a9.93,9.93,0,0,1,1.58.3A4.06,4.06,0,0,1,5,102Zm0,4.57V104a.83.83,0,0,0-.18-.47,1.13,1.13,0,0,0-.48-.33,3.74,3.74,0,0,0-.88-.22c-.37-.07-.84-.13-1.41-.2l-1.94-.21V98.13H5v-.84H8.2v1.43H6.4v4.2H8.2v1.38Zm.34,6.59a2.19,2.19,0,0,0-.14-.77,1.44,1.44,0,0,0-.39-.57.57.57,0,0,0-.45-.27H3.64a3.06,3.06,0,0,0-.17.63,2.91,2.91,0,0,0-.07.64,1.69,1.69,0,0,0,.28,1,.83.83,0,0,0,.71.4.89.89,0,0,0,.69-.31A1.18,1.18,0,0,0,5.34,110.89Zm1.18.46a2.37,2.37,0,0,1-.15.85,2.05,2.05,0,0,1-1,1.14,2.08,2.08,0,0,1-.8.16,1.73,1.73,0,0,1-.81-.2,1.91,1.91,0,0,1-.65-.55,2.69,2.69,0,0,1-.41-.85,3.71,3.71,0,0,1-.15-1.08,4.47,4.47,0,0,1,.07-.82,3.41,3.41,0,0,1,.2-.72H2.41a1.27,1.27,0,0,0-1,.36,1.49,1.49,0,0,0-.33,1,2.78,2.78,0,0,0,.18,1,4.74,4.74,0,0,0,.52,1l-1,.49a4.69,4.69,0,0,1-.8-2.62,3,3,0,0,1,.67-2.1,2.42,2.42,0,0,1,1.92-.75h2a.56.56,0,0,0,.36-.09.42.42,0,0,0,.12-.3H6.4a4,4,0,0,1,.08.71,1.15,1.15,0,0,1-.2.71.91.91,0,0,1-.54.3l-.35,0a2.74,2.74,0,0,1,.84,1A3,3,0,0,1,6.52,111.35ZM5,123a1.48,1.48,0,0,0-.15-.57.87.87,0,0,0-.44-.37,3.45,3.45,0,0,0-.89-.25c-.38-.07-.88-.14-1.5-.22l-1.94-.21V117H6.4v1.6H1.45V120l1,.12a17.23,17.23,0,0,1,2,.35,3.75,3.75,0,0,1,1.22.53,1.74,1.74,0,0,1,.65.78,3.44,3.44,0,0,1,.2,1.15ZM.11,127.33v-1.72l3.05,2.44,3.24-2.64v1.83L4,129.18v.42H6.4v1.59H.11V129.6H2.6v-.36Zm4,11.94-4-3V135.1H6.4v1.6H2.51l3.89,2.94v1.22H.11v-1.59Zm1.05,8.38A1.34,1.34,0,0,0,5,147a1.51,1.51,0,0,0-.42-.52,1.82,1.82,0,0,0-.61-.34,2.18,2.18,0,0,0-.72-.12,1.93,1.93,0,0,0-.73.13,1.84,1.84,0,0,0-.6.37,1.74,1.74,0,0,0-.4.56,1.65,1.65,0,0,0-.14.68,1.6,1.6,0,0,0,.08.47,1.4,1.4,0,0,0,.22.44A1.94,1.94,0,0,0,2,149a1.27,1.27,0,0,0,.42.24H3.9a2.11,2.11,0,0,0,.9-.66A1.51,1.51,0,0,0,5.15,147.65Zm1.37-.54a2.49,2.49,0,0,1-.33,1.3,2.26,2.26,0,0,1-.9.86H9v1.61H.11v-1.4H1.19a2.5,2.5,0,0,1-.87-.9A2.52,2.52,0,0,1,0,147.31a2.72,2.72,0,0,1,.26-1.18,2.65,2.65,0,0,1,.7-.92,3,3,0,0,1,1-.62,3.46,3.46,0,0,1,1.25-.22,3.82,3.82,0,0,1,1.28.2,3.34,3.34,0,0,1,1.05.58,2.5,2.5,0,0,1,.69.86A2.41,2.41,0,0,1,6.52,147.11Zm-.12,7.67v1.6H1.5v2.31H6.4v1.6H.11v-5.51Z"/><rect class="cls-2" x="0.4" y="168.6" width="6" height="5.91"/></svg>