<svg id="Слой_1" data-name="Слой 1" xmlns="http://www.w3.org/2000/svg" viewBox="0 0 45 46.38"><defs><style>.cls-1{fill:#064967;}</style></defs><title>проф консультация</title><path class="cls-1" d="M39.06,16.88c-.2-.22-.41-.44-.6-.61a1.14,1.14,0,0,0-.24-.25l-.1,0a14.33,14.33,0,0,0-2.83-2.12.71.71,0,0,0-.2-.12A14.3,14.3,0,0,0,31,12.28a14.73,14.73,0,0,0-3.26-5.11,1.16,1.16,0,0,0-1.64,0,1.15,1.15,0,0,0,0,1.63,12.7,12.7,0,0,1-9,21.61h-.35a1.24,1.24,0,0,0-.58.14,13.87,13.87,0,0,1-9.94,1,15.71,15.71,0,0,0,3.06-2.22,1.15,1.15,0,0,0,.33-.89,1.13,1.13,0,0,0-.44-.82A12.69,12.69,0,0,1,7.09,9.86,12.84,12.84,0,0,1,8.2,8.63h.06l.09-.09a12.68,12.68,0,0,1,2.49-1.89l.12,0A12.8,12.8,0,0,1,23.71,7a1.15,1.15,0,0,0,1.5-.62A1.17,1.17,0,0,0,24.83,5a15.06,15.06,0,0,0-15-.39l-.07,0A15.38,15.38,0,0,0,6.91,6.68l-.11.06a.81.81,0,0,0-.21.2,15,15,0,0,0-.31,21.18c.13.13.26.27.4.4a13.38,13.38,0,0,1-3.79,2,1.12,1.12,0,0,0-.7.54,1.15,1.15,0,0,0-.11.87,1.14,1.14,0,0,0,.63.75,15.79,15.79,0,0,0,11.86,1,14.82,14.82,0,0,0,5.25,5.88,1.16,1.16,0,0,0,.62.19h0a1.15,1.15,0,0,0,1-.52,1.17,1.17,0,0,0-.34-1.61,12.48,12.48,0,0,1-4.37-4.78l.25-.12h.1A14.94,14.94,0,0,0,32,17.78a14.61,14.61,0,0,0-.29-3,12.42,12.42,0,0,1,2.25.94l.09.06a12.68,12.68,0,0,1,3,19.83,14.16,14.16,0,0,1-1.34,1.22,1.15,1.15,0,0,0-.13,1.62.68.68,0,0,0,.12.12,15.15,15.15,0,0,0,3,2.21,13.89,13.89,0,0,1-10-1,1.47,1.47,0,0,0-.73-.11H28A12.83,12.83,0,0,1,23.88,39a1.15,1.15,0,0,0-1.49.66,1.16,1.16,0,0,0,.73,1.51A15.66,15.66,0,0,0,28,42H28a16,16,0,0,0,7.09,1.67h.09a15.58,15.58,0,0,0,7.09-1.71,1.15,1.15,0,0,0,.51-1.55,1.13,1.13,0,0,0-.66-.57h0a13,13,0,0,1-3.81-2,15,15,0,0,0,.72-20.9Z"/><path class="cls-1" d="M17.05,24.74a1.15,1.15,0,0,0,1.16-1.15V18.45h5.14a1.16,1.16,0,0,0,0-2.31H18.21V11a1.16,1.16,0,0,0-2.31,0v5.14H10.76a1.16,1.16,0,0,0,0,2.31H15.9v5.14A1.15,1.15,0,0,0,17.05,24.74Z"/><circle class="cls-1" cx="28.38" cy="30.72" r="1.15"/><circle class="cls-1" cx="31.74" cy="30.72" r="1.15"/><circle class="cls-1" cx="35.1" cy="30.72" r="1.15"/></svg>