<svg id="Слой_1" data-name="Слой 1" xmlns="http://www.w3.org/2000/svg" viewBox="0 0 9.13 618.77"><defs><style>.cls-1{fill:#c4c4c4;}.cls-2{fill:#76003e;}</style></defs><title>чому саме в нас</title><rect class="cls-1" x="2.4" y="162.35" width="1" height="456.42"/><path class="cls-1" d="M3.25,6.18A3.51,3.51,0,0,1,2,6a3,3,0,0,1-1-.66,3.36,3.36,0,0,1-.71-1A3.57,3.57,0,0,1,0,2.87,3.32,3.32,0,0,1,.44,1.12,2.87,2.87,0,0,1,1.61,0L2.09,1.6a1.31,1.31,0,0,0-.53.54,1.43,1.43,0,0,0-.19.74,1.58,1.58,0,0,0,.14.65,1.65,1.65,0,0,0,.39.53,1.74,1.74,0,0,0,.58.34,2.39,2.39,0,0,0,.77.12A2.11,2.11,0,0,0,4,4.39,2,2,0,0,0,4.62,4,1.68,1.68,0,0,0,5,3.52a1.74,1.74,0,0,0,.13-.64,1.45,1.45,0,0,0-.22-.79,1.2,1.2,0,0,0-.53-.52L4.88,0A2.64,2.64,0,0,1,6.06,1.07a3.38,3.38,0,0,1,.46,1.79,3.4,3.4,0,0,1-.27,1.38,3.15,3.15,0,0,1-.71,1A3.26,3.26,0,0,1,4.5,6,3.55,3.55,0,0,1,3.25,6.18Zm2.09,6.75a2.15,2.15,0,0,0-.14-.77,1.48,1.48,0,0,0-.39-.58.58.58,0,0,0-.45-.26H3.64a3,3,0,0,0-.17.62,3,3,0,0,0-.07.65,1.69,1.69,0,0,0,.28,1,.85.85,0,0,0,.71.4.9.9,0,0,0,.69-.32A1.15,1.15,0,0,0,5.34,12.93Zm1.18.45a2.34,2.34,0,0,1-.15.85,2,2,0,0,1-1,1.14,1.91,1.91,0,0,1-.8.16,1.73,1.73,0,0,1-.81-.19,2,2,0,0,1-.65-.55,2.74,2.74,0,0,1-.41-.86,3.61,3.61,0,0,1-.15-1.08A4.28,4.28,0,0,1,2.57,12a3.41,3.41,0,0,1,.2-.72H2.41a1.27,1.27,0,0,0-1,.36,1.46,1.46,0,0,0-.33,1,2.8,2.8,0,0,0,.18,1,4.68,4.68,0,0,0,.52,1l-1,.49A4.69,4.69,0,0,1,0,12.57a3,3,0,0,1,.67-2.1,2.39,2.39,0,0,1,1.92-.76h2a.64.64,0,0,0,.36-.08A.46.46,0,0,0,5,9.33H6.4a4,4,0,0,1,.08.7,1.13,1.13,0,0,1-.2.71.91.91,0,0,1-.54.3l-.35,0a2.74,2.74,0,0,1,.84,1A3,3,0,0,1,6.52,13.38Zm-4,9.68V20.57H.11V19H6.4v1.6H3.85v2.49H6.4v1.6H.11v-1.6ZM5.23,41.11A.68.68,0,0,0,5,40.56a.78.78,0,0,0-.55-.22.75.75,0,0,0-.55.21.7.7,0,0,0-.23.55v1.6H5.23Zm-2.49.22a.73.73,0,0,0-.2-.54A.69.69,0,0,0,2,40.58a.71.71,0,0,0-.5.18.62.62,0,0,0-.22.52V42.7H2.74ZM.11,40.57a1.45,1.45,0,0,1,.13-.63,1.35,1.35,0,0,1,.34-.5,1.38,1.38,0,0,1,.5-.32A1.58,1.58,0,0,1,1.69,39a1.75,1.75,0,0,1,.83.22,1.32,1.32,0,0,1,.61.7,1.77,1.77,0,0,1,.54-.86,1.49,1.49,0,0,1,1-.32A1.48,1.48,0,0,1,6,39.33,2.89,2.89,0,0,1,6.4,41v3.3H.11ZM2.72,59.93a1.59,1.59,0,0,0-1.12.53,1.62,1.62,0,0,0-.32,1.72,1.64,1.64,0,0,0,.32.5,1.83,1.83,0,0,0,.49.36,1.82,1.82,0,0,0,.63.15Zm3.8,1.63a3.56,3.56,0,0,1-.26,1.37,3.18,3.18,0,0,1-.7,1,3.15,3.15,0,0,1-1,.67,3.2,3.2,0,0,1-1.23.23A3.28,3.28,0,0,1,2,64.64,3,3,0,0,1,1,64a3.12,3.12,0,0,1-.72-1A3.66,3.66,0,0,1,0,61.55a3.49,3.49,0,0,1,.26-1.37,3.2,3.2,0,0,1,.71-1,2.86,2.86,0,0,1,1-.65,3.44,3.44,0,0,1,1.23-.23h.3a.88.88,0,0,1,.24,0v4.86A2.13,2.13,0,0,0,4.43,63a1.81,1.81,0,0,0,.49-.37,1.63,1.63,0,0,0,.31-.52,1.73,1.73,0,0,0,.11-.6,1.88,1.88,0,0,0-.23-.9A1.3,1.3,0,0,0,4.49,60l.38-1.38a2.84,2.84,0,0,1,1.19,1.12A3.48,3.48,0,0,1,6.52,61.56ZM3.46,71.87.11,70V68.36H6.4V69.9H2.62l2.83,1.6v.75l-2.83,1.6H6.4v1.53H.11V73.73ZM5.34,82.55a2.19,2.19,0,0,0-.14-.77,1.37,1.37,0,0,0-.39-.57.57.57,0,0,0-.45-.27H3.64a4.2,4.2,0,0,0-.24,1.27,1.69,1.69,0,0,0,.28,1,.83.83,0,0,0,.71.4.89.89,0,0,0,.69-.31A1.19,1.19,0,0,0,5.34,82.55ZM6.52,83a2.41,2.41,0,0,1-.15.85,2.05,2.05,0,0,1-1,1.14,2.07,2.07,0,0,1-.8.15A1.73,1.73,0,0,1,3.71,85a1.91,1.91,0,0,1-.65-.55,2.69,2.69,0,0,1-.41-.85,3.71,3.71,0,0,1-.15-1.08,4.47,4.47,0,0,1,.07-.82,3.41,3.41,0,0,1,.2-.72H2.41a1.27,1.27,0,0,0-1,.36,1.47,1.47,0,0,0-.33,1,2.78,2.78,0,0,0,.18,1,4.45,4.45,0,0,0,.52,1l-1,.5A4.69,4.69,0,0,1,0,82.19a3,3,0,0,1,.67-2.1,2.43,2.43,0,0,1,1.92-.76h2a.56.56,0,0,0,.36-.08A.42.42,0,0,0,5,79H6.4a4,4,0,0,1,.08.71,1.15,1.15,0,0,1-.2.71.91.91,0,0,1-.54.3l-.35,0a2.74,2.74,0,0,1,.84,1A3,3,0,0,1,6.52,83ZM3.25,94.29A3.3,3.3,0,0,1,2,94.06a3,3,0,0,1-1-.66,3.25,3.25,0,0,1-.71-1A3.57,3.57,0,0,1,0,91a3.32,3.32,0,0,1,.44-1.75,2.85,2.85,0,0,1,1.17-1.09l.48,1.57a1.31,1.31,0,0,0-.53.54,1.43,1.43,0,0,0-.19.74,1.58,1.58,0,0,0,.14.65,1.55,1.55,0,0,0,.39.53,2,2,0,0,0,.58.35,2.39,2.39,0,0,0,.77.12A2.11,2.11,0,0,0,4,92.5a2,2,0,0,0,.6-.34,1.85,1.85,0,0,0,.4-.53A1.7,1.7,0,0,0,5.15,91a1.45,1.45,0,0,0-.22-.79,1.2,1.2,0,0,0-.53-.52l.48-1.57a2.64,2.64,0,0,1,1.18,1.07,3.69,3.69,0,0,1,.19,3.17,3.15,3.15,0,0,1-.71,1,3.26,3.26,0,0,1-1,.67A3.34,3.34,0,0,1,3.25,94.29Zm4.27,19a1.59,1.59,0,0,0,.17-.39,1.49,1.49,0,0,0,0-.36.61.61,0,0,0-.3-.51,2.92,2.92,0,0,0-1-.39L.11,114.12v-1.66L5,110.76.11,109.25v-1.52l7.1,2.48a3.37,3.37,0,0,1,1.48.88,1.93,1.93,0,0,1,.44,1.28,1.89,1.89,0,0,1-.05.49,1.27,1.27,0,0,1-.18.42Zm-4.06,7.57L.11,119v-1.64H6.4v1.53H2.62l2.83,1.6v.75l-2.83,1.6H6.4v1.54H.11v-1.66Zm-.2,12a2.35,2.35,0,0,0,.77-.12,2.14,2.14,0,0,0,.59-.35,1.49,1.49,0,0,0,.53-1.18,1.66,1.66,0,0,0-.13-.64,1.48,1.48,0,0,0-.4-.52,1.79,1.79,0,0,0-.6-.35,2.11,2.11,0,0,0-.77-.13,2,2,0,0,0-.75.13,1.61,1.61,0,0,0-.6.35,1.35,1.35,0,0,0-.39.52,1.5,1.5,0,0,0-.14.64,1.55,1.55,0,0,0,.14.65,1.73,1.73,0,0,0,.4.53,2.2,2.2,0,0,0,.6.35A2.27,2.27,0,0,0,3.26,132.81Zm3.26-1.65a3.4,3.4,0,0,1-.27,1.38,3.09,3.09,0,0,1-.71,1.05,3.18,3.18,0,0,1-1,.64,3.22,3.22,0,0,1-1.24.23A3.22,3.22,0,0,1,2,134.23a3.08,3.08,0,0,1-1-.64,3.27,3.27,0,0,1-.72-1.05A3.57,3.57,0,0,1,0,131.16a3.49,3.49,0,0,1,.26-1.37,3.18,3.18,0,0,1,.72-1,3.13,3.13,0,0,1,1-.66,3.41,3.41,0,0,1,1.24-.22,3.41,3.41,0,0,1,1.24.22,3.2,3.2,0,0,1,1,.65,3,3,0,0,1,.71,1A3.4,3.4,0,0,1,6.52,131.16ZM6.4,138v1.57H4.15a3.8,3.8,0,0,1,.15.58,5,5,0,0,1,0,.73,2.47,2.47,0,0,1-.16.94,2.13,2.13,0,0,1-.47.66,1.92,1.92,0,0,1-.7.39,2.61,2.61,0,0,1-.85.14H.11v-1.55H1.92a1.31,1.31,0,0,0,.89-.25,1,1,0,0,0,.26-.71A2,2,0,0,0,3,139.9a1.35,1.35,0,0,0-.18-.38H.11V138Z"/><rect class="cls-2" x="0.4" y="149.35" width="6" height="6"/></svg>