<svg width="124" height="87" viewBox="0 0 124 87" fill="none" xmlns="http://www.w3.org/2000/svg">
<path d="M54.0331 73.0616V85.8472H6.82523V73.0616H22.7508V31.1089C22.7508 30.0434 22.7697 28.9779 22.8076 27.9125C22.8456 26.809 22.9024 25.7054 22.9783 24.6019L13.5367 32.4788C12.7025 33.1256 11.8683 33.5252 11.0341 33.6774C10.2378 33.7916 9.47948 33.7916 8.75904 33.6774C8.0386 33.5252 7.394 33.2779 6.82523 32.9354C6.25646 32.5549 5.83936 32.1743 5.57394 31.7938L0 24.3736L25.8221 2.62669H40.3826V73.0616H54.0331Z" fill="#3A3A3A"/>
<path d="M123.944 44.2369C123.944 51.5049 123.166 57.8026 121.612 63.1299C120.057 68.4573 117.896 72.8713 115.128 76.3722C112.398 79.873 109.137 82.4796 105.345 84.1919C101.591 85.9043 97.5149 86.7604 93.1164 86.7604C88.7179 86.7604 84.6417 85.9043 80.8878 84.1919C77.1719 82.4796 73.9489 79.873 71.2188 76.3722C68.4887 72.8713 66.3463 68.4573 64.7917 63.1299C63.275 57.8026 62.5166 51.5049 62.5166 44.2369C62.5166 36.9689 63.275 30.6713 64.7917 25.3439C66.3463 20.0166 68.4887 15.6025 71.2188 12.1017C73.9489 8.60091 77.1719 6.01335 80.8878 4.33904C84.6417 2.62669 88.7179 1.77051 93.1164 1.77051C97.5149 1.77051 101.591 2.62669 105.345 4.33904C109.137 6.01335 112.398 8.60091 115.128 12.1017C117.896 15.6025 120.057 20.0166 121.612 25.3439C123.166 30.6713 123.944 36.9689 123.944 44.2369ZM105.743 44.2369C105.743 38.491 105.383 33.7916 104.662 30.1385C103.942 26.4475 102.975 23.5555 101.762 21.4626C100.586 19.3697 99.2401 17.9428 97.7234 17.1817C96.2067 16.3826 94.671 15.9831 93.1164 15.9831C91.5617 15.9831 90.0261 16.3826 88.5094 17.1817C87.0306 17.9428 85.7034 19.3697 84.528 21.4626C83.3904 23.5555 82.4614 26.4475 81.741 30.1385C81.0585 33.7916 80.7172 38.491 80.7172 44.2369C80.7172 50.0209 81.0585 54.7394 81.741 58.3924C82.4614 62.0454 83.3904 64.9374 84.528 67.0683C85.7034 69.1612 87.0306 70.6072 88.5094 71.4063C90.0261 72.1674 91.5617 72.5479 93.1164 72.5479C94.671 72.5479 96.2067 72.1674 97.7234 71.4063C99.2401 70.6072 100.586 69.1612 101.762 67.0683C102.975 64.9374 103.942 62.0454 104.662 58.3924C105.383 54.7394 105.743 50.0209 105.743 44.2369Z" fill="#3A3A3A"/>
<path d="M54.0331 71.2911V84.0767H6.82523V71.2911H22.7508V29.3384C22.7508 28.2729 22.7697 27.2074 22.8076 26.142C22.8456 25.0385 22.9024 23.9349 22.9783 22.8314L13.5367 30.7083C12.7025 31.3551 11.8683 31.7547 11.0341 31.9069C10.2378 32.0211 9.47948 32.0211 8.75904 31.9069C8.0386 31.7547 7.394 31.5074 6.82523 31.1649C6.25646 30.7844 5.83936 30.4038 5.57394 30.0233L0 22.6031L25.8221 0.856178H40.3826V71.2911H54.0331Z" fill="url(#paint0_linear)"/>
<path d="M123.944 42.4664C123.944 49.7344 123.166 56.0321 121.612 61.3594C120.057 66.6868 117.896 71.1008 115.128 74.6016C112.398 78.1025 109.137 80.7091 105.345 82.4214C101.591 84.1338 97.5149 84.9899 93.1164 84.9899C88.7179 84.9899 84.6417 84.1338 80.8878 82.4214C77.1719 80.7091 73.9489 78.1025 71.2188 74.6016C68.4887 71.1008 66.3463 66.6868 64.7917 61.3594C63.275 56.0321 62.5166 49.7344 62.5166 42.4664C62.5166 35.1984 63.275 28.9008 64.7917 23.5734C66.3463 18.2461 68.4887 13.832 71.2188 10.3312C73.9489 6.8304 77.1719 4.24284 80.8878 2.56853C84.6417 0.856178 88.7179 0 93.1164 0C97.5149 0 101.591 0.856178 105.345 2.56853C109.137 4.24284 112.398 6.8304 115.128 10.3312C117.896 13.832 120.057 18.2461 121.612 23.5734C123.166 28.9008 123.944 35.1984 123.944 42.4664ZM105.743 42.4664C105.743 36.7205 105.383 32.0211 104.662 28.368C103.942 24.677 102.975 21.785 101.762 19.6921C100.586 17.5992 99.2401 16.1723 97.7234 15.4112C96.2067 14.6121 94.671 14.2126 93.1164 14.2126C91.5617 14.2126 90.0261 14.6121 88.5094 15.4112C87.0306 16.1723 85.7034 17.5992 84.528 19.6921C83.3904 21.785 82.4614 24.677 81.741 28.368C81.0585 32.0211 80.7172 36.7205 80.7172 42.4664C80.7172 48.2504 81.0585 52.9689 81.741 56.6219C82.4614 60.2749 83.3904 63.1669 84.528 65.2978C85.7034 67.3907 87.0306 68.8367 88.5094 69.6358C90.0261 70.3969 91.5617 70.7774 93.1164 70.7774C94.671 70.7774 96.2067 70.3969 97.7234 69.6358C99.2401 68.8367 100.586 67.3907 101.762 65.2978C102.975 63.1669 103.942 60.2749 104.662 56.6219C105.383 52.9689 105.743 48.2504 105.743 42.4664Z" fill="url(#paint1_linear)"/>
<defs>
<linearGradient id="paint0_linear" x1="61.9718" y1="0" x2="61.9718" y2="84.9899" gradientUnits="userSpaceOnUse">
<stop stop-color="#D72331"/>
<stop offset="1" stop-color="#3A6997"/>
</linearGradient>
<linearGradient id="paint1_linear" x1="61.9718" y1="0" x2="61.9718" y2="84.9899" gradientUnits="userSpaceOnUse">
<stop stop-color="#D72331"/>
<stop offset="1" stop-color="#3A6997"/>
</linearGradient>
</defs>
</svg>
