<svg width="246" height="87" viewBox="0 0 246 87" fill="none" xmlns="http://www.w3.org/2000/svg">
<path d="M59.3515 85.6256H1.70224V73.1425L28.2572 45.2258C34.8014 37.7737 38.0735 31.8537 38.0735 27.4657C38.0735 23.9099 37.298 21.2052 35.7471 19.3517C34.1961 17.4981 31.9454 16.5714 28.9948 16.5714C26.0821 16.5714 23.7179 17.8197 21.9022 20.3163C20.0865 22.7751 19.1786 25.858 19.1786 29.5651H0C0 24.4962 1.26722 19.8245 3.80167 15.55C6.33612 11.2377 9.85409 7.87102 14.3556 5.45005C18.8571 3.02909 23.8881 1.8186 29.4488 1.8186C38.3761 1.8186 45.2418 3.88021 50.0459 8.00341C54.8878 12.1266 57.3088 18.0466 57.3088 25.7635C57.3088 29.0166 56.7036 32.1942 55.4931 35.296C54.2826 38.3601 52.3912 41.5943 49.8189 44.9988C47.2845 48.3655 43.1802 52.8859 37.5061 58.56L26.8387 70.8729H59.3515V85.6256Z" fill="#3A3A3A"/>
<path d="M126.363 51.8645C126.363 63.0236 123.848 71.6294 118.816 77.6818C113.823 83.7343 106.768 86.7605 97.6519 86.7605C88.4598 86.7605 81.3482 83.7153 76.3172 77.6251C71.2861 71.5349 68.7706 62.948 68.7706 51.8645V36.7713C68.7706 25.6122 71.2672 17.0064 76.2604 10.954C81.2915 4.90155 88.3842 1.87534 97.5384 1.87534C106.693 1.87534 113.785 4.92047 118.816 11.0107C123.848 17.101 126.363 25.7067 126.363 36.828V51.8645ZM107.241 34.3314C107.241 28.3925 106.466 23.9667 104.915 21.0539C103.364 18.1034 100.905 16.6281 97.5384 16.6281C94.2474 16.6281 91.8454 17.9899 90.3323 20.7135C88.857 23.4371 88.0626 27.5603 87.9492 33.0831V54.1909C87.9492 60.3568 88.7246 64.8772 90.2755 67.7521C91.8265 70.5892 94.2853 72.0077 97.6519 72.0077C100.905 72.0077 103.307 70.627 104.858 67.8656C106.409 65.0663 107.203 60.6973 107.241 54.7583V34.3314Z" fill="#3A3A3A"/>
<path d="M193.658 51.8645C193.658 63.0236 191.143 71.6294 186.112 77.6818C181.118 83.7343 174.064 86.7605 164.947 86.7605C155.755 86.7605 148.644 83.7153 143.612 77.6251C138.581 71.5349 136.066 62.948 136.066 51.8645V36.7713C136.066 25.6122 138.562 17.0064 143.556 10.954C148.587 4.90155 155.679 1.87534 164.834 1.87534C173.988 1.87534 181.081 4.92047 186.112 11.0107C191.143 17.101 193.658 25.7067 193.658 36.828V51.8645ZM174.536 34.3314C174.536 28.3925 173.761 23.9667 172.21 21.0539C170.659 18.1034 168.2 16.6281 164.834 16.6281C161.543 16.6281 159.141 17.9899 157.628 20.7135C156.152 23.4371 155.358 27.5603 155.244 33.0831V54.1909C155.244 60.3568 156.02 64.8772 157.571 67.7521C159.122 70.5892 161.581 72.0077 164.947 72.0077C168.2 72.0077 170.602 70.627 172.153 67.8656C173.704 65.0663 174.499 60.6973 174.536 54.7583V34.3314Z" fill="#3A3A3A"/>
<path d="M245.974 85.6256H226.795V24.5719L207.957 30.0758V15.55L244.215 3.01017H245.974V85.6256Z" fill="#3A3A3A"/>
<path d="M59.3515 83.807H1.70224V71.3239L28.2572 43.4072C34.8014 35.9551 38.0735 30.0351 38.0735 25.6471C38.0735 22.0913 37.298 19.3866 35.7471 17.5331C34.1961 15.6795 31.9454 14.7528 28.9948 14.7528C26.0821 14.7528 23.7179 16.0011 21.9022 18.4977C20.0865 20.9565 19.1786 24.0394 19.1786 27.7465H0C0 22.6776 1.26722 18.0059 3.80167 13.7314C6.33612 9.41907 9.85409 6.05241 14.3556 3.63145C18.8571 1.21048 23.8881 0 29.4488 0C38.3761 0 45.2418 2.0616 50.0459 6.18481C54.8878 10.308 57.3088 16.228 57.3088 23.9449C57.3088 27.198 56.7036 30.3756 55.4931 33.4774C54.2826 36.5415 52.3912 39.7757 49.8189 43.1802C47.2845 46.5469 43.1802 51.0672 37.5061 56.7414L26.8387 69.0543H59.3515V83.807Z" fill="url(#paint0_linear)"/>
<path d="M126.363 50.0459C126.363 61.205 123.848 69.8108 118.816 75.8632C113.823 81.9156 106.768 84.9419 97.6519 84.9419C88.4598 84.9419 81.3482 81.8967 76.3172 75.8065C71.2861 69.7162 68.7706 61.1294 68.7706 50.0459V34.9527C68.7706 23.7936 71.2672 15.1878 76.2604 9.13536C81.2915 3.08295 88.3842 0.0567414 97.5384 0.0567414C106.693 0.0567414 113.785 3.10186 118.816 9.1921C123.848 15.2823 126.363 23.8881 126.363 35.0094V50.0459ZM107.241 32.5128C107.241 26.5739 106.466 22.1481 104.915 19.2353C103.364 16.2848 100.905 14.8095 97.5384 14.8095C94.2474 14.8095 91.8454 16.1713 90.3323 18.8949C88.857 21.6185 88.0626 25.7417 87.9492 31.2645V52.3723C87.9492 58.5382 88.7246 63.0586 90.2755 65.9335C91.8265 68.7706 94.2853 70.1891 97.6519 70.1891C100.905 70.1891 103.307 68.8084 104.858 66.047C106.409 63.2477 107.203 58.8786 107.241 52.9397V32.5128Z" fill="url(#paint1_linear)"/>
<path d="M193.658 50.0459C193.658 61.205 191.143 69.8108 186.112 75.8632C181.118 81.9156 174.064 84.9419 164.947 84.9419C155.755 84.9419 148.644 81.8967 143.612 75.8065C138.581 69.7162 136.066 61.1294 136.066 50.0459V34.9527C136.066 23.7936 138.562 15.1878 143.556 9.13536C148.587 3.08295 155.679 0.0567414 164.834 0.0567414C173.988 0.0567414 181.081 3.10186 186.112 9.1921C191.143 15.2823 193.658 23.8881 193.658 35.0094V50.0459ZM174.536 32.5128C174.536 26.5739 173.761 22.1481 172.21 19.2353C170.659 16.2848 168.2 14.8095 164.834 14.8095C161.543 14.8095 159.141 16.1713 157.628 18.8949C156.152 21.6185 155.358 25.7417 155.244 31.2645V52.3723C155.244 58.5382 156.02 63.0586 157.571 65.9335C159.122 68.7706 161.581 70.1891 164.947 70.1891C168.2 70.1891 170.602 68.8084 172.153 66.047C173.704 63.2477 174.499 58.8786 174.536 52.9397V32.5128Z" fill="url(#paint2_linear)"/>
<path d="M245.974 83.807H226.795V22.7533L207.957 28.2572V13.7314L244.215 1.19157H245.974V83.807Z" fill="url(#paint3_linear)"/>
<defs>
<linearGradient id="paint0_linear" x1="122.987" y1="0" x2="122.987" y2="84.9419" gradientUnits="userSpaceOnUse">
<stop stop-color="#3A6997"/>
<stop offset="1" stop-color="#D72331"/>
</linearGradient>
<linearGradient id="paint1_linear" x1="122.987" y1="0" x2="122.987" y2="84.9419" gradientUnits="userSpaceOnUse">
<stop stop-color="#3A6997"/>
<stop offset="1" stop-color="#D72331"/>
</linearGradient>
<linearGradient id="paint2_linear" x1="122.987" y1="0" x2="122.987" y2="84.9419" gradientUnits="userSpaceOnUse">
<stop stop-color="#3A6997"/>
<stop offset="1" stop-color="#D72331"/>
</linearGradient>
<linearGradient id="paint3_linear" x1="122.987" y1="0" x2="122.987" y2="84.9419" gradientUnits="userSpaceOnUse">
<stop stop-color="#3A6997"/>
<stop offset="1" stop-color="#D72331"/>
</linearGradient>
</defs>
</svg>
