<svg width="38" height="37" viewBox="0 0 38 37" fill="none" xmlns="http://www.w3.org/2000/svg">
<path d="M34.4936 27.7123C37.8846 21.8927 37.8846 14.9647 34.4936 9.4222V9.14508C31.1026 3.60261 25.1684 0 18.669 0H18.3864C11.887 0 5.67013 3.32549 2.56172 9.14508V9.4222C-0.829277 14.9647 -0.829277 21.8928 2.56172 27.4352V27.7123C5.95272 33.2548 11.887 36.8574 18.3864 36.8574C25.1684 36.5803 31.1026 33.2548 34.4936 27.7123Z" fill="#C01C29"/>
<path d="M28.2768 9.69908C27.9942 9.42196 27.429 9.14484 27.1464 8.86771C26.8639 8.59059 26.8639 8.59059 26.5813 8.31347C25.7335 7.4821 24.6032 7.4821 23.7554 8.31347L20.9296 11.0847C20.647 11.3618 20.3644 11.9161 20.3644 12.4703C20.3644 13.0245 20.647 13.3017 20.9296 13.8559L22.9077 15.5187C22.9077 15.5187 22.9077 15.5187 22.9077 15.7958C22.9077 16.0729 22.6251 16.0729 22.6251 16.35C22.6251 16.6271 22.3425 16.6271 22.3425 16.9043C21.2122 18.567 20.0819 19.9526 18.3864 21.3382C17.5386 22.1696 16.6909 22.4467 15.8431 22.7238C15.5605 22.7238 15.5605 22.7238 15.5605 22.7238C14.9954 22.4467 14.4302 21.8925 14.1476 21.3382L13.865 21.0611H13.5824C12.7347 20.2297 11.6044 20.2297 10.7566 21.0611L9.3437 22.4467L9.06112 22.7238L8.77853 23.001C8.49595 23.2781 8.21337 23.5552 7.93078 23.8323C7.6482 24.1095 7.36562 24.6637 7.36562 25.2179C7.36562 25.7722 7.6482 26.0493 7.93078 26.6036L9.62628 28.2663C10.1915 28.8205 10.7566 29.0977 11.6044 29.0977C12.7347 29.0977 13.865 29.0977 15.2779 28.5434C17.5386 27.7121 19.5167 26.6036 21.7774 24.6637C24.3206 22.4467 26.5813 19.9526 27.9942 16.9043C28.5594 15.7958 29.1245 14.4102 29.4071 12.4703V12.1932C29.4071 11.3618 29.1245 10.5304 28.2768 9.69908ZM9.06112 25.2179C9.06112 24.9408 9.06112 24.9408 9.06112 25.2179C9.62628 24.6637 9.90886 24.3866 10.1914 24.1095L10.474 23.8323L10.7566 23.5552L12.1695 22.1696L12.4521 21.8925C12.4521 21.8925 12.4521 21.8925 12.7347 22.1696L13.0173 22.4467L13.2999 22.7238C13.865 23.2781 14.1476 23.5552 14.4302 23.8323C14.9954 24.3866 15.5605 24.3866 16.4083 24.3866C17.256 24.1095 18.3864 23.5552 19.2341 22.7238C21.2122 21.3382 22.6251 19.6755 23.7554 18.0128C24.038 17.7356 24.038 17.4585 24.038 17.1814C24.038 16.9043 24.3206 16.9043 24.3206 16.6271C24.6032 16.35 24.6032 16.0729 24.6032 15.7958C24.6032 15.2415 24.3206 14.9644 24.038 14.4102L22.3425 12.7474L22.0599 12.4703C22.0599 12.4703 22.0599 12.4703 22.0599 12.1932L24.8858 9.42196C25.1684 9.14484 25.1684 9.14484 25.1684 9.14484C25.1684 9.14484 25.1684 9.14484 25.4509 9.42196C25.7335 9.69908 25.7335 9.69909 26.0161 9.97621C26.2987 10.2533 26.5813 10.8076 27.1464 11.0847C27.429 11.3618 27.7116 11.9161 27.7116 12.4703C27.7116 12.4703 27.7116 12.4703 27.7116 12.7474C27.7116 14.133 27.1464 15.5187 26.5813 16.35C25.1684 19.1212 23.1903 21.6153 20.647 23.5552C18.6689 25.2179 16.6909 26.3264 14.7128 27.1578C13.5824 27.7121 12.7347 27.712 11.8869 27.712C11.6044 27.712 11.0392 27.4349 10.7566 27.1578L9.06112 25.2179Z" fill="white"/>
</svg>
