<svg width="38" height="37" viewBox="0 0 38 37" fill="none" xmlns="http://www.w3.org/2000/svg">
<path d="M34.7762 27.4352C38.1672 21.6156 38.1672 14.6875 34.7762 9.14507V8.86795C31.3852 3.32548 25.451 0 18.669 0H18.3864C11.887 0 5.67015 3.32548 2.56174 9.14507V9.4222C-0.829262 14.9647 -0.829262 21.8928 2.56174 27.4352V27.7123C5.95273 33.2548 11.887 36.8574 18.3864 36.8574H18.669C25.451 36.5803 31.3852 32.9777 34.7762 27.4352Z" fill="#C01C29"/>
<path d="M9.06109 27.1577H15.5605C16.1257 27.1577 16.4083 26.8806 16.4083 26.3264V18.567H20.9296V26.3264C20.9296 26.8806 21.2122 27.1577 21.7773 27.1577H28.2768C28.5593 27.1577 28.8419 26.6035 28.8419 26.3264V14.4103C28.8419 14.4103 28.8419 14.1331 28.5593 13.856L18.9515 6.92805C18.6689 6.65094 18.3863 6.65094 18.1038 6.92805L8.77851 13.856C8.49592 14.1331 8.49592 14.1331 8.49592 14.4103V26.3264C8.21334 26.6035 8.77851 27.1577 9.06109 27.1577ZM14.7128 25.495H9.90884V14.9645L18.6689 8.59077L27.429 14.9645V25.495H22.6251V17.7357C22.6251 17.1814 22.3425 16.9043 21.7773 16.9043H15.5605C14.9953 17.1814 14.7128 17.4586 14.7128 17.7357V25.495Z" fill="white"/>
</svg>
