<svg width="38" height="37" viewBox="0 0 38 37" fill="none" xmlns="http://www.w3.org/2000/svg">
<path d="M34.4752 27.7127C37.8662 21.893 37.8662 14.9649 34.4752 9.42232V9.1452C31.0842 3.60266 25.1499 0 18.6505 0H18.3679C11.8685 0 5.6517 3.32553 2.54329 9.1452V9.42232C-0.84771 14.9649 -0.84771 21.893 2.54329 27.4356V27.7127C5.93428 33.2553 11.8685 36.8579 18.3679 36.8579C25.1499 36.8579 31.0842 33.2553 34.4752 27.7127Z" fill="#C01C29"/>
<path d="M6.78201 10.8089C6.78201 10.5317 6.78201 10.5317 6.78201 10.5317H29.1061V25.4963C29.1061 26.0505 28.8235 26.3276 28.2583 26.3276H6.78201C6.21684 26.3276 5.93426 26.0505 5.93426 25.4963L6.78201 10.8089ZM9.89042 11.9173L18.0853 18.8454L26.2802 11.9173H9.89042ZM28.2583 25.2192V12.7487L18.9331 20.5081C18.6505 20.7852 18.6505 20.7852 18.3679 20.7852C18.0853 20.7852 18.0853 20.7852 17.8028 20.5081L8.47751 12.7487V24.942H28.2583V25.2192Z" fill="white"/>
</svg>
