<svg width="17" height="17" viewBox="0 0 17 17" fill="none" xmlns="http://www.w3.org/2000/svg">
<path d="M15.976 12.0058C15.1801 11.5528 14.3841 11.0997 13.5882 10.7599C11.9963 10.0803 12.11 12.0058 10.9729 12.6854C10.1769 13.1384 9.15354 12.3456 8.58499 12.0058C7.44791 11.3262 6.42453 10.4201 5.62857 9.28751C5.17374 8.60794 4.15036 7.58858 4.26407 6.79574C4.49149 5.54986 5.9697 5.54986 5.51486 3.96418C5.28745 3.17135 4.94632 2.37851 4.6052 1.69894C4.15036 0.566312 4.03665 0 2.89957 0C1.9899 0 1.42136 0.453049 0.966523 1.13262C-0.39798 2.94482 -0.170563 5.43659 0.739106 7.36205C1.9899 10.1936 4.37778 12.7986 6.76566 14.6108C8.47129 15.7435 10.6317 16.8761 12.6785 16.9894C14.1567 17.1026 16.2035 16.3098 16.772 14.7241C16.772 14.8374 16.6583 14.9506 16.6583 14.9506C16.6583 14.9506 16.6583 14.8374 16.772 14.7241C16.772 14.6108 16.772 14.6108 16.772 14.6108V14.7241C17.1131 13.365 17.2268 12.6854 15.976 12.0058Z" fill="#DC1A1C"/>
</svg>
