<svg width="32" height="33" viewBox="0 0 32 33" fill="none" xmlns="http://www.w3.org/2000/svg">
<path d="M32 26.7707C32 29.8269 29.4831 32.164 26.6067 32.164H5.39326C2.33708 32.164 0 29.6471 0 26.7707V5.73701C0 2.68083 2.51685 0.34375 5.39326 0.34375H26.427C29.4831 0.34375 31.8202 2.8606 31.8202 5.73701V26.7707H32Z" fill="#413E45"/>
<path d="M21.0337 28.928H10.9663C6.47194 28.928 2.69666 25.3325 2.69666 20.6583V11.6696C2.69666 7.17518 6.29216 3.3999 10.9663 3.3999H21.2135C25.7079 3.3999 29.4832 6.99541 29.4832 11.6696V20.6583C29.3034 25.3325 25.5281 28.928 21.0337 28.928ZM10.9663 5.55721C7.37081 5.55721 4.67418 8.43361 4.67418 11.8493V20.8381C4.67418 24.4336 7.55059 27.1302 10.9663 27.1302H21.2135C24.809 27.1302 27.5056 24.2538 27.5056 20.8381V11.8493C27.5056 8.25384 24.6292 5.55721 21.2135 5.55721H10.9663Z" fill="#7B797E"/>
<path d="M16 23.5345C12.0449 23.5345 8.62921 20.2986 8.62921 16.1638C8.62921 12.2087 11.8652 8.79297 16 8.79297C19.9551 8.79297 23.3708 12.0289 23.3708 16.1638C23.191 20.2986 19.9551 23.5345 16 23.5345ZM16 10.7705C12.9438 10.7705 10.6067 13.2874 10.6067 16.1638C10.6067 19.2199 13.1236 21.557 16 21.557C19.0562 21.557 21.3933 19.0402 21.3933 16.1638C21.3933 13.2874 19.0562 10.7705 16 10.7705Z" fill="#7B797E"/>
<path d="M24.6292 9.33215C24.6292 10.231 23.9101 10.7703 23.191 10.7703C22.2922 10.7703 21.5731 10.0512 21.5731 9.33215C21.5731 8.43327 22.2922 7.89394 23.0113 7.89394C24.0899 7.71417 24.6292 8.43327 24.6292 9.33215Z" fill="#7B797E"/>
</svg>
