<svg width="33" height="33" viewBox="0 0 33 33" fill="none" xmlns="http://www.w3.org/2000/svg">
<path d="M33 26.7707C33 29.8269 30.4045 32.164 27.4382 32.164H5.5618C2.41011 32.164 0 29.6471 0 26.7707V5.73701C0 2.68083 2.59551 0.34375 5.5618 0.34375H27.2528C30.4045 0.34375 32.8146 2.8606 32.8146 5.73701V26.7707H33Z" fill="#413E45"/>
<path d="M22.618 32.3437V20.119H26.882L27.4382 15.2651H22.618V12.2089C22.618 10.7707 22.9888 9.87182 25.0281 9.87182H27.6236V5.55722C27.2528 5.55722 25.5843 5.37744 23.7304 5.37744C20.0225 5.37744 17.427 7.53475 17.427 11.6696V15.2651H13.3483V20.119H17.6124V32.3437H22.618Z" fill="#7B797E"/>
</svg>
