<svg id="Слой_1" data-name="Слой 1" xmlns="http://www.w3.org/2000/svg" viewBox="0 0 9.13 249.89"><defs><style>.cls-1{fill:#e8e8e8;}.cls-2{fill:#76003e;opacity:0.8;}</style></defs><title>чому ми</title><rect class="cls-1" x="1.9" y="81.89" width="1" height="168"/><path class="cls-1" d="M4.1,4.16l-4-3V0H6.4V1.6H2.51L6.4,4.54V5.76H.11V4.16Zm-.64,9L.11,11.32V9.67H6.4v1.54H2.62L5.45,12.8v.76l-2.83,1.6H6.4v1.53H.11V15ZM7.52,30.82a1.59,1.59,0,0,0,.17-.39,1.63,1.63,0,0,0,0-.36.61.61,0,0,0-.3-.51,2.74,2.74,0,0,0-1-.39L.11,31.66V30L5,28.3.11,26.78V25.27l7.1,2.47a3.38,3.38,0,0,1,1.48.89,2.16,2.16,0,0,1,.39,1.77,1.27,1.27,0,0,1-.18.42ZM3.46,38.39.11,36.53V34.88H6.4v1.54H2.62L5.45,38v.76l-2.83,1.6H6.4V41.9H.11V40.25Zm-.2,12A2.35,2.35,0,0,0,4,50.22a1.9,1.9,0,0,0,.59-.34,1.85,1.85,0,0,0,.4-.53,1.69,1.69,0,0,0,0-1.3,1.54,1.54,0,0,0-.4-.51,1.64,1.64,0,0,0-.6-.35,2.11,2.11,0,0,0-.77-.13,2,2,0,0,0-.75.13,1.49,1.49,0,0,0-.6.35,1.39,1.39,0,0,0-.39.51,1.58,1.58,0,0,0,0,1.3,1.85,1.85,0,0,0,.4.53,2,2,0,0,0,.6.34A2.27,2.27,0,0,0,3.26,50.34ZM6.52,48.7a3.4,3.4,0,0,1-.27,1.38,3,3,0,0,1-.71,1,3.2,3.2,0,0,1-1,.65,3.46,3.46,0,0,1-2.48,0A3.08,3.08,0,0,1,.26,50.08,3.57,3.57,0,0,1,0,48.7a3.49,3.49,0,0,1,.26-1.37,3.08,3.08,0,0,1,.72-1,3,3,0,0,1,1-.66,3.46,3.46,0,0,1,2.48,0,3.2,3.2,0,0,1,1,.65,2.92,2.92,0,0,1,.71,1A3.4,3.4,0,0,1,6.52,48.7ZM6.4,55.49v1.57H4.15a3.52,3.52,0,0,1,.15.58,4.9,4.9,0,0,1,0,.73,2.38,2.38,0,0,1-.16.93A1.88,1.88,0,0,1,3,60.36a2.61,2.61,0,0,1-.85.13H.11V58.94H1.92a1.26,1.26,0,0,0,.89-.25A1,1,0,0,0,3.07,58,2.15,2.15,0,0,0,3,57.43a1.42,1.42,0,0,0-.18-.37H.11V55.49Z"/><rect class="cls-2" x="0.59" y="68.61" width="5.43" height="5.34"/></svg>