<svg width="210" height="88" viewBox="0 0 210 88" fill="none" xmlns="http://www.w3.org/2000/svg">
<path d="M21.7772 13V2H207.857V86H21.7772V71" stroke="#FEBE19" stroke-width="4"/>
<path d="M0 53.3378V61.43H5.16517V65.3647H10.524V61.43H32.5406V65.3647H37.8994V61.43H43.0646V53.3378H0ZM40.9985 59.277H35.8333V63.2117H34.2838V59.277H8.45796V63.2117H6.90841V59.277H1.93694V55.565H41.0631V59.277H40.9985Z" fill="#F8BD00"/>
<path d="M20.7252 35.6689H1.74323V51.6304H20.7252V35.6689ZM18.7883 49.4032H3.55103V37.8219H18.7883V49.4032Z" fill="#3A3A3A"/>
<path d="M20.7252 18H1.74324V33.9614H20.7252V18ZM18.7883 31.7343H3.55105V20.2272H18.7883V31.7343Z" fill="#3A3A3A"/>
<path d="M41.1922 35.6689H22.2102V51.6304H41.1922V35.6689ZM39.3198 49.4032H24.0826V37.8219H39.3198V49.4032Z" fill="#3A3A3A"/>
<path d="M41.1922 18H22.2102V33.9614H41.1922V18ZM39.3198 31.7343H24.0826V20.2272H39.3198V31.7343Z" fill="#3A3A3A"/>
<path d="M11.2342 28.1716C12.2673 28.1716 13.3649 27.8746 14.2688 27.2064L14.7207 26.9095V21.9354H7.74774V26.9837L8.19969 27.2807C9.1036 27.8746 10.1366 28.1716 11.2342 28.1716ZM9.55555 24.0883H12.7838V25.6474C11.7507 26.1671 10.5886 26.1671 9.55555 25.6474V24.0883Z" fill="#3A3A3A"/>
<path d="M31.7012 28.1716C32.7342 28.1716 33.8318 27.8746 34.7357 27.2064L35.1877 26.9095V21.9354H28.2147V26.9837L28.6667 27.2807C29.6351 27.8746 30.6682 28.1716 31.7012 28.1716ZM30.0871 24.0883H33.3153V25.6474C32.2823 26.1671 31.1201 26.1671 30.0871 25.6474V24.0883Z" fill="#3A3A3A"/>
<path d="M31.7012 45.9139C32.7342 45.9139 33.8318 45.6169 34.7357 44.9488L35.1877 44.6518V39.6036H28.2147V44.6518L28.6667 44.9488C29.6351 45.6169 30.6682 45.9139 31.7012 45.9139ZM30.0871 41.8308H33.3153V43.3898C32.2823 43.9095 31.1201 43.9095 30.0871 43.3898V41.8308Z" fill="#3A3A3A"/>
<path d="M11.2342 45.9139C12.2673 45.9139 13.3649 45.6169 14.2688 44.9488L14.7207 44.6518V39.6036H7.74774V44.6518L8.19969 44.9488C9.1036 45.6169 10.1366 45.9139 11.2342 45.9139ZM9.55555 41.8308H12.7838V43.3898C11.7507 43.9095 10.5886 43.9095 9.55555 43.3898V41.8308Z" fill="#3A3A3A"/>
</svg>
