<svg width="211" height="88" viewBox="0 0 211 88" fill="none" xmlns="http://www.w3.org/2000/svg">
<path d="M24 13V2H209V86H24V71" stroke="#FEBE19" stroke-width="4"/>
<path d="M23.5095 47.161L23 46.7101L22.4905 47.161C22.4905 47.161 19.0696 50.124 14.4114 49.4799L13.538 49.3511V53.409C13.538 61.525 22.7089 64.2304 22.7817 64.2948L23 64.3592L23.2184 64.2948C23.2912 64.2948 32.4621 61.525 32.4621 53.409V49.4155L31.5887 49.5443C27.0032 50.124 23.5823 47.161 23.5095 47.161ZM31.0064 53.409C31.0064 59.9791 24.3829 62.5556 23 63.0065C21.6899 62.5556 14.9937 59.9147 14.9937 53.409V50.8325C18.9241 51.0902 21.8355 49.2866 23 48.4493C24.1646 49.2866 27.076 51.0902 31.0064 50.8325V53.409Z" fill="#FEBE19"/>
<path d="M21.5444 58.24L19.1425 56.1144L18.1235 57.0162L21.5444 60.0435L28.6045 53.7956L27.5855 52.8938L21.5444 58.24Z" fill="#FEBE19"/>
<path d="M46 56.6296H39.7405V55.3414C39.7405 54.6329 39.0854 54.0531 38.2848 54.0531H35.3734C35.3734 53.8599 35.3734 53.6667 35.3734 53.4734V52.7649H39.7405C40.5411 52.7649 41.1962 52.1852 41.1962 51.4767V28.2882C41.1962 27.5797 40.5411 27 39.7405 27H6.25949C5.45886 27 4.8038 27.5797 4.8038 28.2882V51.4767C4.8038 52.1852 5.45886 52.7649 6.25949 52.7649H10.6266V53.4734C10.6266 53.6667 10.6266 53.8599 10.6266 54.0531H7.71519C6.91456 54.0531 6.25949 54.6329 6.25949 55.3414V56.6296H0L1.81962 59.8502L0 63.0709H9.89874C10.6994 63.0709 11.3544 62.4911 11.3544 61.7826V60.4944H12.8101C16.3038 65.4541 22.7089 66.9356 22.8544 66.9356L23 67L23.1456 66.9356C23.2184 66.9356 29.6962 65.3897 33.1899 60.4944H34.6456V61.7826C34.6456 62.4911 35.3006 63.0709 36.1013 63.0709H46L44.1804 59.8502L46 56.6296ZM17.9051 28.2882H28.0949V33.8277L25.9114 31.8953L23 34.4718L20.0886 31.8953L17.9051 33.8277V28.2882ZM6.25949 51.4767V28.2882H16.4494V36.9195L20.0886 33.6989L23 36.2754L25.9114 33.6989L29.5506 36.9195V28.2882H39.7405V51.4767H35.3734V46.1948L34.3544 46.5813C28.3861 48.7713 23.7278 44.1981 23.5095 44.0048L22.9272 43.4251L22.3449 44.0048C22.2722 44.0692 17.5411 48.7713 11.5 46.5813L10.481 46.1948V51.4767H6.25949ZM9.89874 61.7826H2.32911L3.42089 59.8502L2.32911 57.9179H6.25949V59.2061C6.25949 59.9147 6.91456 60.4944 7.71519 60.4944H9.89874V61.7826ZM7.71519 59.2061V55.3414H10.7722C10.9905 56.8229 11.4272 58.0467 12.0095 59.2061H7.71519ZM23 65.6473C21.6171 65.2609 12.0823 62.4267 12.0823 53.4734V48.0628C17.3228 49.4799 21.5443 46.5169 23 45.2931C24.4557 46.5169 28.6772 49.4155 33.9177 48.0628V53.4734C33.9177 62.4911 24.5285 65.2609 23 65.6473ZM35.2278 55.3414H38.2848V59.2061H33.9905C34.5728 58.0467 35.0095 56.8229 35.2278 55.3414ZM43.6709 61.7826H36.1013V60.4944H38.2848C39.0854 60.4944 39.7405 59.9147 39.7405 59.2061V57.9179H43.6709L42.5791 59.8502L43.6709 61.7826Z" fill="#3A3A3A"/>
</svg>
