<svg width="186" height="100" viewBox="0 0 186 100" fill="none" xmlns="http://www.w3.org/2000/svg">
<path d="M82.7883 61.3456C82.7883 60.9031 82.6548 60.7557 82.197 60.6635C79.4119 60.2026 78.1529 58.7464 78.1529 56.0365C78.1529 43.0221 78.1529 30.0261 78.172 17.0116C78.172 15.9056 78.1148 14.818 77.9431 13.7303C76.1119 2.24591 62.0912 -3.35804 52.4199 3.55473C51.8285 3.97872 51.4852 4.05245 50.8366 3.5916C45.1139 -0.519197 37.312 -0.482329 31.6465 3.6469C31.0742 4.07089 30.7309 4.07089 30.1586 3.6469C24.3596 -0.463895 16.5958 -0.408592 10.8731 3.79438C10.3199 4.19993 9.99564 4.08932 9.53783 3.73907C6.90539 1.84036 3.94866 0.808056 0.667648 0.660584C0.0953782 0.64215 0 0.808056 0 1.28734C0.0190757 4.67921 0.0190757 8.07108 0.0190757 11.463C0.0190757 11.7763 0.0190757 11.9791 0.457816 12.0344C3.01395 12.3478 4.50185 14.4493 4.4637 17.0853C4.36832 23.7032 4.42555 30.321 4.42555 36.9388C4.42555 43.4645 4.42555 49.9717 4.42555 56.4974C4.42555 59.5759 5.30303 62.3963 7.03892 64.9771C12.2084 72.6088 22.7382 74.3969 30.3494 68.9035C30.75 68.6086 31.0361 68.4795 31.5321 68.8298C37.5027 73.1065 44.885 73.1434 50.8748 68.9404C51.4661 68.5164 51.8095 68.5533 52.3627 68.9588C57.8946 72.9775 65.6202 73.0512 71.2285 69.1247C72.0297 68.5533 72.4493 68.627 73.2314 69.1616C75.8639 70.9866 78.8206 71.982 82.1016 72.0373C82.5976 72.0558 82.8074 71.9452 82.8074 71.4106C82.7692 68.0556 82.7693 64.7006 82.7883 61.3456ZM25.0463 56.2578C25.0463 58.8201 23.1197 60.7372 20.6017 60.7557C18.0837 60.7741 16.1762 58.857 16.1762 56.2578C16.1571 49.6215 16.1762 42.9668 16.1762 36.3121H16.1571V16.6614C16.1571 14.2096 17.5305 12.4584 19.8005 12.0344C21.8416 11.6473 23.9399 12.7718 24.722 14.6705C24.9891 15.3157 25.0654 15.9793 25.0654 16.6614C25.0654 29.8602 25.0654 43.059 25.0463 56.2578ZM45.7243 56.0918C45.7243 58.4883 44.1411 60.3501 41.9664 60.6451C39.6964 60.94 37.6744 59.6865 37.0068 57.6034C36.816 56.9951 36.8542 56.3868 36.8351 55.7785C36.8351 49.2528 36.8351 42.7271 36.8351 36.2199C36.8351 29.5652 36.8351 22.9105 36.8351 16.2742C36.8351 14.1728 38.1895 12.5321 40.2305 12.0344C42.119 11.5736 44.2174 12.4768 45.1711 14.1543C45.5717 14.8733 45.7243 15.6659 45.7243 16.477C45.7243 29.6758 45.7243 42.8746 45.7243 56.0918ZM62.9496 60.5345C61.023 61.0137 58.9438 60.1105 57.9709 58.3408C57.5894 57.6772 57.4749 56.9582 57.4749 56.2024C57.4749 49.5293 57.4749 42.8377 57.4749 36.1646C57.4749 29.5468 57.4559 22.9289 57.494 16.3295C57.5131 13.7303 59.4397 11.8501 61.9768 11.9054C64.5329 11.9607 66.3642 13.8409 66.3642 16.4402C66.3642 29.6758 66.3642 42.8931 66.3642 56.1287C66.3642 58.3408 65.067 59.9999 62.9496 60.5345Z" fill="#76003E"/>
<path d="M84.982 57.4562C84.9057 57.4562 84.8294 57.4377 84.7913 57.3824C84.734 57.3271 84.715 57.2718 84.715 57.198C84.715 57.1242 84.734 57.0505 84.7913 57.0136C84.8485 56.9583 84.9057 56.9398 84.982 56.9398H87.996C88.0723 56.9398 88.1486 56.9583 88.1867 57.0136C88.244 57.0689 88.263 57.1242 88.263 57.198C88.263 57.2718 88.244 57.3455 88.1867 57.3824C88.1295 57.4377 88.0723 57.4562 87.996 57.4562H84.982ZM86.489 61.1629C86.4127 61.1629 86.3364 61.1445 86.2792 61.0892C86.2219 61.0338 86.2029 60.9601 86.2029 60.8863V56.9214H86.7942V60.8863C86.7942 60.9601 86.7751 61.0338 86.7179 61.0892C86.6416 61.1445 86.5653 61.1629 86.489 61.1629Z" fill="#76003E"/>
<path d="M89.1978 61.1644C89.1215 61.1644 89.0451 61.146 88.9879 61.0907C88.9307 61.0354 88.9116 60.9616 88.9116 60.8878V57.218C88.9116 57.1258 88.9307 57.0704 88.9879 57.0151C89.0451 56.9598 89.1215 56.9413 89.1978 56.9413C89.3122 56.9413 89.3885 56.9967 89.4648 57.0889L91.2198 60.5006H91.0481L92.7649 57.0889C92.8221 56.9967 92.9175 56.9413 93.032 56.9413C93.1083 56.9413 93.1846 56.9598 93.2418 57.0151C93.299 57.0704 93.3181 57.1442 93.3181 57.218V60.8878C93.3181 60.9616 93.2799 61.0354 93.2227 61.0907C93.1655 61.146 93.0892 61.1644 93.0129 61.1644C92.9366 61.1644 92.8603 61.146 92.803 61.0907C92.7458 61.0354 92.7267 60.9616 92.7267 60.8878V57.9925L92.8412 57.9741L91.3724 60.8694C91.3151 60.9616 91.2198 61.0169 91.1244 61.0169C91.0099 61.0169 90.9146 60.9616 90.8573 60.8509L89.4076 58.0294L89.522 58.011V60.9063C89.522 60.98 89.503 61.0538 89.4457 61.1091C89.3504 61.146 89.2741 61.1644 89.1978 61.1644Z" fill="#76003E"/>
<path d="M15.9854 85.4221C15.2033 84.9796 14.3258 84.7584 13.3148 84.7584C12.342 84.7584 11.4454 84.9796 10.6633 85.4221C9.88121 85.8645 9.25172 86.4728 8.7939 87.2286C8.33609 87.9844 8.10718 88.8508 8.10718 89.8278C8.10718 90.7864 8.31701 91.6528 8.75575 92.427C9.17542 93.2012 9.76676 93.7911 10.5107 94.2335C11.2547 94.676 12.094 94.8972 13.0287 94.8972C13.9634 94.8972 14.7837 94.6759 15.5085 94.252C16.0045 93.957 16.4051 93.6068 16.7675 93.1644V93.9939C16.7675 94.2335 16.8438 94.4363 17.0155 94.6022C17.1872 94.7681 17.397 94.8419 17.645 94.8419C17.9121 94.8419 18.1219 94.7681 18.2936 94.6022C18.4653 94.4363 18.5416 94.2335 18.5416 93.9939V89.8462C18.5416 88.8877 18.3127 88.0213 17.8548 87.247C17.3779 86.4728 16.7485 85.8645 15.9854 85.4221ZM16.3669 91.6343C16.0617 92.1689 15.6421 92.5929 15.127 92.9063C14.612 93.2197 14.0016 93.3671 13.3148 93.3671C12.6663 93.3671 12.0558 93.2197 11.5217 92.9063C10.9876 92.5929 10.5679 92.1689 10.2627 91.6343C9.95752 91.0997 9.80491 90.4914 9.80491 89.8278C9.80491 89.1457 9.95752 88.5374 10.2627 88.0028C10.5679 87.4682 10.9876 87.0442 11.5217 86.7309C12.0558 86.4175 12.6472 86.27 13.3148 86.27C14.0016 86.27 14.5929 86.4175 15.127 86.7309C15.6421 87.0442 16.0617 87.4682 16.3669 88.0028C16.6722 88.5374 16.8248 89.1457 16.8248 89.8278C16.8248 90.4914 16.6722 91.0997 16.3669 91.6343Z" fill="#76003E"/>
<path d="M26.0382 89.7172L29.51 86.0672C29.6626 85.9013 29.7198 85.7354 29.7008 85.5327C29.6817 85.3299 29.5672 85.1455 29.3955 84.9981C29.2429 84.869 29.0331 84.8137 28.7851 84.8322C28.5181 84.8506 28.3273 84.9428 28.1747 85.1087L24.6648 88.9245H23.1196V85.6986C23.1196 85.4405 23.0433 85.2377 22.8717 85.0718C22.7 84.9059 22.4901 84.8322 22.204 84.8322C21.956 84.8322 21.7462 84.9059 21.5936 85.0718C21.441 85.2377 21.3647 85.4405 21.3647 85.6986V93.9755C21.3647 94.2151 21.441 94.4179 21.5936 94.5838C21.7462 94.7497 21.937 94.8234 22.204 94.8234C22.4901 94.8234 22.7 94.7497 22.8717 94.5838C23.0433 94.4179 23.1196 94.2151 23.1196 93.9755V90.4914H24.474L28.3845 94.5838C28.5371 94.7313 28.747 94.805 29.014 94.805C29.2811 94.805 29.4909 94.7497 29.6435 94.6206C29.8152 94.4547 29.9106 94.2888 29.9106 94.0861C29.9106 93.8833 29.8343 93.7174 29.6817 93.5699L26.0382 89.7172Z" fill="#76003E"/>
<path d="M38.3611 87.5794C39.6773 86.8421 40.0588 85.9204 40.0588 84.9249C40.0588 83.1921 38.59 81.7911 36.3772 81.7911C33.3442 81.7911 31.6465 83.9848 31.6465 87.5979V89.9574C31.6465 93.5152 33.7067 95.0452 36.3963 95.0452C39.1241 95.0452 40.9745 93.3124 40.9745 91.0082C40.9745 89.2938 39.9253 88.0218 38.3611 87.5794ZM36.32 83.5239C37.4645 83.5239 38.0559 84.3535 38.0559 85.1093C38.0559 85.9019 37.6553 86.7868 36.0148 87.1186L33.6685 87.5241C33.6685 84.63 34.794 83.5239 36.32 83.5239ZM36.3772 93.2756C34.7367 93.2756 33.6876 92.3538 33.6876 90.0127V89.1648L36.0911 88.7592C37.9605 88.4458 38.9334 89.5703 38.9334 90.9529C38.9334 92.317 37.9987 93.2756 36.3772 93.2756Z" fill="#76003E"/>
<path d="M50.7031 85.4221C49.921 84.9796 49.0435 84.7584 48.0325 84.7584C47.0596 84.7584 46.1631 84.9796 45.381 85.4221C44.5989 85.8645 43.9694 86.4728 43.5116 87.2286C43.0537 87.9844 42.8248 88.8508 42.8248 89.8278C42.8248 90.7864 43.0347 91.6528 43.4734 92.427C43.8931 93.2012 44.4844 93.7911 45.2284 94.2335C45.9723 94.676 46.8116 94.8972 47.7463 94.8972C48.6811 94.8972 49.5013 94.6759 50.2262 94.252C50.7221 93.957 51.1227 93.6068 51.4852 93.1644V93.9939C51.4852 94.2335 51.5615 94.4363 51.7332 94.6022C51.9048 94.7681 52.1147 94.8419 52.3627 94.8419C52.6297 94.8419 52.8395 94.7681 53.0112 94.6022C53.1829 94.4363 53.2592 94.2335 53.2592 93.9939V89.8462C53.2592 88.8877 53.0303 88.0213 52.5725 87.247C52.0956 86.4728 51.4852 85.8645 50.7031 85.4221ZM51.0846 91.6343C50.7794 92.1689 50.3597 92.5929 49.8447 92.9063C49.3296 93.2197 48.7192 93.3671 48.0325 93.3671C47.3839 93.3671 46.7735 93.2197 46.2394 92.9063C45.7053 92.5929 45.2856 92.1689 44.9804 91.6343C44.6752 91.0997 44.5226 90.4914 44.5226 89.8278C44.5226 89.1457 44.6752 88.5374 44.9804 88.0028C45.2856 87.4682 45.7053 87.0442 46.2394 86.7309C46.7735 86.4175 47.3648 86.27 48.0325 86.27C48.7192 86.27 49.3106 86.4175 49.8447 86.7309C50.3597 87.0442 50.7794 87.4682 51.0846 88.0028C51.3898 88.5374 51.5424 89.1457 51.5424 89.8278C51.5615 90.4914 51.3898 91.0997 51.0846 91.6343Z" fill="#76003E"/>
<path d="M68.9204 85.2193C68.3672 84.9059 67.7186 84.74 66.9937 84.74C66.1925 84.74 65.4677 84.9059 64.8382 85.2561C64.3613 85.5142 63.9607 85.846 63.6555 86.2516C63.3694 85.8092 63.0069 85.4773 62.5491 85.2193C61.9959 84.9059 61.3473 84.74 60.6225 84.74C60.5843 84.74 60.5271 84.74 60.4889 84.74C59.7641 84.74 58.9247 84.9059 58.3715 85.2193C57.8183 85.5327 57.3796 85.9935 57.0553 86.5834C56.7501 87.1733 56.5784 87.8922 56.5784 88.7402V93.9755C56.5784 94.2151 56.6547 94.4179 56.8264 94.5838C56.9981 94.7497 57.2079 94.8234 57.475 94.8234C57.723 94.8234 57.9328 94.7497 58.1045 94.5838C58.2762 94.4179 58.3525 94.2151 58.3525 93.9755V88.7402C58.3525 87.9475 58.5623 87.3392 58.982 86.9336C59.3825 86.5465 59.9167 86.3438 60.5462 86.3253C61.1947 86.3253 61.5381 86.5097 61.9578 86.9336C62.3774 87.3576 62.5873 87.966 62.5873 88.7402V93.9755C62.5873 94.2151 62.6636 94.4179 62.8352 94.5838C63.0069 94.7497 63.2167 94.8234 63.4838 94.8234C63.7509 94.8234 63.9607 94.7497 64.1133 94.5838C64.2659 94.4179 64.3422 94.2151 64.3422 93.9755V88.7771C64.3422 88.0397 64.5711 87.4498 65.0099 86.9889C65.4486 86.5281 66.0209 86.2885 66.7267 86.2885C67.3943 86.2885 67.9284 86.4912 68.3481 86.9152C68.7678 87.3392 68.9776 87.9475 68.9776 88.7217V93.957C68.9776 94.1967 69.0539 94.3994 69.2256 94.5653C69.3972 94.7313 69.6071 94.805 69.8551 94.805C70.1221 94.805 70.332 94.7313 70.5036 94.5653C70.6753 94.3994 70.7516 94.1967 70.7516 93.957V88.7217C70.7516 87.8738 70.599 87.1733 70.2747 86.565C69.9123 85.9751 69.4735 85.5327 68.9204 85.2193Z" fill="#76003E"/>
<path d="M81.2623 85.4036C80.4802 84.9796 79.5837 84.7584 78.5726 84.7584C77.5616 84.7584 76.6651 84.9796 75.883 85.4036C75.1009 85.8276 74.4714 86.4359 74.0326 87.1917C73.5939 87.9475 73.365 88.8324 73.365 89.8278C73.365 90.8048 73.5939 91.6896 74.0326 92.4454C74.4714 93.2012 75.1009 93.8096 75.883 94.2335C76.6651 94.6575 77.5616 94.8787 78.5726 94.8787C79.5837 94.8787 80.4993 94.6575 81.2814 94.2335C82.0635 93.8096 82.6739 93.2012 83.1317 92.4454C83.5705 91.6896 83.7994 90.8048 83.7994 89.8278C83.7994 88.8324 83.5705 87.9475 83.1127 87.1917C82.6548 86.4359 82.0444 85.8276 81.2623 85.4036ZM81.6438 91.6528C81.3386 92.1874 80.919 92.5929 80.4039 92.9063C79.8698 93.2197 79.2784 93.3671 78.5917 93.3671C77.905 93.3671 77.3137 93.2197 76.7795 92.9063C76.2454 92.6113 75.8448 92.1874 75.5396 91.6528C75.2344 91.1182 75.0818 90.5099 75.0818 89.8278C75.0818 89.1457 75.2344 88.519 75.5396 87.9844C75.8448 87.4498 76.2645 87.0258 76.7795 86.7309C77.3137 86.4359 77.905 86.27 78.5917 86.27C79.2784 86.27 79.8698 86.4175 80.4039 86.7309C80.938 87.0442 81.3386 87.4498 81.6438 87.9844C81.949 88.519 82.1016 89.1273 82.1016 89.8278C82.1016 90.5283 81.93 91.1366 81.6438 91.6528Z" fill="#76003E"/>
<path d="M94.5389 85.4221C93.7568 84.9796 92.8603 84.7584 91.8493 84.7584C90.8764 84.7584 89.9989 84.9796 89.2168 85.4221C88.4347 85.8645 87.8243 86.4544 87.3474 87.2286C86.8896 88.0028 86.6607 88.8508 86.6416 89.8278V98.2337C86.6416 98.4918 86.7179 98.6946 86.8896 98.8605C87.0613 99.0264 87.2711 99.1001 87.5382 99.1001C87.8052 99.1001 88.015 99.0264 88.1867 98.8605C88.3584 98.6946 88.4347 98.4918 88.4347 98.2337V93.1644C88.8544 93.699 89.3885 94.1229 90.0371 94.4363C90.6856 94.7497 91.3914 94.8972 92.1735 94.8972C93.1082 94.8972 93.9476 94.676 94.6915 94.2335C95.4355 93.7911 96.0268 93.2012 96.4656 92.427C96.9043 91.6528 97.1141 90.8048 97.1141 89.8278C97.1141 88.8508 96.8852 87.9844 96.4274 87.2286C95.9505 86.4728 95.321 85.8645 94.5389 85.4221ZM94.9204 91.6343C94.6152 92.1689 94.1956 92.5929 93.6614 92.9063C93.1273 93.2197 92.536 93.3671 91.8683 93.3671C91.2007 93.3671 90.6093 93.2197 90.0752 92.9063C89.5411 92.6113 89.1405 92.1874 88.8353 91.6343C88.5301 91.0998 88.3775 90.4914 88.3775 89.8278C88.3775 89.1457 88.5301 88.5374 88.8353 88.0028C89.1405 87.4682 89.5602 87.0443 90.0752 86.7309C90.6093 86.4175 91.2007 86.27 91.8683 86.27C92.536 86.27 93.1273 86.4175 93.6614 86.7309C94.1956 87.0443 94.6152 87.4682 94.9204 88.0028C95.2256 88.5374 95.3783 89.1457 95.3783 89.8278C95.3783 90.4914 95.2256 91.0998 94.9204 91.6343Z" fill="#76003E"/>
<path d="M101.063 84.8322C100.796 84.8322 100.586 84.9059 100.414 85.0718C100.243 85.2377 100.166 85.4405 100.166 85.6986V93.957C100.166 94.2151 100.243 94.4179 100.414 94.5838C100.586 94.7497 100.796 94.8234 101.063 94.8234C101.33 94.8234 101.54 94.7497 101.711 94.5838C101.883 94.4179 101.959 94.2151 101.959 93.957V85.6986C101.959 85.4405 101.883 85.2377 101.711 85.0718C101.54 84.9059 101.33 84.8322 101.063 84.8322Z" fill="#76003E"/>
<path d="M101.063 80.8488C100.738 80.8488 100.471 80.9594 100.243 81.1623C100.014 81.3836 99.8992 81.6418 99.8992 81.9737C99.8992 82.2872 100.014 82.5454 100.243 82.7667C100.471 82.988 100.758 83.0986 101.063 83.0986C101.387 83.0986 101.673 82.988 101.902 82.7667C102.131 82.5454 102.245 82.2688 102.245 81.9737C102.245 81.6418 102.131 81.3651 101.902 81.1623C101.654 80.9594 101.387 80.8488 101.063 80.8488Z" fill="#76003E"/>
<path d="M112.203 84.8322H108.903C108.178 84.8322 107.549 84.9796 106.995 85.2746C106.442 85.5695 106.003 85.9566 105.679 86.4728C105.355 86.9705 105.202 87.5604 105.202 88.2056C105.202 88.7955 105.336 89.3301 105.622 89.7909C105.908 90.2518 106.309 90.602 106.805 90.8601C106.976 90.9523 107.148 91.0076 107.339 91.0629L105.317 93.5699C105.183 93.7358 105.126 93.9017 105.107 94.1045C105.088 94.3073 105.183 94.4732 105.374 94.6391C105.526 94.7681 105.736 94.8419 106.022 94.8603C106.309 94.8787 106.557 94.7497 106.747 94.5101L109.303 91.4316H111.345V93.957C111.345 94.2151 111.421 94.4179 111.593 94.5838C111.764 94.7497 111.955 94.8234 112.203 94.8234C112.47 94.8234 112.68 94.7497 112.832 94.5838C112.985 94.4179 113.08 94.2335 113.08 93.9755V85.6986C113.08 85.4405 113.004 85.2377 112.832 85.0718C112.68 84.9059 112.47 84.8322 112.203 84.8322ZM111.364 90.0121H108.903C108.369 90.0121 107.892 89.8462 107.491 89.5144C107.091 89.1826 106.9 88.7402 106.9 88.1872C106.9 87.671 107.091 87.247 107.491 86.9152C107.892 86.5834 108.35 86.4175 108.903 86.4175H111.364V90.0121Z" fill="#76003E"/>
<path d="M134.827 85.2193C134.273 84.9059 133.625 84.74 132.9 84.74C132.099 84.74 131.374 84.9059 130.744 85.2561C130.268 85.5142 129.867 85.846 129.562 86.2516C129.276 85.8092 128.913 85.4773 128.455 85.2193C127.902 84.9059 127.254 84.74 126.529 84.74C125.785 84.74 125.117 84.9059 124.545 85.2561C124.278 85.4036 124.049 85.6064 123.82 85.8092V85.717C123.82 85.4589 123.744 85.2561 123.572 85.0902C123.4 84.9243 123.191 84.8506 122.923 84.8506C122.656 84.8506 122.447 84.9243 122.275 85.0902C122.103 85.2561 122.027 85.4589 122.027 85.717V93.9755C122.027 94.2151 122.103 94.4179 122.275 94.5838C122.447 94.7497 122.656 94.8234 122.923 94.8234C123.191 94.8234 123.4 94.7497 123.572 94.5838C123.744 94.4179 123.82 94.2151 123.82 93.9755V88.7402C123.82 88.0213 124.049 87.4314 124.507 86.9705C124.965 86.5097 125.537 86.2885 126.224 86.2885C126.891 86.2885 127.425 86.4912 127.845 86.9152C128.265 87.3392 128.474 87.9475 128.474 88.7217V93.957C128.474 94.1967 128.551 94.3994 128.722 94.5653C128.894 94.7313 129.104 94.805 129.371 94.805C129.638 94.805 129.848 94.7313 130.001 94.5653C130.153 94.3994 130.229 94.1967 130.229 93.957V88.7586C130.229 88.0213 130.458 87.4314 130.897 86.9705C131.336 86.5097 131.908 86.27 132.614 86.27C133.282 86.27 133.816 86.4728 134.235 86.8968C134.655 87.3208 134.865 87.9291 134.865 88.7033V93.9386C134.865 94.1782 134.941 94.381 135.113 94.5469C135.284 94.7128 135.494 94.7866 135.742 94.7866C136.009 94.7866 136.219 94.7128 136.391 94.5469C136.563 94.381 136.639 94.1782 136.639 93.9386V88.7033C136.639 87.8553 136.486 87.1549 136.162 86.5465C135.819 85.9751 135.38 85.5327 134.827 85.2193Z" fill="#76003E"/>
<path d="M146.825 85.3852C146.119 84.9612 145.28 84.7584 144.307 84.7584C143.334 84.7584 142.457 84.9796 141.694 85.4036C140.931 85.8276 140.34 86.4359 139.901 87.1917C139.481 87.9475 139.252 88.8324 139.252 89.8278C139.252 90.8048 139.481 91.6896 139.939 92.4454C140.397 93.2012 141.026 93.8096 141.827 94.2335C142.629 94.6575 143.544 94.8787 144.593 94.8787C145.166 94.8787 145.776 94.7681 146.425 94.5653C147.073 94.3441 147.588 94.0861 148.008 93.7543C148.218 93.6068 148.294 93.4409 148.294 93.2381C148.275 93.0353 148.18 92.851 147.97 92.6851C147.817 92.556 147.646 92.5007 147.436 92.5192C147.226 92.5192 147.054 92.5929 146.863 92.7035C146.596 92.9063 146.253 93.0722 145.833 93.2197C145.414 93.3671 144.994 93.4409 144.574 93.4409C143.849 93.4409 143.201 93.2934 142.648 92.98C142.094 92.6666 141.656 92.2427 141.331 91.7081C141.103 91.321 140.95 90.897 140.893 90.4361H148.218C148.466 90.4361 148.657 90.3624 148.809 90.2333C148.962 90.0859 149.038 89.92 149.038 89.6988C149.038 88.7402 148.847 87.8922 148.466 87.1549C148.084 86.3806 147.55 85.8092 146.825 85.3852ZM142.457 86.6756C142.972 86.3622 143.601 86.2147 144.326 86.2147C144.975 86.2147 145.547 86.3622 146.005 86.6571C146.463 86.9521 146.825 87.3392 147.073 87.8553C147.245 88.224 147.359 88.6111 147.417 89.0536H140.912C140.969 88.6664 141.083 88.3162 141.255 87.9844C141.522 87.4129 141.923 86.9889 142.457 86.6756Z" fill="#76003E"/>
<path d="M160.541 86.6755C160.312 86.3253 160.045 86.0304 159.72 85.7538C159.492 85.5511 159.224 85.3667 158.938 85.2192C158.252 84.869 157.469 84.6847 156.592 84.6847C155.753 84.6847 155.009 84.8506 154.341 85.2008C153.673 85.5511 153.139 86.0303 152.758 86.6202C152.376 87.1917 152.186 87.8553 152.166 88.5743C152.128 88.8323 152.109 89.0904 152.109 89.3669V93.9386C152.109 94.1782 152.186 94.381 152.357 94.5469C152.529 94.7128 152.739 94.7865 152.987 94.7865C153.235 94.7865 153.445 94.7128 153.616 94.5469C153.788 94.381 153.864 94.1782 153.864 93.9386V89.3669C153.864 88.6664 153.998 88.0765 154.265 87.6157C154.532 87.1548 154.913 86.823 155.371 86.6018C155.81 86.3806 156.325 86.27 156.878 86.27C157.222 86.3253 157.565 86.4175 157.851 86.5649C158.328 86.7861 158.69 87.1364 158.957 87.5788C159.224 88.0397 159.358 88.6111 159.358 89.3301V93.9017C159.358 94.1413 159.434 94.3441 159.606 94.51C159.778 94.6759 159.987 94.7497 160.235 94.7497C160.483 94.7497 160.693 94.6759 160.865 94.51C161.037 94.3441 161.113 94.1413 161.113 93.9017V89.3301C161.113 89.0351 161.094 88.7586 161.056 88.5005C161.075 87.8369 160.884 87.2286 160.541 86.6755Z" fill="#76003E"/>
<path d="M184.614 87.2286C184.156 86.4544 183.527 85.8645 182.745 85.4221C181.963 84.9796 181.085 84.7584 180.074 84.7584C179.101 84.7584 178.205 84.9796 177.423 85.4221C176.641 85.8645 176.011 86.4728 175.553 87.2286C175.095 87.9844 174.867 88.8508 174.867 89.8278C174.867 90.7864 175.076 91.6528 175.515 92.427C175.935 93.2012 176.526 93.7911 177.27 94.2335C178.014 94.676 178.853 94.8972 179.788 94.8972C180.723 94.8972 181.543 94.6759 182.268 94.252C182.764 93.957 183.164 93.6068 183.527 93.1644V93.9939C183.527 94.2335 183.603 94.4363 183.775 94.6022C183.947 94.7681 184.156 94.8419 184.404 94.8419C184.671 94.8419 184.881 94.7681 185.053 94.6022C185.225 94.4363 185.301 94.2335 185.301 93.9939V89.8462C185.301 88.8692 185.072 88.0028 184.614 87.2286ZM183.145 91.6343C182.84 92.1689 182.42 92.5929 181.905 92.9063C181.39 93.2197 180.78 93.3671 180.093 93.3671C179.445 93.3671 178.853 93.2197 178.3 92.9063C177.766 92.5929 177.346 92.1689 177.041 91.6343C176.736 91.0997 176.583 90.4914 176.583 89.8278C176.583 89.1457 176.736 88.5374 177.041 88.0028C177.346 87.4682 177.766 87.0442 178.3 86.7309C178.834 86.4175 179.426 86.27 180.093 86.27C180.78 86.27 181.371 86.4175 181.905 86.7309C182.42 87.0442 182.84 87.4682 183.145 88.0028C183.451 88.5374 183.603 89.1457 183.603 89.8278C183.603 90.4914 183.451 91.0997 183.145 91.6343Z" fill="#76003E"/>
<path d="M173.264 86.9521C173.054 86.6388 172.806 86.3438 172.52 86.1042C172.253 85.8645 171.967 85.6618 171.662 85.4958C170.975 85.1272 170.193 84.9613 169.315 84.9613C168.476 84.9613 167.732 85.1272 167.064 85.4774C166.569 85.7355 166.149 86.0673 165.805 86.4544C165.691 86.5835 165.577 86.7309 165.481 86.8968C165.176 87.3577 164.985 87.8738 164.909 88.4453C164.89 88.5743 164.852 88.9799 164.852 89.0536C164.833 89.2564 164.814 91.8925 164.814 91.9478C164.756 92.9985 164.031 93.4409 162.811 93.4778C162.734 93.4778 162.544 93.4962 162.467 93.5515C162.391 93.6068 162.162 93.7727 162.143 94.2151C162.086 95.4134 164.566 95.0447 165.004 94.7866C165.653 94.3811 166.149 93.7912 166.397 93.0907C166.492 92.8142 166.569 92.5192 166.588 92.2058C166.607 92.0952 166.588 89.6804 166.588 89.6804C166.588 88.9799 166.721 88.39 166.988 87.9291C167.255 87.4683 167.637 87.1365 168.095 86.9153C168.533 86.6941 169.048 86.5835 169.602 86.5835C169.945 86.6388 170.288 86.7309 170.574 86.8784C171.051 87.0996 171.414 87.4499 171.681 87.8923C171.948 88.3531 172.081 88.9246 172.081 89.6435V94.1967C172.081 94.4364 172.158 94.6391 172.329 94.805C172.501 94.9709 172.711 95.0447 172.959 95.0447C173.207 95.0447 173.417 94.9709 173.588 94.805C173.76 94.6391 173.836 94.4364 173.836 94.1967V89.6251C173.836 89.3301 173.817 89.0352 173.779 88.7771C173.798 88.095 173.607 87.4867 173.264 86.9521Z" fill="#76003E"/>
</svg>
