<svg width="166" height="161" viewBox="0 0 166 161" fill="none" xmlns="http://www.w3.org/2000/svg">
<path d="M55.873 37.2439H59.4524V46.7554C59.4524 48.2247 60.7619 49.3846 62.4206 49.462C64.0794 49.462 65.3889 48.302 65.4762 46.8328V45.2862H99.7857V46.8328C99.7857 48.302 101.095 49.462 102.754 49.5393C104.413 49.5393 105.722 48.3794 105.81 46.9101V37.2439H109.127C109.563 37.2439 110 36.9345 110 36.4706C110 36.0066 109.651 35.6973 109.127 35.6973H55.873C55.4365 35.6973 55 36.0066 55 36.4706C55 36.9345 55.3492 37.2439 55.873 37.2439ZM101.532 37.2439H104.063V46.7554C104.063 47.3741 103.452 47.9154 102.754 47.9154C102.056 47.9154 101.444 47.3741 101.444 46.7554V37.2439H101.532ZM65.4762 37.2439H99.7857V43.7396H65.4762V37.2439ZM61.1984 37.2439H63.7302V46.7554C63.7302 47.3741 63.119 47.9154 62.4206 47.9154C61.7222 47.9154 61.1111 47.3741 61.1111 46.7554L61.1984 37.2439Z" fill="black"/>
<path d="M61.8968 34.228H103.103C106.857 34.228 110 31.5214 110 28.1188C110 24.7162 106.944 22.0095 103.103 22.0095H61.8968C58.1429 22.0095 55 24.7162 55 28.1188C55 31.5214 58.0556 34.228 61.8968 34.228ZM61.8968 23.5562H103.103C105.984 23.5562 108.254 25.5668 108.254 28.1188C108.254 30.6707 105.984 32.6814 103.103 32.6814H61.8968C59.0159 32.6814 56.746 30.6707 56.746 28.1188C56.746 25.5668 59.0159 23.5562 61.8968 23.5562Z" fill="black"/>
<path d="M62.3333 31.5985C64.4286 31.5985 66.1746 30.0519 66.1746 28.196C66.1746 26.3401 64.4286 24.7935 62.3333 24.7935C60.2381 24.7935 58.492 26.3401 58.492 28.196C58.4047 30.0519 60.1508 31.5985 62.3333 31.5985ZM62.3333 26.2627C63.5556 26.2627 64.5159 27.1134 64.5159 28.196C64.5159 29.2786 63.5556 30.1292 62.3333 30.1292C61.1111 30.1292 60.1508 29.2786 60.1508 28.196C60.1508 27.1134 61.1111 26.2627 62.3333 26.2627Z" fill="black"/>
<path d="M102.667 31.5985C104.762 31.5985 106.508 30.0519 106.508 28.196C106.508 26.3401 104.762 24.7935 102.667 24.7935C100.571 24.7935 98.8254 26.3401 98.8254 28.196C98.8254 30.0519 100.484 31.5985 102.667 31.5985ZM102.667 26.2627C103.889 26.2627 104.849 27.1134 104.849 28.196C104.849 29.2786 103.889 30.1292 102.667 30.1292C101.444 30.1292 100.484 29.2786 100.484 28.196C100.484 27.1134 101.444 26.2627 102.667 26.2627Z" fill="black"/>
<path d="M94.0238 30.8254C95.6825 30.8254 96.9921 29.6655 96.9921 28.1962C96.9921 26.7269 95.6825 25.5669 94.0238 25.5669C92.3651 25.5669 91.0555 26.7269 91.0555 28.1962C91.0555 29.5881 92.3651 30.8254 94.0238 30.8254ZM94.0238 27.0362C94.7222 27.0362 95.3333 27.5775 95.3333 28.1962C95.3333 28.8148 94.7222 29.3561 94.0238 29.3561C93.3254 29.3561 92.7143 28.8148 92.7143 28.1962C92.8016 27.5002 93.3254 27.0362 94.0238 27.0362Z" fill="black"/>
<path d="M86.3413 30.8254C88 30.8254 89.3095 29.6655 89.3095 28.1962C89.3095 26.7269 88 25.5669 86.3413 25.5669C84.6826 25.5669 83.373 26.7269 83.373 28.1962C83.373 29.5881 84.6826 30.8254 86.3413 30.8254ZM86.3413 27.0362C87.0397 27.0362 87.6508 27.5775 87.6508 28.1962C87.6508 28.8148 87.0397 29.3561 86.3413 29.3561C85.6429 29.3561 85.0318 28.8148 85.0318 28.1962C85.0318 27.5002 85.6429 27.0362 86.3413 27.0362Z" fill="black"/>
<path d="M78.5714 30.8254C80.2301 30.8254 81.5397 29.6655 81.5397 28.1962C81.5397 26.7269 80.2301 25.5669 78.5714 25.5669C76.9127 25.5669 75.6031 26.7269 75.6031 28.1962C75.6031 29.5881 76.9127 30.8254 78.5714 30.8254ZM78.5714 27.0362C79.2698 27.0362 79.8809 27.5775 79.8809 28.1962C79.8809 28.8148 79.2698 29.3561 78.5714 29.3561C77.873 29.3561 77.2619 28.8148 77.2619 28.1962C77.3492 27.5002 77.873 27.0362 78.5714 27.0362Z" fill="black"/>
<path d="M70.8889 30.8254C72.5477 30.8254 73.8572 29.6655 73.8572 28.1962C73.8572 26.7269 72.5477 25.5669 70.8889 25.5669C69.2302 25.5669 67.9207 26.7269 67.9207 28.1962C67.9207 29.5881 69.2302 30.8254 70.8889 30.8254ZM70.8889 27.0362C71.5873 27.0362 72.1984 27.5775 72.1984 28.1962C72.1984 28.8148 71.5873 29.3561 70.8889 29.3561C70.1905 29.3561 69.5794 28.8148 69.5794 28.1962C69.5794 27.5002 70.1905 27.0362 70.8889 27.0362Z" fill="black"/>
<path d="M102.056 3.06356H99.7857C98.4762 2.05827 97.254 1.1303 97.254 1.1303C96.9921 0.898313 96.6428 0.743652 96.2063 0.743652H96.0317C95.5079 0.743652 95.0714 0.898313 94.7222 1.28496L88.9603 6.93008C88.873 7.00741 88.7857 7.16207 88.6984 7.2394L86.8651 7.93538C86.5159 8.09004 86.254 8.39936 86.3413 8.78601L86.7778 10.7193C86.8651 11.1059 87.3016 11.4152 87.7381 11.3379C88.1746 11.2606 88.5238 10.8739 88.4365 10.4873L88.1746 9.17266L88.873 8.94067C88.9603 9.018 89.0476 9.17266 89.2222 9.24999L91.6667 10.8739V11.5699L90.1825 11.8019C89.746 11.8792 89.3968 12.2659 89.4841 12.6525C89.5714 13.0392 89.9206 13.2712 90.3571 13.2712C90.4444 13.2712 90.4444 13.2712 90.5317 13.2712L92.7143 12.9619C93.1508 12.8845 93.4127 12.5752 93.4127 12.2659V11.4152C93.7619 11.3379 94.1111 11.1833 94.373 10.9513L96.3809 8.94067L97.6032 9.79131V14.8951L93.8492 19.3803H87.7381V15.9777C87.7381 14.7405 86.6032 13.6578 85.2063 13.6578H80.0555C78.6587 13.6578 77.5238 14.6631 77.5238 15.9777V19.3803H71.1508L67.6587 14.9724V9.86864L69.0556 8.86334L71.2381 10.9513C71.4127 11.1059 71.6746 11.2606 71.9365 11.3379V12.2659C71.9365 12.6525 72.2857 12.8845 72.6349 12.9619L74.8175 13.2712C74.9048 13.2712 74.9048 13.2712 74.9921 13.2712C75.4286 13.2712 75.8651 12.9619 75.8651 12.4979C75.8651 12.1112 75.6032 11.8019 75.1667 11.7246L73.4206 11.5699V11.0286L76.2143 9.17266C76.3016 9.09533 76.3889 9.018 76.4762 8.94067L76.8254 9.09533L76.5635 10.4099C76.4762 10.7966 76.8254 11.1833 77.2619 11.2606C77.6984 11.3379 78.1349 11.0286 78.2222 10.6419L78.6587 8.70868C78.746 8.32203 78.4841 8.01271 78.1349 7.85805L76.8254 7.4714C76.7381 7.2394 76.6508 7.08474 76.4762 6.93008L70.4524 1.20763C70.1032 0.898313 69.6667 0.743652 69.1429 0.743652H68.9682C68.5317 0.743652 68.1825 0.898313 67.8333 1.05297C67.8333 1.05297 66.5238 2.05827 65.2143 2.98623H62.9444C58.5794 3.06356 55 6.15678 55 10.0233V20.1536C55 20.5402 55.3492 20.9269 55.873 20.9269H79.0079V15.9777C79.0079 15.5911 79.3571 15.2044 79.8809 15.2044H85.0317C85.4682 15.2044 85.9048 15.5138 85.9048 15.9777V20.9269H109.127C109.563 20.9269 110 20.6176 110 20.1536V20.0762C110 19.9989 110.087 19.9216 110.087 19.7669V10.0233C110 6.15678 106.421 3.06356 102.056 3.06356ZM68.9682 2.29026H69.2302L75.254 8.01271L72.373 9.94597L69.1429 6.85275L65.4762 9.32732C64.6032 9.86864 63.3809 9.71398 62.7698 9.018C62.1587 8.32203 62.246 7.16207 63.119 6.54343L68.9682 2.29026ZM61.2857 18.5296L61.8968 19.3803H56.746V10.0233C56.746 7.00741 59.5397 4.53284 62.9444 4.53284H63.2063L61.9841 5.38347C61.373 5.84746 60.5873 6.77542 60.5873 7.54873V16.8284C60.5873 17.447 60.8492 17.9883 61.2857 18.5296ZM62.3333 10.7193C63.3809 11.3379 64.6905 11.4152 65.7381 10.9513V13.5805C65.3016 13.4258 64.7778 13.2712 64.254 13.2712C63.5556 13.2712 62.8571 13.4258 62.3333 13.8125V10.7193ZM63.8175 19.3803L62.6825 17.679C61.9841 16.8284 62.246 15.7457 63.119 15.1271C63.119 15.1271 63.119 15.1271 63.2063 15.1271C64.0794 14.6631 65.2143 14.8178 65.8254 15.5911L68.7936 19.4576H63.8175V19.3803ZM96.119 6.77542L92.9762 9.86864L90.1825 7.93538L96.0317 2.29026H96.2063L101.881 6.62076C102.667 7.16207 102.841 8.16737 102.317 8.94067C101.794 9.71398 100.571 9.94597 99.6984 9.48199C99.6111 9.48199 99.6111 9.40465 99.5238 9.40465L96.119 6.77542ZM102.23 17.5243L100.833 19.3803H95.7698C96.9921 17.911 99 15.5138 99 15.5138C99.6111 14.8178 100.746 14.6631 101.619 15.1271C102.492 15.5911 102.754 16.5964 102.23 17.3697C102.317 17.447 102.317 17.447 102.23 17.5243ZM102.667 13.8125C101.619 13.2712 100.31 13.1938 99.2619 13.5805V10.8739C100.397 11.3379 101.706 11.2606 102.667 10.7193V13.8125ZM108.254 19.3803H102.929L103.627 18.375C104.063 17.8337 104.325 17.1377 104.325 16.4417V7.70339C104.325 7.4714 104.325 7.2394 104.238 7.08474C103.976 6.38877 103.54 5.77013 103.016 5.38347C103.016 5.38347 102.579 5.07415 101.881 4.53284H102.056C105.46 4.53284 108.254 7.00741 108.254 10.0233V19.3803Z" fill="#FEBE19"/>
<path d="M43 16H3V158H163V16H123" stroke="#FEBE19" stroke-width="5"/>
</svg>
