<svg width="204" height="88" viewBox="0 0 204 88" fill="none" xmlns="http://www.w3.org/2000/svg">
<path d="M16 13V2H202V86H16V71" stroke="#FEBE19" stroke-width="4"/>
<path d="M46.3986 46.6818L42.0915 45.911L40.0616 40.6442C39.319 38.803 37.2892 37.5184 35.0119 37.5184H31.5958V34.7779C31.5958 33.7931 30.7047 33.0223 29.566 33.0223H25.8034C26.0014 34.0072 25.6549 35.0349 24.9123 35.8056L19.1694 41.7147C18.4267 42.4855 17.2881 42.9136 16.1494 42.9136C15.0107 42.9136 13.872 42.4855 13.1294 41.7147L7.28749 35.8484C6.54487 35.0777 6.19832 34.05 6.39635 33.0652H3.02982C1.89114 33.0652 1 33.8359 1 34.8208V53.9611C1 54.9459 1.94065 55.7167 3.02982 55.7167H5.20816C5.20816 58.4999 7.83208 60.7266 11.0006 60.7266C14.1691 60.7266 16.793 58.4999 16.793 55.7167H32.2394C32.2394 58.4999 34.8633 60.7266 38.0318 60.7266C41.2003 60.7266 43.8242 58.4999 43.8242 55.7167H46.0521C47.1908 55.7167 48.0819 54.9459 48.0819 53.9611V48.3945C48.0324 47.581 47.3393 46.853 46.3986 46.6818ZM11.0501 58.0718C9.56485 58.0718 8.32715 57.0441 8.32715 55.7167C8.32715 54.4321 9.56485 53.3616 11.0501 53.3616C12.5353 53.3616 13.773 54.4321 13.773 55.7167C13.773 57.0013 12.5353 58.0718 11.0501 58.0718ZM31.6453 45.4828V40.1304H35.0614C36.0515 40.1304 36.8931 40.687 37.1902 41.4578L38.7249 45.44H31.6453V45.4828ZM38.0318 58.0718C36.4971 58.0718 35.3089 57.0441 35.3089 55.7167C35.3089 54.4321 36.4971 53.3616 38.0318 53.3616C39.5171 53.3616 40.7548 54.4321 40.7548 55.7167C40.7548 57.0013 39.5171 58.0718 38.0318 58.0718Z" stroke="#3A3A3A" stroke-width="2" stroke-miterlimit="10"/>
<path d="M15.6048 39.8735C15.9019 40.1732 16.3969 40.1732 16.694 39.8735L22.5359 34.0072C22.932 33.6218 22.5854 32.9796 21.9913 32.9796H18.9218V26.5995C18.9218 26.2569 18.6248 26 18.2287 26H14.1196C13.7235 26 13.4265 26.2569 13.4265 26.5995V32.9796H10.357C9.76291 32.9796 9.41635 33.6218 9.81241 34.0072L15.6048 39.8735Z" stroke="#FEBE19" stroke-width="2" stroke-miterlimit="10"/>
</svg>
