<svg width="209" height="88" viewBox="0 0 209 88" fill="none" xmlns="http://www.w3.org/2000/svg">
<path d="M20 13V2H207V86H20V71" stroke="#FEBE19" stroke-width="4"/>
<path d="M19.6029 62.3646H0.863858C0.398704 62.3646 0 61.9715 0 61.5128V58.1709C0 57.7122 0.398704 57.319 0.863858 57.319H19.6029C20.0681 57.319 20.4668 57.7122 20.4668 58.1709V61.5128C20.4668 61.9715 20.0681 62.3646 19.6029 62.3646ZM1.72772 60.6609H18.8055V58.9572H1.72772V60.6609Z" fill="#3A3A3A"/>
<path d="M17.9417 59.0228H2.59158C2.12643 59.0228 1.72772 58.6296 1.72772 58.1709V49.7834C1.72772 49.3247 2.12643 48.9315 2.59158 48.9315H17.9417C18.4068 48.9315 18.8055 49.3247 18.8055 49.7834V58.1709C18.7391 58.6296 18.4068 59.0228 17.9417 59.0228ZM3.38899 57.319H17.0114V50.5697H3.38899V57.319Z" fill="#3A3A3A"/>
<path d="M14.4862 50.5697H5.98056C5.5154 50.5697 5.1167 50.1766 5.1167 49.7179V47.1623C5.1167 44.4102 7.44247 42.1167 10.2334 42.1167C13.0243 42.1167 15.3501 44.4102 15.3501 47.1623V49.7179C15.3501 50.2421 14.9514 50.5697 14.4862 50.5697ZM6.84442 48.9315H13.6888V47.2278C13.6888 45.3931 12.1605 43.8859 10.2998 43.8859C8.43923 43.8859 6.91087 45.3931 6.91087 47.2278V48.9315H6.84442Z" fill="#3A3A3A"/>
<path d="M7.70829 44.7378C7.57539 44.7378 7.37604 44.6723 7.24314 44.6068C6.84444 44.3446 6.71153 43.8204 6.97734 43.4273L17.4765 27.0455C17.7423 26.6524 18.2739 26.5213 18.6726 26.7834C19.0713 27.0455 19.2042 27.5698 18.9384 27.9629L8.43925 44.3446C8.2399 44.5412 7.97409 44.7378 7.70829 44.7378Z" fill="#3A3A3A"/>
<path d="M14.4198 47.4245C14.2869 47.4245 14.154 47.4245 14.0875 47.3589C13.6888 47.1624 13.4895 46.7037 13.6888 46.245L21.4636 29.1424C21.6629 28.7493 22.1945 28.5527 22.5932 28.7493C22.9919 28.9459 23.1913 29.4045 22.9919 29.8632L15.2172 46.9003C15.0843 47.2279 14.752 47.4245 14.4198 47.4245Z" fill="#3A3A3A"/>
<path d="M21.3306 30.3874C19.0049 30.3874 17.0778 28.4871 17.0778 26.1937C17.0778 23.9003 19.0049 22 21.3306 22C23.6564 22 25.5835 23.9003 25.5835 26.1937C25.5835 28.5526 23.6564 30.3874 21.3306 30.3874ZM21.3306 23.7037C19.9352 23.7037 18.7391 24.8176 18.7391 26.2592C18.7391 27.6353 19.8687 28.8148 21.3306 28.8148C22.7261 28.8148 23.9222 27.7008 23.9222 26.2592C23.8558 24.8176 22.7261 23.7037 21.3306 23.7037Z" fill="#3A3A3A"/>
<path d="M37.6775 37.2684C37.4781 37.2684 37.2788 37.2028 37.1459 37.0718L24.188 26.8496C23.7893 26.5875 23.7893 26.0633 24.0551 25.6701C24.3209 25.3425 24.919 25.2769 25.2512 25.5391L38.2091 35.7613C38.6078 36.0234 38.6078 36.5476 38.342 36.9407C38.2091 37.1373 37.9433 37.2684 37.6775 37.2684Z" fill="#3A3A3A"/>
<path d="M34.953 44.7379C34.8866 44.7379 34.8201 44.7379 34.6872 44.6723C34.2221 44.5413 33.9563 44.0826 34.0892 43.6239L35.6175 38.3162L22.128 29.9943C21.7293 29.7322 21.5964 29.208 21.8622 28.8148C22.128 28.4217 22.6596 28.2906 23.0583 28.5527L37.0794 37.2023C37.4117 37.3989 37.5446 37.792 37.4781 38.1196L35.7504 44.0171C35.684 44.4758 35.3517 44.7379 34.953 44.7379Z" fill="#3A3A3A"/>
<path d="M5.98056 55.6159C5.5154 55.6159 5.1167 55.2227 5.1167 54.7639V53.0599C5.1167 52.6012 5.5154 52.2079 5.98056 52.2079C6.44572 52.2079 6.84442 52.6012 6.84442 53.0599V54.7639C6.84442 55.2882 6.44572 55.6159 5.98056 55.6159Z" fill="#FEBE19"/>
<path d="M9.36954 55.6159C8.90438 55.6159 8.50568 55.2227 8.50568 54.7639V53.0599C8.50568 52.6012 8.90438 52.2079 9.36954 52.2079C9.83469 52.2079 10.2334 52.6012 10.2334 53.0599V54.7639C10.2334 55.2882 9.83469 55.6159 9.36954 55.6159Z" fill="#FEBE19"/>
<path d="M35.6175 45C35.4182 45 35.2188 44.9345 35.0859 44.8034C34.6872 44.5413 34.6872 44.0171 34.953 43.6239L39.0065 38.5128C39.2723 38.1197 39.8039 38.1197 40.2026 38.3818C40.6013 38.6439 40.6013 39.1681 40.3355 39.5613L36.282 44.6723C36.0827 44.8689 35.8833 45 35.6175 45Z" fill="#FEBE19"/>
<path d="M35.2188 44.6068C35.0195 44.6723 34.8201 44.6723 34.6208 44.6068C34.1556 44.5413 33.9563 44.017 34.0227 43.5583L35.8169 37.3333C35.8833 36.8746 36.4149 36.678 36.8801 36.7435C37.3452 36.8091 37.5446 37.3333 37.4781 37.792L35.684 44.017C35.6175 44.3447 35.4846 44.5413 35.2188 44.6068Z" fill="#FEBE19"/>
<path d="M34.953 46.3766C34.0227 46.3766 33.2253 45.6557 33.2253 44.6726C33.2253 43.6896 34.0227 42.9686 34.953 42.9686C35.8833 42.9686 36.6807 43.6896 36.6807 44.6726C36.6807 45.6557 35.8833 46.3766 34.953 46.3766ZM34.953 44.6726C34.953 44.6726 34.953 44.7382 34.953 44.6726H35.8169H34.953Z" fill="#FEBE19"/>
<path d="M34.953 50.5697C34.7537 50.5697 34.4879 50.5042 34.355 50.3076C34.0227 49.98 34.0227 49.4558 34.355 49.1281L36.282 47.2279L34.5543 45.5242H32.3614V48.0797C32.3614 48.5384 31.9627 48.9316 31.4976 48.9316C31.0324 48.9316 30.6337 48.5384 30.6337 48.0797V44.7378C30.6337 44.2791 31.0324 43.886 31.4976 43.886H34.8866C35.0859 43.886 35.3517 43.9515 35.4846 44.1481L38.0762 46.7036C38.4084 47.0313 38.4084 47.5555 38.0762 47.8831L35.4846 50.4387C35.4182 50.5042 35.1524 50.5697 34.953 50.5697Z" fill="#FEBE19"/>
<path d="M38.4084 40.4786C37.0129 40.4786 35.8168 39.3646 35.8168 37.9231C35.8168 36.4815 36.9465 35.3676 38.4084 35.3676C39.8039 35.3676 41 36.4815 41 37.9231C41 39.3646 39.8039 40.4786 38.4084 40.4786ZM38.4084 37.1368C37.9433 37.1368 37.5446 37.5299 37.5446 37.9886C37.5446 38.4473 37.9433 38.8404 38.4084 38.8404C38.8736 38.8404 39.2723 38.4473 39.2723 37.9886C39.2723 37.5299 38.8736 37.1368 38.4084 37.1368Z" fill="#FEBE19"/>
</svg>
