<svg id="Слой_1" data-name="Слой 1" xmlns="http://www.w3.org/2000/svg" viewBox="0 0 11.32 347.37"><defs><style>.cls-1{fill:#e8e8e8;}.cls-2{fill:#76003e;opacity:0.8;}</style></defs><title>з вами працюють</title><path class="cls-1" d="M6.47,4.16l-4-3V0H8.76V1.6H4.87L8.76,4.54V5.76H2.47V4.16ZM7.39,15.7a1.33,1.33,0,0,0-.14-.57.9.9,0,0,0-.45-.37,3.36,3.36,0,0,0-.88-.25c-.39-.07-.89-.14-1.5-.22l-1.95-.21V9.67H8.76v1.6H3.82v1.4l.94.12a16.84,16.84,0,0,1,2,.35A3.92,3.92,0,0,1,8,13.67a1.71,1.71,0,0,1,.64.78,3.69,3.69,0,0,1,.21,1.15Zm.31,6.5a1.94,1.94,0,0,0-.14-.76,1.47,1.47,0,0,0-.38-.58.6.6,0,0,0-.46-.26H6a3.74,3.74,0,0,0-.17.62,3,3,0,0,0-.07.65,1.71,1.71,0,0,0,.29,1,.83.83,0,0,0,.71.39A.86.86,0,0,0,7.44,23,1.12,1.12,0,0,0,7.7,22.2Zm1.18.46a2.61,2.61,0,0,1-.14.85,2.5,2.5,0,0,1-.42.69,2.18,2.18,0,0,1-.64.45,1.94,1.94,0,0,1-1.61,0,2,2,0,0,1-.65-.56,2.67,2.67,0,0,1-.4-.85,3.35,3.35,0,0,1-.16-1.08,4.28,4.28,0,0,1,.07-.81,3.08,3.08,0,0,1,.21-.72H4.78a1.24,1.24,0,0,0-1,.36,1.42,1.42,0,0,0-.34,1,2.7,2.7,0,0,0,.18,1,4.81,4.81,0,0,0,.53,1l-1,.49a4.63,4.63,0,0,1-.81-2.62A3,3,0,0,1,3,19.74,2.42,2.42,0,0,1,5,19h2a.64.64,0,0,0,.36-.08.46.46,0,0,0,.12-.31H8.76a3.34,3.34,0,0,1,.08.71,1.07,1.07,0,0,1-.2.71.91.91,0,0,1-.54.3l-.35,0a2.74,2.74,0,0,1,.84,1A2.93,2.93,0,0,1,8.88,22.66Zm-4,9.68v-2.5H2.47V28.25H8.76v1.59H6.22v2.5H8.76v1.6H2.47v-1.6Zm.78,10a2.39,2.39,0,0,0,.77-.12A2.08,2.08,0,0,0,7,41.91a1.73,1.73,0,0,0,.4-.53,1.67,1.67,0,0,0,0-1.29,1.58,1.58,0,0,0-.4-.52,1.61,1.61,0,0,0-.6-.35,2.06,2.06,0,0,0-.76-.13,2.06,2.06,0,0,0-.76.13,1.79,1.79,0,0,0-.6.35,1.3,1.3,0,0,0-.38.52,1.46,1.46,0,0,0,0,1.29,1.55,1.55,0,0,0,.39.53,2.2,2.2,0,0,0,.6.35A2.33,2.33,0,0,0,5.63,42.38Zm3.25-1.65a3.5,3.5,0,0,1-.26,1.38,3.41,3.41,0,0,1-.71,1,3.43,3.43,0,0,1-1,.65A3.39,3.39,0,0,1,5.63,44a3.46,3.46,0,0,1-1.25-.22,3.22,3.22,0,0,1-1-.65,3,3,0,0,1-.72-1,3.33,3.33,0,0,1-.27-1.38,3.27,3.27,0,0,1,.27-1.36,2.86,2.86,0,0,1,.72-1,3.25,3.25,0,0,1,1-.66,3.46,3.46,0,0,1,1.25-.22,3.39,3.39,0,0,1,1.23.22,3.43,3.43,0,0,1,1,.65,3.32,3.32,0,0,1,.71,1A3.57,3.57,0,0,1,8.88,40.73ZM1.6,49.12H0V47.51H1.6Zm7.16,0H2.47V47.51H8.76ZM5.62,58.71a3.27,3.27,0,0,1-1.25-.23,3.11,3.11,0,0,1-1.74-1.7,3.4,3.4,0,0,1-.27-1.38,3.23,3.23,0,0,1,.45-1.75A2.76,2.76,0,0,1,4,52.56l.48,1.57a1.31,1.31,0,0,0-.53.54,1.54,1.54,0,0,0-.19.74,1.44,1.44,0,0,0,.15.65,1.41,1.41,0,0,0,.38.53,2,2,0,0,0,.59.35,2.35,2.35,0,0,0,.77.12,2.06,2.06,0,0,0,.76-.14,1.74,1.74,0,0,0,.6-.34,1.85,1.85,0,0,0,.4-.53,1.61,1.61,0,0,0-.08-1.43,1.26,1.26,0,0,0-.53-.52l.48-1.57A2.61,2.61,0,0,1,8.42,53.6a3.31,3.31,0,0,1,.46,1.79,3.57,3.57,0,0,1-.26,1.38,3.36,3.36,0,0,1-.71,1,3.28,3.28,0,0,1-2.29.9Zm-.53,4.64A1.66,1.66,0,0,0,4,63.88,1.55,1.55,0,0,0,3.53,65a1.58,1.58,0,0,0,.12.61A1.41,1.41,0,0,0,4,66.1a2,2,0,0,0,.49.36,1.88,1.88,0,0,0,.64.16ZM8.88,65a3.52,3.52,0,0,1-.25,1.37,3.24,3.24,0,0,1-.71,1.05,3.39,3.39,0,0,1-1,.67,3.51,3.51,0,0,1-2.5,0,2.89,2.89,0,0,1-1-.66,3,3,0,0,1-.72-1A3.45,3.45,0,0,1,2.36,65a3.32,3.32,0,0,1,.27-1.37,3,3,0,0,1,.71-1,2.91,2.91,0,0,1,1-.65,3.38,3.38,0,0,1,1.22-.22h.3l.24,0v4.86a1.69,1.69,0,0,0,.66-.18A1.51,1.51,0,0,0,7.28,66a1.62,1.62,0,0,0,.32-.52,1.72,1.72,0,0,0,.1-.6,1.87,1.87,0,0,0-.22-.9,1.26,1.26,0,0,0-.63-.58l.39-1.38a2.79,2.79,0,0,1,1.18,1.11A3.41,3.41,0,0,1,8.88,65ZM7.51,74.5a1.8,1.8,0,0,0-.62-1.18A2,2,0,0,0,5.62,73a1.94,1.94,0,0,0-1.25.38,1.85,1.85,0,0,0-.63,1.17ZM3.74,76.11a1.91,1.91,0,0,0,.62,1.22,1.9,1.9,0,0,0,1.26.4,2,2,0,0,0,1.28-.39,1.8,1.8,0,0,0,.62-1.23ZM2.42,74.5a4.24,4.24,0,0,1,.38-1.33,2.84,2.84,0,0,1,1.65-1.59,3.5,3.5,0,0,1,1.19-.2,3,3,0,0,1,2.16.81,3.71,3.71,0,0,1,1,2.31h2.5v1.61H8.83a3.77,3.77,0,0,1-1,2.37,3,3,0,0,1-2.18.82,3.36,3.36,0,0,1-1.2-.21,2.66,2.66,0,0,1-1-.61,3.25,3.25,0,0,1-.69-1,5,5,0,0,1-.37-1.38H0V74.5ZM5.63,87.32a2.39,2.39,0,0,0,.77-.12A1.87,1.87,0,0,0,7,86.85a1.73,1.73,0,0,0,.4-.53,1.67,1.67,0,0,0,0-1.29,1.68,1.68,0,0,0-.4-.52,1.61,1.61,0,0,0-.6-.35,2.29,2.29,0,0,0-1.52,0,1.79,1.79,0,0,0-.6.35,1.37,1.37,0,0,0-.38.52,1.46,1.46,0,0,0,0,1.29,1.55,1.55,0,0,0,.39.53,2,2,0,0,0,.6.35A2.33,2.33,0,0,0,5.63,87.32Zm3.25-1.64a3.57,3.57,0,0,1-.26,1.38,3.49,3.49,0,0,1-.71,1,3.25,3.25,0,0,1-1,.65A3.4,3.4,0,0,1,5.63,89a3.47,3.47,0,0,1-1.25-.23,3.11,3.11,0,0,1-1.75-1.69,3.4,3.4,0,0,1-.27-1.38,3.28,3.28,0,0,1,.27-1.37,2.82,2.82,0,0,1,.72-1,2.94,2.94,0,0,1,1-.66,3.27,3.27,0,0,1,1.25-.23,3.2,3.2,0,0,1,1.23.23,3.22,3.22,0,0,1,1,.64,3.25,3.25,0,0,1,.71,1A3.5,3.5,0,0,1,8.88,85.68ZM7.51,95.34a1.45,1.45,0,0,0-.15-.66,1.78,1.78,0,0,0-.42-.52,1.86,1.86,0,0,0-.62-.34,2.18,2.18,0,0,0-.72-.12,2,2,0,0,0-.73.13,1.84,1.84,0,0,0-.6.37,1.57,1.57,0,0,0-.39.56,1.51,1.51,0,0,0-.15.68,1.35,1.35,0,0,0,.09.47,1.38,1.38,0,0,0,.21.44,2,2,0,0,0,.34.37,1.27,1.27,0,0,0,.42.24H6.26a2.11,2.11,0,0,0,.9-.66A1.46,1.46,0,0,0,7.51,95.34Zm1.37-.54a2.58,2.58,0,0,1-.32,1.3,2.39,2.39,0,0,1-.9.86h3.66v1.61H2.47v-1.4H3.55a2.47,2.47,0,0,1-.86-.9A2.43,2.43,0,0,1,2.36,95a2.59,2.59,0,0,1,.27-1.18,2.75,2.75,0,0,1,.69-.92,3.09,3.09,0,0,1,1-.62,3.41,3.41,0,0,1,1.24-.22,3.88,3.88,0,0,1,1.29.2,3.18,3.18,0,0,1,1,.58,2.53,2.53,0,0,1,.7.86A2.4,2.4,0,0,1,8.88,94.8Zm-.12,7.67v1.6H3.86v2.31h4.9V108H2.47v-5.51Zm-1.26,22a.92.92,0,0,0-.22-.66.86.86,0,0,0-.66-.24.86.86,0,0,0-.66.25.88.88,0,0,0-.24.63v1.12H7.5Zm-5,2.7v-1.6h2v-1.22a2.85,2.85,0,0,1,.15-.94,2,2,0,0,1,.41-.77,1.79,1.79,0,0,1,.67-.5,2,2,0,0,1,.91-.19,2.35,2.35,0,0,1,.94.18,2,2,0,0,1,.67.49,2.23,2.23,0,0,1,.42.74,3,3,0,0,1,.13.93v2.88Zm6.29,5.31v1.6H3.86v2H2.47v-5.52H3.86v1.95ZM5.62,143.1a2.21,2.21,0,0,0,1.4-.37,1.41,1.41,0,0,0,0-2.1,2.29,2.29,0,0,0-1.4-.38,2.14,2.14,0,0,0-1.38.39,1.32,1.32,0,0,0-.46,1.05,1.22,1.22,0,0,0,.49,1A2.17,2.17,0,0,0,5.62,143.1Zm-.75,1.48a3.19,3.19,0,0,1-1-.35A2.93,2.93,0,0,1,3,143.6a2.56,2.56,0,0,1-.51-.87,3.15,3.15,0,0,1,.07-2.28,2.55,2.55,0,0,1,.68-.93,2.61,2.61,0,0,1,1-.6,3.73,3.73,0,0,1,1.32-.22,4,4,0,0,1,1.37.23,3.06,3.06,0,0,1,1,.62,2.82,2.82,0,0,1,.63.95,3.07,3.07,0,0,1,.22,1.19,3.16,3.16,0,0,1-.18,1.09,2.91,2.91,0,0,1-.53.88,3.27,3.27,0,0,1-.83.62,3.32,3.32,0,0,1-1.08.32v.82h2.5V147H2.47v-1.6h2.4Zm.75,10.35a2.21,2.21,0,0,0,1.4-.38,1.29,1.29,0,0,0,.46-1A1.31,1.31,0,0,0,7,152.45a2.29,2.29,0,0,0-1.4-.38,2.08,2.08,0,0,0-1.38.4,1.29,1.29,0,0,0-.46,1,1.21,1.21,0,0,0,.49,1A2.17,2.17,0,0,0,5.62,154.93Zm-.75,1.47a3.19,3.19,0,0,1-1-.35,2.75,2.75,0,0,1-.79-.63,2.56,2.56,0,0,1-.51-.87,3,3,0,0,1-.18-1.05,3.07,3.07,0,0,1,.25-1.23,2.64,2.64,0,0,1,.68-.93,2.61,2.61,0,0,1,1-.6,3.73,3.73,0,0,1,1.32-.22,4,4,0,0,1,1.37.23,3.06,3.06,0,0,1,1,.62,2.82,2.82,0,0,1,.63.95,3.07,3.07,0,0,1,.22,1.19,3.16,3.16,0,0,1-.18,1.09,2.91,2.91,0,0,1-.53.88,3.05,3.05,0,0,1-.83.62,3.59,3.59,0,0,1-1.08.33v.81h2.5v1.6H2.47v-1.6h2.4Zm-2.4,12.13v-1.6h4.9v-2.09H2.47v-1.59h4.9v-1h3.19v1.42H8.76v4.9Zm5.23,7.16a2,2,0,0,0-.14-.77,1.43,1.43,0,0,0-.38-.57.58.58,0,0,0-.46-.27H6a3.86,3.86,0,0,0-.17.63,2.94,2.94,0,0,0-.07.65,1.73,1.73,0,0,0,.29,1,.83.83,0,0,0,.71.39.86.86,0,0,0,.68-.31A1.12,1.12,0,0,0,7.7,175.69Zm1.18.46a2.61,2.61,0,0,1-.14.85,2.44,2.44,0,0,1-.42.68,1.9,1.9,0,0,1-1.43.62,1.74,1.74,0,0,1-.82-.2,2,2,0,0,1-.65-.55,2.67,2.67,0,0,1-.4-.85,3.4,3.4,0,0,1-.16-1.08,4.47,4.47,0,0,1,.07-.82,3.4,3.4,0,0,1,.21-.72H4.78a1.24,1.24,0,0,0-1,.36,1.44,1.44,0,0,0-.34,1.05,2.78,2.78,0,0,0,.18,1,4.81,4.81,0,0,0,.53,1l-1,.49a4.63,4.63,0,0,1-.81-2.62,3,3,0,0,1,.68-2.1A2.42,2.42,0,0,1,5,172.48h2a.56.56,0,0,0,.36-.09.42.42,0,0,0,.12-.3H8.76a3.27,3.27,0,0,1,.08.71,1.09,1.09,0,0,1-.2.71.91.91,0,0,1-.54.3l-.35,0a2.74,2.74,0,0,1,.84,1A3,3,0,0,1,8.88,176.15Zm-1.37,8.48a1.45,1.45,0,0,0-.15-.66,1.82,1.82,0,0,0-.42-.53,2,2,0,0,0-.62-.33A2.18,2.18,0,0,0,5.6,183a2,2,0,0,0-.73.13,1.84,1.84,0,0,0-.6.37,1.53,1.53,0,0,0-.39.55,1.58,1.58,0,0,0-.15.69,1.29,1.29,0,0,0,.09.46,1.54,1.54,0,0,0,.21.45,2.37,2.37,0,0,0,.34.37,1.76,1.76,0,0,0,.42.24H6.26a2.11,2.11,0,0,0,.9-.66A1.5,1.5,0,0,0,7.51,184.63Zm1.37-.54a2.58,2.58,0,0,1-.32,1.3,2.56,2.56,0,0,1-.9.86h3.66v1.61H2.47v-1.41H3.55a2.47,2.47,0,0,1-.86-.9,2.4,2.4,0,0,1-.33-1.27,2.58,2.58,0,0,1,.27-1.17,2.9,2.9,0,0,1,.69-.93,3.07,3.07,0,0,1,1-.61,3.41,3.41,0,0,1,1.24-.23,3.88,3.88,0,0,1,1.29.21,3,3,0,0,1,1,.57,2.57,2.57,0,0,1,.7.87A2.37,2.37,0,0,1,8.88,184.09Zm-.12,7.67v1.59H3.86v2.32h4.9v1.6H2.47v-5.51ZM6.47,215.91l-4-3v-1.19H8.76v1.59H4.87l3.89,2.94v1.23H2.47v-1.6Zm-.65,9-3.35-1.86v-1.64H8.76V223H5l2.83,1.59v.76L5,226.9H8.76v1.54H2.47v-1.66ZM7.7,235.61a2,2,0,0,0-.14-.77,1.47,1.47,0,0,0-.38-.58.6.6,0,0,0-.46-.26H6a3.74,3.74,0,0,0-.17.62,3,3,0,0,0-.07.65,1.69,1.69,0,0,0,.29,1,.84.84,0,0,0,.71.4.87.87,0,0,0,.68-.32A1.1,1.1,0,0,0,7.7,235.61Zm1.18.45a2.57,2.57,0,0,1-.14.85,2.36,2.36,0,0,1-.42.69,2.18,2.18,0,0,1-.64.45,1.86,1.86,0,0,1-.79.16,1.74,1.74,0,0,1-.82-.19,2.14,2.14,0,0,1-.65-.55,2.73,2.73,0,0,1-.4-.86,3.31,3.31,0,0,1-.16-1.08,4.28,4.28,0,0,1,.07-.81,3.4,3.4,0,0,1,.21-.72H4.78a1.24,1.24,0,0,0-1,.36,1.42,1.42,0,0,0-.34,1,2.8,2.8,0,0,0,.18,1,4.75,4.75,0,0,0,.53,1l-1,.49a4.62,4.62,0,0,1-.81-2.61,3,3,0,0,1,.68-2.1A2.39,2.39,0,0,1,5,232.39h2a.64.64,0,0,0,.36-.08.46.46,0,0,0,.12-.3H8.76a3.19,3.19,0,0,1,.08.7,1.07,1.07,0,0,1-.2.71.91.91,0,0,1-.54.3l-.35,0a2.74,2.74,0,0,1,.84,1A3,3,0,0,1,8.88,236.06ZM7.6,243.64a.72.72,0,0,0-.23-.55.8.8,0,0,0-.55-.22.78.78,0,0,0-.56.21.69.69,0,0,0-.22.55v1.6H7.6Zm-2.5.22a.73.73,0,0,0-.19-.54.71.71,0,0,0-.55-.21.76.76,0,0,0-.51.18.64.64,0,0,0-.21.52v1.42H5.1Zm-2.63-.76a1.61,1.61,0,0,1,.13-.63,1.48,1.48,0,0,1,.34-.5,1.38,1.38,0,0,1,.5-.32,1.63,1.63,0,0,1,.62-.12,1.71,1.71,0,0,1,.82.22,1.34,1.34,0,0,1,.62.7,1.64,1.64,0,0,1,.54-.86,1.45,1.45,0,0,1,1-.32,1.46,1.46,0,0,1,1.28.6,2.84,2.84,0,0,1,.42,1.65v3.3H2.47Zm.69,22.33a2.8,2.8,0,0,1-.6-1,3.36,3.36,0,0,1-.2-1.13,2.9,2.9,0,0,1,.11-.79,2.16,2.16,0,0,1,.3-.65,1.38,1.38,0,0,1,.52-.44,1.41,1.41,0,0,1,.69-.17,1.43,1.43,0,0,1,.89.28,1.13,1.13,0,0,1,.47.75,1.73,1.73,0,0,1,.56-1,1.73,1.73,0,0,1,1.85-.15,1.79,1.79,0,0,1,.6.5,2.61,2.61,0,0,1,.4.78,3.35,3.35,0,0,1,.13,1,3.54,3.54,0,0,1-.24,1.33,2.48,2.48,0,0,1-.67,1l-1-.77a1.53,1.53,0,0,0,.45-.59,2,2,0,0,0,.15-.78,1.25,1.25,0,0,0-.21-.78.67.67,0,0,0-.59-.29.77.77,0,0,0-.66.33,1.76,1.76,0,0,0-.24,1.06v.5H4.92v-.48A1.45,1.45,0,0,0,4.7,263a.67.67,0,0,0-.57-.31.52.52,0,0,0-.46.23,1,1,0,0,0-.15.57,1.63,1.63,0,0,0,.14.66,2,2,0,0,0,.4.64Z"/><rect class="cls-2" x="2.95" y="274.04" width="5.43" height="5.34"/><rect class="cls-1" x="5.16" y="286.84" width="1" height="60.53"/></svg>