<svg width="14" height="507" viewBox="0 0 14 507" fill="none" xmlns="http://www.w3.org/2000/svg">
<line x1="7.5" y1="197" x2="7.50001" y2="507" stroke="#C4C4C4"/>
<path d="M7.5 0L7.5 23" stroke="#C4C4C4"/>
<path d="M11 172.6L11 174.172L8.756 174.172C8.82 174.356 8.868 174.548 8.9 174.748C8.932 174.94 8.948 175.184 8.948 175.48C8.948 175.84 8.892 176.152 8.78 176.416C8.66 176.68 8.504 176.9 8.312 177.076C8.112 177.252 7.88 177.384 7.616 177.472C7.352 177.56 7.068 177.604 6.764 177.604L4.712 177.604L4.712 176.056L6.524 176.056C6.94 176.056 7.236 175.972 7.412 175.804C7.588 175.636 7.676 175.4 7.676 175.096C7.676 174.872 7.656 174.688 7.616 174.544C7.568 174.392 7.508 174.268 7.436 174.172L4.712 174.172L4.712 172.6L11 172.6ZM11.12 165.812C11.12 166.324 11.032 166.784 10.856 167.192C10.68 167.6 10.444 167.948 10.148 168.236C9.844 168.516 9.496 168.732 9.104 168.884C8.712 169.036 8.3 169.112 7.868 169.112C7.428 169.112 7.012 169.036 6.62 168.884C6.228 168.732 5.884 168.516 5.588 168.236C5.284 167.948 5.044 167.6 4.868 167.192C4.692 166.784 4.604 166.324 4.604 165.812C4.604 165.3 4.692 164.844 4.868 164.444C5.044 164.036 5.284 163.692 5.588 163.412C5.884 163.124 6.228 162.904 6.62 162.752C7.012 162.6 7.428 162.524 7.868 162.524C8.3 162.524 8.712 162.6 9.104 162.752C9.496 162.904 9.844 163.12 10.148 163.4C10.444 163.68 10.68 164.024 10.856 164.432C11.032 164.84 11.12 165.3 11.12 165.812ZM7.868 167.456C8.148 167.456 8.404 167.416 8.636 167.336C8.86 167.248 9.056 167.132 9.224 166.988C9.392 166.836 9.524 166.66 9.62 166.46C9.708 166.26 9.752 166.044 9.752 165.812C9.752 165.58 9.708 165.364 9.62 165.164C9.524 164.964 9.392 164.792 9.224 164.648C9.056 164.496 8.856 164.38 8.624 164.3C8.392 164.212 8.136 164.168 7.856 164.168C7.584 164.168 7.332 164.212 7.1 164.3C6.868 164.38 6.668 164.496 6.5 164.648C6.332 164.792 6.204 164.964 6.116 165.164C6.02 165.364 5.972 165.58 5.972 165.812C5.972 166.044 6.02 166.26 6.116 166.46C6.212 166.66 6.344 166.836 6.512 166.988C6.68 167.132 6.88 167.248 7.112 167.336C7.344 167.416 7.596 167.456 7.868 167.456ZM8.06 155.498L4.712 153.638L4.712 151.994L11 151.994L11 153.53L7.22 153.53L10.052 155.126L10.052 155.882L7.22 157.478L11 157.478L11 159.014L4.712 159.014L4.712 157.358L8.06 155.498ZM12.128 147.927C12.208 147.791 12.264 147.663 12.296 147.543C12.328 147.415 12.344 147.295 12.344 147.183C12.344 146.983 12.244 146.811 12.044 146.667C11.852 146.523 11.504 146.395 11 146.283L4.712 148.767L4.712 147.111L9.608 145.407L4.712 143.895L4.712 142.383L11.816 144.855C12.504 145.095 12.996 145.391 13.292 145.743C13.588 146.087 13.736 146.511 13.736 147.015C13.736 147.199 13.72 147.363 13.688 147.507C13.656 147.651 13.596 147.791 13.508 147.927L12.128 147.927ZM7.856 128.94C7.416 128.94 7 128.864 6.608 128.712C6.216 128.56 5.872 128.34 5.576 128.052C5.28 127.764 5.044 127.416 4.868 127.008C4.692 126.6 4.604 126.14 4.604 125.628C4.604 124.94 4.752 124.356 5.048 123.876C5.344 123.388 5.732 123.024 6.212 122.784L6.692 124.356C6.46 124.492 6.284 124.672 6.164 124.896C6.036 125.12 5.972 125.368 5.972 125.64C5.972 125.872 6.02 126.088 6.116 126.288C6.204 126.488 6.332 126.664 6.5 126.816C6.66 126.96 6.856 127.076 7.088 127.164C7.32 127.244 7.576 127.284 7.856 127.284C8.136 127.284 8.392 127.24 8.624 127.152C8.856 127.064 9.056 126.948 9.224 126.804C9.392 126.652 9.524 126.476 9.62 126.276C9.708 126.076 9.752 125.864 9.752 125.64C9.752 125.352 9.68 125.088 9.536 124.848C9.392 124.6 9.216 124.428 9.008 124.332L9.488 122.76C9.968 122.976 10.36 123.332 10.664 123.828C10.968 124.324 11.12 124.92 11.12 125.616C11.12 126.128 11.032 126.588 10.856 126.996C10.68 127.404 10.444 127.752 10.148 128.04C9.844 128.328 9.496 128.552 9.104 128.712C8.704 128.864 8.288 128.94 7.856 128.94ZM11.12 117.654C11.12 117.958 11.072 118.242 10.976 118.506C10.872 118.77 10.732 118.998 10.556 119.19C10.372 119.382 10.16 119.534 9.92 119.646C9.68 119.75 9.416 119.802 9.128 119.802C8.832 119.802 8.56 119.738 8.312 119.61C8.056 119.474 7.84 119.29 7.664 119.058C7.488 118.818 7.352 118.534 7.256 118.206C7.152 117.878 7.1 117.518 7.1 117.126C7.1 116.846 7.124 116.574 7.172 116.31C7.22 116.038 7.288 115.798 7.376 115.59L7.016 115.59C6.6 115.59 6.28 115.71 6.056 115.95C5.832 116.182 5.72 116.53 5.72 116.994C5.72 117.33 5.78 117.658 5.9 117.978C6.02 118.298 6.196 118.626 6.428 118.962L5.408 119.454C4.872 118.646 4.604 117.774 4.604 116.838C4.604 115.934 4.828 115.234 5.276 114.738C5.716 114.234 6.356 113.982 7.196 113.982L9.152 113.982C9.32 113.982 9.44 113.954 9.512 113.898C9.584 113.834 9.624 113.734 9.632 113.598L11 113.598C11.056 113.87 11.084 114.106 11.084 114.306C11.084 114.61 11.016 114.846 10.88 115.014C10.744 115.174 10.564 115.274 10.34 115.314L9.992 115.35C10.36 115.63 10.64 115.97 10.832 116.37C11.024 116.77 11.12 117.198 11.12 117.654ZM9.944 117.198C9.944 116.926 9.896 116.67 9.8 116.43C9.704 116.182 9.576 115.99 9.416 115.854C9.28 115.678 9.128 115.59 8.96 115.59L8.24 115.59C8.168 115.782 8.112 115.99 8.072 116.214C8.024 116.438 8 116.654 8 116.862C8 117.278 8.096 117.618 8.288 117.882C8.472 118.146 8.708 118.278 8.996 118.278C9.268 118.278 9.496 118.174 9.68 117.966C9.856 117.758 9.944 117.502 9.944 117.198ZM8.06 106.516L4.712 104.656L4.712 103.012L11 103.012L11 104.548L7.22 104.548L10.052 106.144L10.052 106.9L7.22 108.496L11 108.496L11 110.032L4.712 110.032L4.712 108.376L8.06 106.516ZM11.12 96.209C11.12 96.713 11.036 97.169 10.868 97.577C10.692 97.985 10.456 98.333 10.16 98.621C9.864 98.909 9.52 99.133 9.128 99.293C8.736 99.445 8.324 99.521 7.892 99.521C7.444 99.521 7.024 99.445 6.632 99.293C6.232 99.141 5.884 98.921 5.588 98.633C5.284 98.345 5.044 97.997 4.868 97.589C4.692 97.173 4.604 96.709 4.604 96.197C4.604 95.685 4.692 95.229 4.868 94.829C5.044 94.421 5.28 94.077 5.576 93.797C5.872 93.509 6.216 93.293 6.608 93.149C7 92.997 7.408 92.921 7.832 92.921C7.936 92.921 8.036 92.925 8.132 92.933C8.228 92.933 8.308 92.941 8.372 92.957L8.372 97.817C8.62 97.793 8.84 97.733 9.032 97.637C9.224 97.541 9.388 97.417 9.524 97.265C9.66 97.113 9.764 96.941 9.836 96.749C9.908 96.557 9.944 96.357 9.944 96.149C9.944 95.829 9.868 95.529 9.716 95.249C9.556 94.961 9.348 94.765 9.092 94.661L9.476 93.281C9.956 93.513 10.352 93.885 10.664 94.397C10.968 94.901 11.12 95.505 11.12 96.209ZM7.328 94.577C6.856 94.617 6.48 94.793 6.2 95.105C5.912 95.409 5.768 95.781 5.768 96.221C5.768 96.437 5.808 96.641 5.888 96.833C5.96 97.017 6.064 97.181 6.2 97.325C6.336 97.469 6.5 97.589 6.692 97.685C6.884 97.773 7.096 97.825 7.328 97.841L7.328 94.577ZM4.71199 75.2198C4.71199 74.9878 4.756 74.7758 4.844 74.5838C4.924 74.3918 5.036 74.2278 5.18 74.0918C5.324 73.9478 5.492 73.8398 5.684 73.7678C5.876 73.6878 6.08 73.6478 6.296 73.6478C6.568 73.6478 6.844 73.7198 7.124 73.8638C7.396 74.0078 7.6 74.2438 7.736 74.5718C7.84 74.2038 8.02 73.9158 8.276 73.7078C8.524 73.4918 8.864 73.3838 9.296 73.3838C9.872 73.3838 10.3 73.5838 10.58 73.9838C10.86 74.3838 11 74.9358 11 75.6398L11 78.9398L4.712 78.9398L4.71199 75.2198ZM7.34 75.9758C7.34 75.7518 7.276 75.5718 7.148 75.4358C7.02 75.2998 6.836 75.2318 6.596 75.2318C6.396 75.2318 6.228 75.2918 6.092 75.4118C5.948 75.5238 5.876 75.6958 5.876 75.9278L5.876 77.3438L7.34 77.3438L7.34 75.9758ZM9.836 75.7598C9.836 75.5278 9.76 75.3438 9.608 75.2078C9.456 75.0638 9.272 74.9918 9.056 74.9918C8.832 74.9918 8.648 75.0598 8.504 75.1958C8.352 75.3318 8.276 75.5158 8.276 75.7478L8.276 77.3438L9.836 77.3438L9.836 75.7598ZM7.08799 57.7105L7.08799 55.2145L4.71199 55.2145L4.71199 53.6185L11 53.6185L11 55.2145L8.45599 55.2145L8.45599 57.7105L11 57.7105L11 59.3065L4.71199 59.3065L4.71199 57.7105L7.08799 57.7105ZM11.12 48.0309C11.12 48.3349 11.072 48.6189 10.976 48.8829C10.872 49.1469 10.732 49.3749 10.556 49.5669C10.372 49.7589 10.16 49.9109 9.91999 50.0229C9.67999 50.1269 9.41599 50.1789 9.12799 50.1789C8.83199 50.1789 8.55999 50.1149 8.31199 49.9869C8.05599 49.8509 7.83999 49.6669 7.66399 49.4349C7.48799 49.1949 7.35199 48.9109 7.25599 48.5829C7.15199 48.2549 7.09999 47.8949 7.09999 47.5029C7.09999 47.2229 7.12399 46.9509 7.17199 46.6869C7.21999 46.4149 7.28799 46.1749 7.37599 45.9669L7.01599 45.9669C6.59999 45.9669 6.27999 46.0869 6.05599 46.3269C5.83199 46.5589 5.71999 46.9069 5.71999 47.3709C5.71999 47.7069 5.77999 48.0349 5.89999 48.3549C6.01999 48.6749 6.19599 49.0029 6.42799 49.3389L5.40799 49.8309C4.87199 49.0229 4.60399 48.1509 4.60399 47.2149C4.60399 46.3109 4.82799 45.6109 5.27599 45.1149C5.71599 44.6109 6.35599 44.3589 7.19599 44.3589L9.15199 44.3589C9.31999 44.3589 9.43999 44.3309 9.51199 44.2749C9.58399 44.2109 9.62399 44.1109 9.63199 43.9749L11 43.9749C11.056 44.2469 11.084 44.4829 11.084 44.6829C11.084 44.9869 11.016 45.2229 10.88 45.3909C10.744 45.5509 10.564 45.6509 10.34 45.6909L9.99199 45.7269C10.36 46.0069 10.64 46.3469 10.832 46.7469C11.024 47.1469 11.12 47.5749 11.12 48.0309ZM9.94399 47.5749C9.94399 47.3029 9.89599 47.0469 9.79999 46.8069C9.70399 46.5589 9.57599 46.3669 9.41599 46.2309C9.27999 46.0549 9.12799 45.9669 8.95999 45.9669L8.23999 45.9669C8.16799 46.1589 8.11199 46.3669 8.07199 46.5909C8.02399 46.8149 7.99999 47.0309 7.99999 47.2389C7.99999 47.6549 8.09599 47.9949 8.28799 48.2589C8.47199 48.5229 8.70799 48.6549 8.99599 48.6549C9.26799 48.6549 9.49599 48.5509 9.67999 48.3429C9.85599 48.1349 9.94399 47.8789 9.94399 47.5749ZM7.85599 40.8288C7.41599 40.8288 6.99999 40.7528 6.60799 40.6008C6.21599 40.4488 5.87199 40.2288 5.57599 39.9408C5.27999 39.6528 5.04399 39.3048 4.86799 38.8968C4.69199 38.4888 4.60399 38.0288 4.60399 37.5168C4.60399 36.8288 4.75199 36.2448 5.04799 35.7648C5.34399 35.2768 5.73199 34.9128 6.21199 34.6728L6.69199 36.2448C6.45999 36.3808 6.28399 36.5608 6.16399 36.7848C6.03599 37.0088 5.97199 37.2568 5.97199 37.5288C5.97199 37.7608 6.01999 37.9768 6.11599 38.1768C6.20399 38.3768 6.33199 38.5528 6.49999 38.7048C6.65999 38.8488 6.85599 38.9648 7.08799 39.0528C7.31999 39.1328 7.57599 39.1728 7.85599 39.1728C8.13599 39.1728 8.39199 39.1288 8.62399 39.0408C8.85599 38.9528 9.05599 38.8368 9.22399 38.6928C9.39199 38.5408 9.52399 38.3648 9.61999 38.1648C9.70799 37.9648 9.75199 37.7528 9.75199 37.5288C9.75199 37.2408 9.67999 36.9768 9.53599 36.7368C9.39199 36.4888 9.21599 36.3168 9.00799 36.2208L9.48799 34.6488C9.96799 34.8648 10.36 35.2208 10.664 35.7168C10.968 36.2128 11.12 36.8088 11.12 37.5048C11.12 38.0168 11.032 38.4768 10.856 38.8848C10.68 39.2928 10.444 39.6408 10.148 39.9288C9.84399 40.2168 9.49599 40.4408 9.10399 40.6008C8.70399 40.7528 8.28799 40.8288 7.85599 40.8288Z" fill="#C4C4C4"/>
<rect x="5" y="184" width="6" height="6" fill="#76003E"/>
</svg>
