<svg width="207" height="88" viewBox="0 0 207 88" fill="none" xmlns="http://www.w3.org/2000/svg">
<path d="M18 13V2H205V86H18V71" stroke="#FEBE19" stroke-width="4"/>
<path d="M21.7602 47.0261L22.5679 47.433L22.3303 48.3486L22.4728 48.5012C22.7579 48.8064 23.0905 49.0607 23.4231 49.2642L23.6131 49.3659L24.3258 48.8064L24.9434 49.5185L25.1335 49.4677C25.3235 49.4168 25.5136 49.3659 25.7036 49.2642C25.8937 49.1625 26.0362 49.0607 26.2262 48.959L26.3688 48.8064L26.2737 47.8908L27.1289 47.6873L27.1765 47.4839C27.319 47.0769 27.3665 46.6191 27.319 46.2122V46.0087L26.5113 45.6018L26.7489 44.6862L26.6063 44.5336C26.3213 44.2284 25.9887 43.9741 25.6561 43.7706L25.4661 43.6689L24.7534 44.2284L24.1357 43.5163L23.9457 43.5672C23.7556 43.618 23.5656 43.6689 23.3756 43.7706C23.1855 43.8724 23.043 43.9741 22.8529 44.0758L22.7104 44.2284L22.8054 45.144L21.9502 45.3475L21.9027 45.5509C21.7602 45.9579 21.7127 46.4157 21.7602 46.8226V47.0261ZM22.4728 46.0087L23.138 45.8561L23.2805 45.8053L23.3756 45.6527C23.3756 45.6527 23.3756 45.6018 23.4231 45.6018L23.5181 45.5001L23.4231 44.5845C23.4706 44.5336 23.5656 44.4828 23.6606 44.4828C23.7556 44.4319 23.8032 44.4319 23.8982 44.381L24.4683 45.0423L24.8484 45.0932L25.5136 44.5845C25.6561 44.6862 25.7986 44.788 25.8937 44.8897L25.6561 45.7544L25.7986 46.1105L26.5588 46.4665C26.5588 46.6191 26.5588 46.8226 26.5113 46.9752L25.8461 47.1278L25.7036 47.1787L25.6086 47.3313C25.6086 47.3313 25.6086 47.3821 25.5611 47.3821L25.4661 47.4839L25.5611 48.3995C25.5136 48.4503 25.4185 48.5012 25.3235 48.5012C25.2285 48.5521 25.181 48.5521 25.086 48.6029L24.5158 47.9417L24.1357 47.8908L23.4706 48.3995C23.328 48.2977 23.1855 48.196 23.0905 48.0943L23.328 47.2295L23.1855 46.8735L22.4253 46.5174C22.4253 46.3139 22.4253 46.1613 22.4728 46.0087ZM24.4683 47.7891C24.8009 47.7891 25.1335 47.6365 25.3235 47.3821C25.5611 47.1278 25.6561 46.8226 25.6561 46.4665C25.6561 46.1105 25.5136 45.8053 25.276 45.5509C25.0385 45.2966 24.7534 45.1949 24.4208 45.1949C24.0882 45.1949 23.8032 45.3475 23.5656 45.6018C23.328 45.8561 23.233 46.1613 23.233 46.5174C23.233 46.8735 23.3756 47.1787 23.6131 47.433C23.8507 47.6873 24.1357 47.7891 24.4683 47.7891ZM24.1357 46.1613C24.2308 46.0596 24.3733 46.0087 24.4683 46.0087C24.6109 46.0087 24.7059 46.0596 24.8009 46.1613C24.8959 46.2631 24.9434 46.3648 24.9434 46.5174C24.9434 46.67 24.8959 46.7717 24.8009 46.8735C24.7059 46.9752 24.6109 47.0261 24.4683 47.0261C24.3258 47.0261 24.2308 46.9752 24.1357 46.8735C24.0407 46.7717 23.9932 46.67 23.9932 46.5174C23.9932 46.3648 24.0407 46.2631 24.1357 46.1613ZM17.7692 56.182H18.0068L18.4819 54.9612L19.4796 55.7242L19.6697 55.5716C19.9547 55.419 20.1923 55.2155 20.3823 54.9612L20.5724 54.7578L20.0973 53.537L21.2851 53.3335L21.3326 53.0792C21.3801 52.774 21.4276 52.4688 21.4276 52.1127V51.8584L20.2873 51.3497L21 50.2815L20.8575 50.0781C20.7149 49.8237 20.5249 49.5694 20.2873 49.3151L20.0973 49.1116L18.957 49.6203L18.767 48.3486L18.5294 48.2977C18.2443 48.2469 17.9593 48.196 17.6267 48.196H17.3891L16.914 49.4168L15.9163 48.6538L15.7262 48.8064C15.4887 48.959 15.2511 49.1625 15.0136 49.4168L14.8235 49.6203L15.2986 50.841L14.1109 51.0445L14.0633 51.2988C14.0158 51.604 13.9683 51.9092 13.9683 52.2653V52.5196L15.1086 53.0283L14.3959 54.0965L14.5385 54.3C14.681 54.5543 14.871 54.8086 15.1086 55.0629L15.2986 55.2155L16.4389 54.7069L16.629 55.9785L16.8665 56.0294C17.1516 56.0803 17.3891 56.1311 17.6742 56.1311C17.7217 56.182 17.7692 56.182 17.7692 56.182ZM17.2941 55.3681L17.0566 54.0456L16.629 53.7913L15.4412 54.3508C15.3937 54.3 15.3462 54.1982 15.2986 54.1474L16.0113 53.0283L15.9638 52.8248C15.9638 52.774 15.9638 52.774 15.9163 52.7231L15.8688 52.5196L14.681 52.011C14.681 51.9092 14.681 51.8584 14.7285 51.7566L15.9638 51.5023L16.2014 51.0445L15.6787 49.7729C15.7262 49.722 15.8213 49.6711 15.8688 49.6203L16.914 50.3832L17.3416 50.2306L17.8167 48.959C17.9118 48.959 17.9593 48.959 18.0543 49.0099L18.2918 50.3324L18.7195 50.5867L19.9072 50.0272C19.9547 50.078 20.0023 50.1798 20.0498 50.2306L19.3371 51.3497L19.4796 51.8075L20.6674 52.3162C20.6674 52.4179 20.6674 52.4688 20.6199 52.5705L19.3846 52.8248L19.1471 53.2826L19.6697 54.5543C19.6222 54.6052 19.5271 54.656 19.4796 54.7069L18.5769 54.0456L18.3869 53.9439L17.9593 54.0965L17.4842 55.3681C17.4366 55.3681 17.3891 55.3681 17.2941 55.3681ZM19.0045 51.5532C18.7195 50.7902 17.8642 50.3832 17.1516 50.6884C16.4389 50.9936 16.0588 51.9092 16.3439 52.6722C16.5814 53.2826 17.1041 53.6387 17.6742 53.6387C17.8642 53.6387 18.0543 53.5878 18.1968 53.537C18.957 53.2318 19.3371 52.3162 19.0045 51.5532ZM17.9593 52.8248C17.5792 52.9774 17.1991 52.774 17.0566 52.4179C17.009 52.2144 17.009 52.011 17.0566 51.8584C17.1041 51.7058 17.2466 51.5023 17.4366 51.4514C17.5317 51.4006 17.6267 51.4006 17.7217 51.4006C17.8167 51.4006 17.9118 51.4006 18.0068 51.4514C18.1968 51.5532 18.3394 51.6549 18.3869 51.8584C18.4819 52.0618 18.4344 52.2653 18.3869 52.4179C18.2919 52.6214 18.1493 52.774 17.9593 52.8248ZM27.9842 54.1474C27.1289 54.0456 26.3213 54.3508 25.7036 54.9103C25.0385 55.4699 24.6584 56.2837 24.5633 57.1993C24.4683 58.1149 24.7534 58.9797 25.276 59.6409C25.8937 60.4548 26.7964 60.8617 27.6991 60.8617C28.4118 60.8617 29.1244 60.6074 29.6946 60.0987C31.0249 58.9288 31.2149 56.7924 30.1222 55.3681C29.5995 54.656 28.8394 54.2491 27.9842 54.1474ZM29.2194 59.4883C28.1742 60.4039 26.6538 60.2513 25.7986 59.1323C25.371 58.5727 25.181 57.9115 25.276 57.2502C25.371 56.5889 25.6561 55.9277 26.1312 55.5207C26.5588 55.1138 27.1289 54.9103 27.6516 54.9103C28.3642 54.9103 29.0294 55.2155 29.5045 55.8768C30.4072 56.945 30.2647 58.6236 29.2194 59.4883ZM27.0339 56.6398C26.6063 57.0467 26.5113 57.708 26.8914 58.1658C27.0814 58.3693 27.319 58.5219 27.6041 58.5727C27.6516 58.5727 27.6516 58.5727 27.6991 58.5727C27.9366 58.5727 28.1742 58.471 28.3642 58.3184C28.5543 58.1149 28.6968 57.8606 28.7443 57.5554C28.7918 57.2502 28.6968 56.9959 28.5068 56.7415C28.1267 56.3346 27.4615 56.2837 27.0339 56.6398ZM27.8891 57.7589C27.8416 57.8097 27.7466 57.8606 27.6516 57.8097C27.5566 57.8097 27.509 57.7589 27.4615 57.708C27.414 57.6571 27.3665 57.5554 27.414 57.4537C27.414 57.3519 27.4615 57.3011 27.509 57.2502C27.5566 57.1993 27.6516 57.1993 27.6991 57.1993C27.7941 57.1993 27.8891 57.2502 27.9366 57.3011C27.9842 57.3519 28.0317 57.4537 27.9842 57.5554C27.9842 57.6063 27.9366 57.708 27.8891 57.7589ZM32.3077 60.4039C32.1651 59.8444 31.8801 59.3357 31.595 58.9288C31.6425 58.7762 31.6425 58.6236 31.69 58.5219C31.7375 58.3693 31.7375 58.1658 31.7851 57.9623C32.2127 57.708 32.6403 57.3519 32.9728 56.8941C32.9253 56.4363 32.7828 55.9785 32.6403 55.5716C32.4027 55.4699 32.1176 55.3681 31.8801 55.3173C31.595 55.2664 31.3575 55.2155 31.1199 55.2155L30.8823 54.8595C30.7873 54.7069 30.6448 54.6052 30.5498 54.4526C30.6448 53.9439 30.5973 53.3335 30.5022 52.774C30.1222 52.5196 29.7421 52.367 29.3145 52.2144C29.0769 52.367 28.8394 52.5196 28.6493 52.7231C28.4593 52.9266 28.2692 53.0792 28.1267 53.3335C27.9842 53.3335 27.8416 53.3335 27.6991 53.3335C27.509 53.3335 27.3665 53.3335 27.1765 53.3844C26.9864 53.1809 26.7964 52.9774 26.6063 52.8248C26.4163 52.6722 26.1787 52.5196 25.9412 52.367C25.5136 52.5196 25.1335 52.7231 24.8009 52.9774C24.7059 53.5878 24.7534 54.1474 24.8484 54.656C24.7534 54.7577 24.6584 54.8595 24.5633 55.0121C24.4683 55.1647 24.3733 55.3173 24.2783 55.4699C24.0407 55.4699 23.7556 55.5207 23.5181 55.6225C23.2805 55.6733 22.9955 55.7751 22.7579 55.9277C22.6629 56.1311 22.6629 56.3855 22.5679 56.5889C22.5204 56.7924 22.4728 57.0467 22.4728 57.3011C22.8529 57.708 23.2805 58.0641 23.7081 58.3184C23.7081 58.471 23.7556 58.6236 23.8032 58.7253C23.8507 58.8779 23.8982 59.0814 23.9457 59.234C23.6606 59.6918 23.4231 60.2004 23.2805 60.76C23.5181 61.1669 23.8032 61.523 24.1357 61.8282C24.4208 61.7773 24.6584 61.7773 24.9434 61.6756C25.181 61.6247 25.4185 61.523 25.6561 61.4212C25.7511 61.523 25.8937 61.5738 26.0362 61.6247C26.1787 61.7264 26.3688 61.7773 26.5113 61.8282C26.6063 62.0825 26.7013 62.3368 26.7964 62.5912C26.9389 62.8455 27.0814 63.0998 27.224 63.3033C27.6516 63.3542 28.0792 63.3542 28.5068 63.2524C28.7918 62.7438 29.0294 62.2351 29.1244 61.7264C29.267 61.6756 29.362 61.6247 29.5045 61.5738C29.647 61.523 29.7896 61.3704 29.9321 61.3195C30.1697 61.4212 30.4072 61.4721 30.6448 61.5738C30.8823 61.6247 31.1674 61.6756 31.4525 61.6756C31.8326 61.1669 32.1176 60.8108 32.3077 60.4039ZM29.8371 60.4548C29.647 60.6074 29.457 60.7091 29.267 60.8108C29.1719 60.8617 29.0769 60.9126 28.9819 60.9634L28.6968 61.0652C28.6493 61.3195 28.5543 61.5738 28.4593 61.8282C28.3642 62.0825 28.2217 62.3368 28.0792 62.5403C27.8891 62.5403 27.7466 62.5912 27.5566 62.5403C27.224 62.0825 27.0339 61.6247 26.8914 61.116C26.7964 61.116 26.6538 61.0652 26.5588 61.0143C26.4638 60.9634 26.3688 60.9126 26.2737 60.8617C26.0837 60.76 25.9412 60.6582 25.7511 60.5565C25.3235 60.76 24.8484 60.9126 24.3258 60.9634C24.2308 60.8108 24.0882 60.7091 23.9932 60.5565C24.0407 60.3022 24.1357 60.0478 24.2308 59.7935C24.2783 59.6918 24.3258 59.5392 24.3733 59.4374C24.4208 59.3357 24.5158 59.234 24.5633 59.1323C24.5158 59.0305 24.4683 58.9288 24.4208 58.8271C24.3733 58.7253 24.3258 58.6236 24.3258 58.471C24.2783 58.2675 24.2308 58.0641 24.2308 57.8606C23.8032 57.6571 23.3756 57.3011 23.043 56.8941C23.043 56.6907 23.0905 56.5381 23.138 56.3346C23.6131 56.0803 24.0882 55.9785 24.5633 55.9277C24.6584 55.7242 24.8009 55.5207 24.8959 55.3173C25.0385 55.1647 25.1335 55.0121 25.276 54.8595C25.2285 54.6052 25.181 54.3508 25.181 54.0965C25.181 53.8422 25.181 53.537 25.2285 53.2826C25.371 53.1809 25.5136 53.13 25.7036 53.0283C26.1787 53.2826 26.5588 53.6387 26.8914 53.9948C27.1289 53.9439 27.319 53.9439 27.5566 53.893C27.7466 53.893 27.9366 53.893 28.1267 53.9439C28.4118 53.537 28.7918 53.1809 29.267 52.9266C29.4095 52.9774 29.5995 53.0792 29.7421 53.13C29.7896 53.3844 29.8371 53.6896 29.8371 53.9439C29.8371 54.1982 29.8371 54.4526 29.7896 54.7069L30.0271 54.9612L30.2647 55.2155C30.3597 55.3681 30.5022 55.5207 30.5973 55.7242C31.0724 55.7242 31.5475 55.8259 32.0701 56.0294C32.1176 56.182 32.1651 56.3855 32.2127 56.5889C32.0226 56.7924 31.8326 56.9959 31.69 57.1485C31.5 57.3011 31.3099 57.4537 31.0724 57.6063C31.0724 57.8606 31.0249 58.0641 30.9774 58.3184L30.9298 58.6236L30.8348 58.9288C30.9774 59.1323 31.1199 59.3357 31.2149 59.59C31.3099 59.8444 31.405 60.0987 31.5 60.353C31.405 60.5056 31.3099 60.6582 31.1674 60.8108C30.7873 60.76 30.2647 60.6582 29.8371 60.4548Z" fill="#FEBE19"/>
<path d="M23.7556 25.7648L23.6606 25.663C23.1855 25.1543 22.6154 24.5438 21.5226 24.5438C20.2873 24.5438 19.6697 25.3069 19.2421 25.7648L19.147 25.8666C18.767 26.2736 18.5294 26.5279 18.0068 26.5279C17.4366 26.5279 17.1991 26.2736 16.819 25.7648L16.7715 25.7139C16.2964 25.2052 15.6787 24.5438 14.586 24.5438C14.1584 24.5438 13.8733 24.849 13.8733 25.3069C13.8733 25.7648 14.1584 26.0701 14.586 26.0701C15.1561 26.0701 15.3937 26.3244 15.7737 26.8332L15.8213 26.8841C16.2964 27.3928 16.914 28.0542 18.0068 28.0542C19.2421 28.0542 19.8597 27.2911 20.2873 26.8332L20.3823 26.7315C20.7149 26.3244 20.9525 26.0701 21.4751 26.0701C22.0452 26.0701 22.2828 26.3244 22.6629 26.8332L22.7104 26.8841C23.1855 27.3928 23.8032 28.0542 24.8959 28.0542C26.0837 28.0542 26.7014 27.342 27.1765 26.8332L27.2715 26.7315C27.6516 26.3244 27.8891 26.0701 28.4118 26.0701C28.8394 26.0701 29.1244 25.7648 29.1244 25.3069C29.1244 24.849 28.8394 24.5438 28.4118 24.5438C27.1765 24.5438 26.5588 25.3069 26.1312 25.7648L26.0362 25.8666C25.6561 26.2736 25.4185 26.5279 24.8959 26.5279C24.3733 26.5279 24.1357 26.2736 23.7556 25.7648Z" fill="#3A3A3A"/>
<path d="M41.7624 64.474H40.7647V36.5993C40.7647 36.4976 40.7172 36.4467 40.6697 36.3959C40.6222 36.345 40.5271 36.345 40.4321 36.3959L32.5928 40.3126V36.7011C32.5928 36.5993 32.5452 36.5485 32.4977 36.4976C32.4502 36.4467 32.3552 36.4467 32.2602 36.4976L23.5181 40.3126V36.5993C23.5181 36.4976 23.4706 36.4467 23.4231 36.3959C23.3756 36.345 23.2805 36.345 23.1855 36.3959L15.0136 40.3126V36.5485C15.0136 36.4467 14.9661 36.3959 14.9186 36.345C14.871 36.2941 14.776 36.2941 14.681 36.345L6.03394 41.4316C5.93891 41.4825 5.8914 41.5842 5.8914 41.6351V64.474H2.75566L3.99095 27.6469H7.31674L7.79185 39.4987C7.79185 39.6004 7.83937 39.6513 7.88688 39.7022C7.93439 39.753 8.02941 39.753 8.12443 39.7022L9.07466 39.1935C9.16968 39.1426 9.21719 39.0409 9.21719 38.9392L8.74208 26.3243C8.74208 26.1717 8.64706 26.07 8.50453 26.07H2.85068C2.70814 26.07 2.61312 26.1717 2.61312 26.3243L1.33032 64.474H0.237557C0.0950226 64.474 0 64.5758 0 64.7284V65.7457C0 65.8983 0.0950226 66 0.237557 66H41.7624C41.905 66 42 65.8983 42 65.7457V64.7284C42 64.5758 41.905 64.474 41.7624 64.474ZM13.6833 42.4998C13.7308 42.5507 13.8258 42.5507 13.9208 42.4998L22.0928 38.5831V42.2455C22.0928 42.3472 22.1403 42.3981 22.1878 42.4489C22.2353 42.4998 22.3303 42.4998 22.4253 42.4489L31.1674 38.5322V42.3472C31.1674 42.4489 31.2149 42.4998 31.2624 42.5507C31.31 42.6015 31.405 42.6015 31.5 42.5507L39.3394 38.634V64.5249H7.31674V42.3981L13.5882 38.6848V42.2963C13.5882 42.3981 13.6357 42.4489 13.6833 42.4998Z" fill="#3A3A3A"/>
<path d="M5.5588 25.6121H5.65382C5.9864 25.6121 6.27147 25.4086 6.36649 25.0525C6.50903 24.4929 6.88912 23.5262 7.98188 23.5262C8.55201 23.5262 8.78957 23.7806 9.16966 24.2894L9.21717 24.3402C9.69229 24.849 10.3099 25.5103 11.4027 25.5103C12.638 25.5103 13.2556 24.7472 13.6832 24.2894L13.7783 24.1876C14.1583 23.7806 14.3959 23.5262 14.9185 23.5262C15.4887 23.5262 15.7262 23.7806 16.1063 24.2894L16.1538 24.3402C16.6289 24.849 17.2466 25.5103 18.3393 25.5103C19.5746 25.5103 20.1923 24.7472 20.6199 24.2894L20.7149 24.1876C21.095 23.7806 21.3326 23.5262 21.8552 23.5262C22.4253 23.5262 22.6629 23.7806 23.043 24.2894L23.0905 24.3402C23.5656 24.849 24.1832 25.5103 25.276 25.5103C25.7036 25.5103 25.9887 25.2051 25.9887 24.7472C25.9887 24.2894 25.7036 23.9841 25.276 23.9841C24.7059 23.9841 24.4683 23.7297 24.0882 23.221L23.9932 23.1192C23.5181 22.6105 22.9479 22 21.8552 22C20.6199 22 20.0022 22.7631 19.5746 23.221L19.4796 23.3227C19.0995 23.7297 18.862 23.9841 18.3393 23.9841C17.7692 23.9841 17.5317 23.7297 17.1516 23.221L17.0565 23.1192C16.5814 22.6105 16.0113 22 14.9185 22C13.6832 22 13.0656 22.7631 12.638 23.221L12.543 23.3227C12.1629 23.7297 11.9253 23.9841 11.4027 23.9841C10.8326 23.9841 10.595 23.7297 10.2149 23.221L10.1674 23.1701C9.69229 22.6614 9.07464 22 7.98188 22C6.22396 22 5.32125 23.3736 4.98867 24.6455C4.94116 24.849 4.94116 25.0525 5.03618 25.2051C5.1312 25.4086 5.32125 25.5612 5.5588 25.6121Z" fill="#3A3A3A"/>
</svg>
