<svg width="14" height="1061" viewBox="0 0 14 1061" fill="none" xmlns="http://www.w3.org/2000/svg">
<path d="M7.50012 358.325L7.50012 1060.5" stroke="#E8E8E8"/>
<line x1="7.5" y1="0.978271" x2="7.50001" y2="163.409" stroke="#E8E8E8"/>
<path d="M11 329.736L11 331.332L6.104 331.332L6.104 333.648L11 333.648L11 335.244L4.712 335.244L4.712 329.736L11 329.736ZM11.12 322.068C11.12 322.564 11.012 322.996 10.796 323.364C10.572 323.732 10.272 324.02 9.896 324.228L13.556 324.228L13.556 325.836L4.712 325.836L4.712 324.432L5.792 324.432C5.424 324.2 5.136 323.9 4.928 323.532C4.712 323.164 4.604 322.74 4.604 322.26C4.604 321.836 4.692 321.444 4.868 321.084C5.036 320.724 5.268 320.416 5.564 320.16C5.852 319.896 6.196 319.692 6.596 319.548C6.988 319.396 7.404 319.32 7.844 319.32C8.3 319.32 8.728 319.388 9.128 319.524C9.528 319.66 9.876 319.852 10.172 320.1C10.468 320.34 10.7 320.628 10.868 320.964C11.036 321.3 11.12 321.668 11.12 322.068ZM9.752 322.608C9.752 322.368 9.7 322.148 9.596 321.948C9.492 321.74 9.352 321.564 9.176 321.42C9 321.276 8.796 321.164 8.564 321.084C8.332 321.004 8.092 320.964 7.844 320.964C7.58 320.964 7.336 321.008 7.112 321.096C6.88 321.184 6.68 321.308 6.512 321.468C6.344 321.62 6.212 321.804 6.116 322.02C6.02 322.228 5.972 322.456 5.972 322.704C5.972 322.856 6 323.012 6.056 323.172C6.104 323.332 6.176 323.48 6.272 323.616C6.368 323.752 6.48 323.876 6.608 323.988C6.736 324.092 6.876 324.172 7.028 324.228L8.504 324.228C8.864 324.084 9.164 323.864 9.404 323.568C9.636 323.272 9.752 322.952 9.752 322.608ZM8.708 314.223L4.712 311.247L4.712 310.059L11 310.059L11 311.655L7.112 311.655L11 314.595L11 315.819L4.712 315.819L4.712 314.223L8.708 314.223ZM4.712 302.29L4.712 300.562L7.76 303.01L11 300.37L11 302.194L8.576 304.138L8.576 304.558L11 304.558L11 306.142L4.712 306.142L4.712 304.558L7.208 304.558L7.208 304.198L4.712 302.29ZM9.632 297.933C9.616 297.701 9.568 297.513 9.488 297.369C9.408 297.217 9.26 297.093 9.044 296.997C8.828 296.893 8.532 296.809 8.156 296.745C7.772 296.673 7.272 296.601 6.656 296.529L4.712 296.313L4.712 291.909L11 291.909L11 293.505L6.056 293.505L6.056 294.909L7.004 295.029C7.796 295.125 8.452 295.241 8.972 295.377C9.484 295.513 9.892 295.689 10.196 295.905C10.5 296.113 10.716 296.373 10.844 296.685C10.964 296.997 11.032 297.381 11.048 297.837L9.632 297.933ZM11.12 286.302C11.12 286.606 11.072 286.89 10.976 287.154C10.872 287.418 10.732 287.646 10.556 287.838C10.372 288.03 10.16 288.182 9.92 288.294C9.68 288.398 9.416 288.45 9.128 288.45C8.832 288.45 8.56 288.386 8.312 288.258C8.056 288.122 7.84 287.938 7.664 287.706C7.488 287.466 7.352 287.182 7.256 286.854C7.152 286.526 7.1 286.166 7.1 285.774C7.1 285.494 7.124 285.222 7.172 284.958C7.22 284.686 7.288 284.446 7.376 284.238L7.016 284.238C6.6 284.238 6.28 284.358 6.056 284.598C5.832 284.83 5.72 285.178 5.72 285.642C5.72 285.978 5.78 286.306 5.9 286.626C6.02 286.946 6.196 287.274 6.428 287.61L5.408 288.102C4.872 287.294 4.604 286.422 4.604 285.486C4.604 284.582 4.828 283.882 5.276 283.386C5.716 282.882 6.356 282.63 7.196 282.63L9.152 282.63C9.32 282.63 9.44 282.602 9.512 282.546C9.584 282.482 9.624 282.382 9.632 282.246L11 282.246C11.056 282.518 11.084 282.754 11.084 282.954C11.084 283.258 11.016 283.494 10.88 283.662C10.744 283.822 10.564 283.922 10.34 283.962L9.992 283.998C10.36 284.278 10.64 284.618 10.832 285.018C11.024 285.418 11.12 285.846 11.12 286.302ZM9.944 285.846C9.944 285.574 9.896 285.318 9.8 285.078C9.704 284.83 9.576 284.638 9.416 284.502C9.28 284.326 9.128 284.238 8.96 284.238L8.24 284.238C8.168 284.43 8.112 284.638 8.072 284.862C8.024 285.086 8 285.302 8 285.51C8 285.926 8.096 286.266 8.288 286.53C8.472 286.794 8.708 286.926 8.996 286.926C9.268 286.926 9.496 286.822 9.68 286.614C9.856 286.406 9.944 286.15 9.944 285.846ZM9.608 279.256L9.608 278.92C9.584 278.728 9.524 278.572 9.428 278.452C9.324 278.324 9.164 278.216 8.948 278.128C8.724 278.032 8.428 277.956 8.06 277.9C7.692 277.836 7.224 277.772 6.656 277.708L4.712 277.492L4.712 273.088L9.608 273.088L9.608 272.248L12.8 272.248L12.8 273.676L11 273.676L11 277.876L12.8 277.876L12.8 279.256L9.608 279.256ZM9.608 274.684L6.056 274.684L6.056 276.088L7.004 276.208C7.652 276.288 8.18 276.388 8.588 276.508C8.996 276.62 9.336 276.764 9.608 276.94L9.608 274.684ZM11.12 259.682C11.12 260.178 11.012 260.61 10.796 260.978C10.572 261.346 10.272 261.634 9.896 261.842L13.556 261.842L13.556 263.45L4.712 263.45L4.712 262.046L5.792 262.046C5.424 261.814 5.136 261.514 4.928 261.146C4.712 260.778 4.604 260.354 4.604 259.874C4.604 259.45 4.692 259.058 4.868 258.698C5.036 258.338 5.268 258.03 5.564 257.774C5.852 257.51 6.196 257.306 6.596 257.162C6.988 257.01 7.404 256.934 7.844 256.934C8.3 256.934 8.728 257.002 9.128 257.138C9.528 257.274 9.876 257.466 10.172 257.714C10.468 257.954 10.7 258.242 10.868 258.578C11.036 258.914 11.12 259.282 11.12 259.682ZM9.752 260.222C9.752 259.982 9.7 259.762 9.596 259.562C9.492 259.354 9.352 259.178 9.176 259.034C9 258.89 8.796 258.778 8.564 258.698C8.332 258.618 8.092 258.578 7.844 258.578C7.58 258.578 7.336 258.622 7.112 258.71C6.88 258.798 6.68 258.922 6.512 259.082C6.344 259.234 6.212 259.418 6.116 259.634C6.02 259.842 5.972 260.07 5.972 260.318C5.972 260.47 6 260.626 6.056 260.786C6.104 260.946 6.176 261.094 6.272 261.23C6.368 261.366 6.48 261.49 6.608 261.602C6.736 261.706 6.876 261.786 7.028 261.842L8.504 261.842C8.864 261.698 9.164 261.478 9.404 261.182C9.636 260.886 9.752 260.566 9.752 260.222ZM11.12 250.553C11.12 251.065 11.032 251.525 10.856 251.933C10.68 252.341 10.444 252.689 10.148 252.977C9.844 253.257 9.496 253.473 9.104 253.625C8.712 253.777 8.3 253.853 7.868 253.853C7.428 253.853 7.012 253.777 6.62 253.625C6.228 253.473 5.884 253.257 5.588 252.977C5.284 252.689 5.044 252.341 4.868 251.933C4.692 251.525 4.604 251.065 4.604 250.553C4.604 250.041 4.692 249.585 4.868 249.185C5.044 248.777 5.284 248.433 5.588 248.153C5.884 247.865 6.228 247.645 6.62 247.493C7.012 247.341 7.428 247.265 7.868 247.265C8.3 247.265 8.712 247.341 9.104 247.493C9.496 247.645 9.844 247.861 10.148 248.141C10.444 248.421 10.68 248.765 10.856 249.173C11.032 249.581 11.12 250.041 11.12 250.553ZM7.868 252.197C8.148 252.197 8.404 252.157 8.636 252.077C8.86 251.989 9.056 251.873 9.224 251.729C9.392 251.577 9.524 251.401 9.62 251.201C9.708 251.001 9.752 250.785 9.752 250.553C9.752 250.321 9.708 250.105 9.62 249.905C9.524 249.705 9.392 249.533 9.224 249.389C9.056 249.237 8.856 249.121 8.624 249.041C8.392 248.953 8.136 248.909 7.856 248.909C7.584 248.909 7.332 248.953 7.1 249.041C6.868 249.121 6.668 249.237 6.5 249.389C6.332 249.533 6.204 249.705 6.116 249.905C6.02 250.105 5.972 250.321 5.972 250.553C5.972 250.785 6.02 251.001 6.116 251.201C6.212 251.401 6.344 251.577 6.512 251.729C6.68 251.873 6.88 251.989 7.112 252.077C7.344 252.157 7.596 252.197 7.868 252.197ZM5.396 244.244C5.124 243.932 4.924 243.592 4.796 243.224C4.668 242.856 4.604 242.48 4.604 242.096C4.604 241.816 4.64 241.552 4.712 241.304C4.776 241.056 4.876 240.84 5.012 240.656C5.148 240.464 5.32 240.316 5.528 240.212C5.728 240.1 5.96 240.044 6.224 240.044C6.56 240.044 6.856 240.136 7.112 240.32C7.36 240.496 7.516 240.748 7.58 241.076C7.668 240.62 7.856 240.276 8.144 240.044C8.424 239.812 8.776 239.696 9.2 239.696C9.488 239.696 9.752 239.76 9.992 239.888C10.224 240.008 10.424 240.176 10.592 240.392C10.76 240.608 10.892 240.868 10.988 241.172C11.076 241.468 11.12 241.792 11.12 242.144C11.12 242.632 11.04 243.076 10.88 243.476C10.72 243.876 10.496 244.2 10.208 244.448L9.176 243.68C9.376 243.52 9.528 243.324 9.632 243.092C9.728 242.852 9.776 242.592 9.776 242.312C9.776 241.976 9.708 241.716 9.572 241.532C9.436 241.34 9.24 241.244 8.984 241.244C8.696 241.244 8.476 241.352 8.324 241.568C8.164 241.776 8.084 242.132 8.084 242.636L8.084 243.128L7.16 243.128L7.16 242.648C7.16 242.264 7.088 241.972 6.944 241.772C6.792 241.564 6.6 241.46 6.368 241.46C6.168 241.46 6.016 241.536 5.912 241.688C5.808 241.832 5.756 242.024 5.756 242.264C5.756 242.472 5.804 242.692 5.9 242.924C5.988 243.156 6.12 243.368 6.296 243.56L5.396 244.244ZM11.12 232.443C11.12 232.939 11.012 233.371 10.796 233.739C10.572 234.107 10.272 234.395 9.896 234.603L13.556 234.603L13.556 236.211L4.71199 236.211L4.71199 234.807L5.792 234.807C5.424 234.575 5.136 234.275 4.92799 233.907C4.71199 233.539 4.60399 233.115 4.60399 232.635C4.60399 232.211 4.69199 231.819 4.86799 231.459C5.036 231.099 5.268 230.791 5.564 230.535C5.852 230.271 6.196 230.067 6.596 229.923C6.988 229.771 7.404 229.695 7.844 229.695C8.3 229.695 8.728 229.763 9.128 229.899C9.528 230.035 9.876 230.227 10.172 230.475C10.468 230.715 10.7 231.003 10.868 231.339C11.036 231.675 11.12 232.043 11.12 232.443ZM9.752 232.983C9.752 232.743 9.7 232.523 9.596 232.323C9.492 232.115 9.352 231.939 9.176 231.795C9 231.651 8.796 231.539 8.564 231.459C8.332 231.379 8.092 231.339 7.844 231.339C7.58 231.339 7.336 231.383 7.112 231.471C6.88 231.559 6.68 231.683 6.512 231.843C6.344 231.995 6.212 232.179 6.116 232.395C6.02 232.603 5.972 232.831 5.972 233.079C5.972 233.231 6 233.387 6.056 233.547C6.104 233.707 6.176 233.855 6.272 233.991C6.368 234.127 6.48 234.251 6.608 234.363C6.736 234.467 6.876 234.547 7.028 234.603L8.504 234.603C8.864 234.459 9.164 234.239 9.404 233.943C9.636 233.647 9.752 233.327 9.752 232.983ZM11.12 224.502C11.12 224.806 11.072 225.09 10.976 225.354C10.872 225.618 10.732 225.846 10.556 226.038C10.372 226.23 10.16 226.382 9.92 226.494C9.68 226.598 9.416 226.65 9.128 226.65C8.832 226.65 8.56 226.586 8.312 226.458C8.056 226.322 7.83999 226.138 7.66399 225.906C7.48799 225.666 7.35199 225.382 7.25599 225.054C7.15199 224.726 7.09999 224.366 7.09999 223.974C7.09999 223.694 7.12399 223.422 7.17199 223.158C7.21999 222.886 7.28799 222.646 7.37599 222.438L7.01599 222.438C6.59999 222.438 6.27999 222.558 6.05599 222.798C5.83199 223.03 5.71999 223.378 5.71999 223.842C5.71999 224.178 5.77999 224.506 5.89999 224.826C6.01999 225.146 6.19599 225.474 6.42799 225.81L5.40799 226.302C4.87199 225.494 4.60399 224.622 4.60399 223.686C4.60399 222.782 4.82799 222.082 5.27599 221.586C5.71599 221.082 6.35599 220.83 7.19599 220.83L9.15199 220.83C9.31999 220.83 9.43999 220.802 9.51199 220.746C9.58399 220.682 9.62399 220.582 9.63199 220.446L11 220.446C11.056 220.718 11.084 220.954 11.084 221.154C11.084 221.458 11.016 221.694 10.88 221.862C10.744 222.022 10.564 222.122 10.34 222.162L9.99199 222.198C10.36 222.478 10.64 222.818 10.832 223.218C11.024 223.618 11.12 224.046 11.12 224.502ZM9.94399 224.046C9.94399 223.774 9.89599 223.518 9.79999 223.278C9.70399 223.03 9.57599 222.838 9.41599 222.702C9.27999 222.526 9.12799 222.438 8.95999 222.438L8.23999 222.438C8.16799 222.63 8.11199 222.838 8.07199 223.062C8.02399 223.286 8 223.502 8 223.71C8 224.126 8.096 224.466 8.28799 224.73C8.47199 224.994 8.70799 225.126 8.99599 225.126C9.268 225.126 9.496 225.022 9.67999 224.814C9.85599 224.606 9.94399 224.35 9.94399 224.046ZM4.71199 215.908L6.67999 214.552L6.89599 214.456L6.67999 214.336L4.71199 212.992L4.71199 211.336L7.86799 213.58L11 211.3L11 212.956L9.04399 214.348L8.83999 214.456L9.04399 214.552L11 215.932L11 217.588L7.86799 215.32L4.71199 217.552L4.71199 215.908ZM12.128 207.949C12.208 207.813 12.264 207.685 12.296 207.565C12.328 207.437 12.344 207.317 12.344 207.205C12.344 207.005 12.244 206.833 12.044 206.689C11.852 206.545 11.504 206.417 11 206.305L4.71199 208.789L4.71199 207.133L9.60799 205.429L4.71199 203.917L4.71199 202.405L11.816 204.877C12.504 205.117 12.996 205.413 13.292 205.765C13.588 206.109 13.736 206.533 13.736 207.037C13.736 207.221 13.72 207.385 13.688 207.529C13.656 207.673 13.596 207.813 13.508 207.949L12.128 207.949ZM7.08799 197.511L7.08799 195.015L4.71199 195.015L4.71199 193.419L11 193.419L11 195.015L8.45599 195.015L8.45599 197.511L11 197.511L11 199.107L4.71199 199.107L4.71199 197.511L7.08799 197.511ZM4.71199 185.672L4.71199 183.944L7.75999 186.392L11 183.752L11 185.576L8.57599 187.52L8.57599 187.94L11 187.94L11 189.524L4.71199 189.524L4.71199 187.94L7.20799 187.94L7.20799 187.58L4.71199 185.672ZM12.128 180.499C12.208 180.363 12.264 180.235 12.296 180.115C12.328 179.987 12.344 179.867 12.344 179.755C12.344 179.555 12.244 179.383 12.044 179.239C11.852 179.095 11.504 178.967 11 178.855L4.71199 181.339L4.71199 179.683L9.60799 177.979L4.71199 176.467L4.71199 174.955L11.816 177.427C12.504 177.667 12.996 177.963 13.292 178.315C13.588 178.659 13.736 179.083 13.736 179.587C13.736 179.771 13.72 179.935 13.688 180.079C13.656 180.223 13.596 180.363 13.508 180.499L12.128 180.499Z" fill="#E8E8E8"/>
<rect x="5.00006" y="343.559" width="6" height="5.90649" fill="#76003E" fill-opacity="0.8"/>
</svg>
