<svg width="166" height="157" viewBox="0 0 166 157" fill="none" xmlns="http://www.w3.org/2000/svg">
<path d="M69.5195 27.428C65.2918 27.428 61.8469 30.4667 61.8469 34.196C61.8469 37.9254 65.2918 40.9641 69.5195 40.9641C73.7473 40.9641 77.1921 37.9254 77.1921 34.196C77.1921 30.4667 73.7473 27.428 69.5195 27.428ZM69.5195 39.0994C66.4661 39.0994 64.0391 36.9585 64.0391 34.2651C64.0391 31.5717 66.4661 29.4308 69.5195 29.4308C72.5729 29.4308 75 31.5717 75 34.2651C75 36.9585 72.5729 39.0994 69.5195 39.0994Z" fill="black"/>
<path d="M69.5196 31.3645C67.7189 31.3645 66.2313 32.6766 66.2313 34.265C66.2313 35.8534 67.7189 37.1655 69.5196 37.1655C71.3203 37.1655 72.8079 35.8534 72.8079 34.265C72.8079 32.6766 71.3203 31.3645 69.5196 31.3645ZM69.5196 35.2319C68.8933 35.2319 68.4235 34.8175 68.4235 34.265C68.4235 33.7125 68.8933 33.2982 69.5196 33.2982C70.1459 33.2982 70.6157 33.7125 70.6157 34.265C70.6157 34.7484 70.0676 35.2319 69.5196 35.2319Z" fill="black"/>
<path d="M104.673 27.428C100.445 27.428 97 30.4667 97 34.196C97 37.9253 100.445 41.0331 104.673 41.0331C108.9 41.0331 112.345 37.9944 112.345 34.2651C112.345 30.5357 108.979 27.428 104.673 27.428ZM104.673 39.0994C101.619 39.0994 99.1922 36.9585 99.1922 34.2651C99.1922 31.5717 101.619 29.4308 104.673 29.4308C107.726 29.4308 110.153 31.5717 110.153 34.2651C110.153 36.9585 107.726 39.0994 104.673 39.0994Z" fill="black"/>
<path d="M104.673 31.3645C102.872 31.3645 101.384 32.6766 101.384 34.265C101.384 35.8534 102.872 37.1655 104.673 37.1655C106.473 37.1655 107.961 35.8534 107.961 34.265C107.961 32.6766 106.552 31.3645 104.673 31.3645ZM104.673 35.2319C104.046 35.2319 103.576 34.8175 103.576 34.265C103.576 33.7125 104.046 33.2982 104.673 33.2982C105.299 33.2982 105.769 33.7125 105.769 34.265C105.769 34.7484 105.299 35.2319 104.673 35.2319Z" fill="black"/>
<path d="M105.769 19.693H103.576V15.8255C103.576 15.273 103.107 14.8586 102.48 14.8586C101.854 14.8586 101.384 15.273 101.384 15.8255V19.693C101.384 20.798 102.402 21.6267 103.576 21.6267H105.769C106.395 21.6267 106.865 21.2123 106.865 20.6598C106.865 20.1073 106.395 19.693 105.769 19.693Z" fill="black"/>
<path d="M72.8079 6.08789C68.5801 6.08789 65.1353 9.12658 65.1353 12.8559C65.1353 16.2399 68.1886 24.5272 72.8079 24.5272C77.4271 24.5272 80.4805 16.2399 80.4805 12.8559C80.4805 9.12658 77.0356 6.08789 72.8079 6.08789ZM72.8079 22.5935C70.3025 22.5935 67.3274 16.1708 67.3274 12.9249C67.3274 10.2316 69.7545 8.09066 72.8079 8.09066C75.8612 8.09066 78.2883 10.2316 78.2883 12.9249C78.2883 16.1708 75.3132 22.5935 72.8079 22.5935Z" fill="#FEBE19"/>
<path d="M72.8078 9.95544C71.0071 9.95544 69.5195 11.2676 69.5195 12.8561C69.5195 14.4445 71.0071 15.7567 72.8078 15.7567C74.6085 15.7567 76.0961 14.4445 76.0961 12.8561C76.0961 11.2676 74.6085 9.95544 72.8078 9.95544ZM72.8078 13.892C72.1815 13.892 71.7117 13.4776 71.7117 12.9251C71.7117 12.3726 72.1815 11.9583 72.8078 11.9583C73.4341 11.9583 73.9039 12.3726 73.9039 12.9251C73.9039 13.4086 73.4341 13.892 72.8078 13.892Z" fill="#FEBE19"/>
<path d="M113.52 23.5604H112.11L108.431 12.0962C108.039 10.8531 106.708 9.95525 105.221 10.0243H92.6157V5.12094C92.6157 2.42753 90.1886 0.286621 87.1352 0.286621H57.3843C54.9573 0.286621 53 2.01316 53 4.15407V31.3644C53 33.5053 54.9573 35.2318 57.3843 35.2318H62.395C63.0214 35.2318 63.4911 34.8174 63.4911 34.2649C63.4911 33.7125 63.0214 33.2981 62.395 33.2981H57.3843C56.1317 33.2981 55.1922 32.4003 55.1922 31.3644V4.15407C55.1922 3.04909 56.21 2.22035 57.3843 2.22035H87.0569C88.8576 2.22035 90.3452 3.53252 90.3452 5.12094V33.229H77.3488C76.7224 33.229 76.2527 33.6434 76.2527 34.1959C76.2527 34.7484 76.7224 35.1628 77.3488 35.1628H97.6263C98.2527 35.1628 98.7224 34.7484 98.7224 34.1959C98.7224 33.6434 98.2527 33.229 97.6263 33.229H92.6157V25.4941H113.52C115.32 25.4941 116.808 26.8063 116.808 28.3947V33.229H111.797C111.171 33.229 110.701 33.6434 110.701 34.1959C110.701 34.7484 111.171 35.1628 111.797 35.1628H117.904C118.53 35.1628 119 34.7484 119 34.1959V28.3947C119 25.7704 116.495 23.5604 113.52 23.5604ZM92.6157 11.958H97V20.6598C97 21.2123 97.4697 21.6267 98.0961 21.6267C98.7224 21.6267 99.1922 21.2123 99.1922 20.6598V11.958H105.221C105.69 11.958 106.16 12.2343 106.317 12.6487L109.84 23.5604H92.6157V11.958Z" fill="black"/>
<path d="M43 12H3V154H163V12H123" stroke="#FEBE19" stroke-width="5"/>
</svg>
