<svg width="209" height="88" viewBox="0 0 209 88" fill="none" xmlns="http://www.w3.org/2000/svg">
<path d="M20 13V2H207V86H20V71" stroke="#FEBE19" stroke-width="4"/>
<path d="M31.6924 46.6423L25.6135 43.228C24.3848 42.5324 22.8327 42.7221 21.798 43.7338L19.0172 46.4526C18.7586 46.7055 18.3706 46.7687 18.0472 46.6423C14.2317 45.0616 11.1923 42.0899 9.57555 38.3594C9.44621 38.0433 9.51088 37.6639 9.76956 37.411L12.5503 34.6922C13.585 33.6805 13.779 32.1631 13.0677 30.9617L9.57555 25.0183C8.92886 23.8802 7.50614 23.2479 6.21276 23.5008C2.65595 24.386 0.133857 27.421 0.00451915 30.9617C-0.124819 37.6007 2.52662 44.0499 7.3768 48.7288L7.44147 48.792C12.0976 53.3444 18.4352 55.9368 25.0315 56C25.2255 56 25.4842 56 25.6782 56C29.2996 55.8735 32.4684 53.4077 33.2444 49.9301C33.5031 48.6656 32.8564 47.2745 31.6924 46.6423ZM31.1104 49.4875C30.5283 52.0166 28.2649 53.8503 25.5488 53.9135C19.5993 54.1032 13.2617 51.574 8.92886 47.3378L8.86419 47.2745C4.59603 43.0383 2.00926 36.8419 2.1386 31.025C2.20327 28.4326 4.07867 26.2196 6.66544 25.5874C6.73011 25.5874 6.79478 25.5874 6.85945 25.5874C7.18279 25.5874 7.50614 25.777 7.70015 26.0932L11.1923 32.0366C11.3863 32.416 11.3216 32.9218 11.0629 33.2379L8.28217 35.9567C7.3768 36.7787 7.11812 38.1065 7.63548 39.1814C9.44621 43.4176 12.9383 46.8319 17.2712 48.6023C18.4352 49.0449 19.7286 48.792 20.5693 47.9701L23.3501 45.2512C23.6734 44.9351 24.1908 44.8719 24.5788 45.1248L30.6577 48.5391C30.981 48.6656 31.175 49.1082 31.1104 49.4875ZM29.623 18C24.5141 18 20.3753 22.0466 20.3753 27.0416C20.3753 28.3062 20.634 29.5707 21.1513 30.7088L18.8879 37.6007L26.3895 35.5141C27.4242 35.8935 28.5236 36.0832 29.6876 36.0832C34.7965 36.0832 39 32.0366 39 27.0416C38.9353 22.0466 34.7318 18 29.623 18ZM29.623 33.9967C28.6529 33.9967 27.7476 33.807 26.8422 33.4276L26.5189 33.3012L22.186 34.5025L23.4794 30.5824L23.2854 30.203C22.7681 29.2546 22.5094 28.1797 22.5094 27.0416C22.5094 23.1847 25.6782 20.0865 29.623 20.0865C33.5678 20.0865 36.7366 23.1847 36.7366 27.0416C36.7366 30.8985 33.5678 33.9967 29.623 33.9967ZM28.5236 26.1564H30.6577V32.1631H28.5236V26.1564ZM28.5236 22.0466H30.6577V24.3228H28.5236V22.0466Z" fill="#3A3A3A"/>
</svg>
