<svg width="166" height="168" viewBox="0 0 166 168" fill="none" xmlns="http://www.w3.org/2000/svg">
<path d="M83.1478 2.20804C93.9904 6.49309 102.073 9.72875 112.62 14.1013V54.3283H110.747V20.0479V18.6487H109.17H57.1256H55.5485V20.0479V54.3283H53.5771V13.8389C66.4897 8.85425 74.6709 5.70604 83.1478 2.20804ZM83.1478 0.808838L82.8521 0.896288C73.7838 4.56919 65.504 7.80485 52.3943 12.7895C52.1971 12.877 52 13.0519 52 13.3142V55.1153C52 55.4651 52.2957 55.64 52.5914 55.64H56.4356C56.8299 55.64 57.027 55.3777 57.027 55.1153V20.0479H109.17V55.1153C109.17 55.4651 109.466 55.64 109.761 55.64H113.409C113.803 55.64 114 55.3777 114 55.1153V13.5766C114 13.4017 113.901 13.1393 113.606 13.0519C103.059 8.5919 94.779 5.26879 83.345 0.808838H83.1478Z" fill="black"/>
<path d="M73.1924 50.218V54.3281H62.9412V50.218H63.9269C63.9269 51.0925 64.814 51.8795 65.7997 51.8795H70.2353C71.221 51.8795 72.1081 51.1799 72.1081 50.218H73.1924ZM74.4738 48.9062H61.7584C61.5612 48.9062 61.4626 48.9937 61.4626 49.1686V55.4649C61.4626 55.6398 61.5612 55.7272 61.7584 55.7272H74.4738C74.6709 55.7272 74.7695 55.6398 74.7695 55.4649V49.1686C74.7695 48.9937 74.6709 48.9062 74.4738 48.9062ZM65.8983 50.4803C65.7011 50.4803 65.6026 50.3929 65.6026 50.218C65.6026 50.0431 65.7011 49.9556 65.8983 49.9556H70.3339C70.531 49.9556 70.6296 50.0431 70.6296 50.218C70.6296 50.3929 70.531 50.4803 70.3339 50.4803H65.8983Z" fill="#FEBE19"/>
<path d="M88.2734 50.218V54.3281H78.0222V50.218H79.0079C79.0079 51.0925 79.8951 51.8795 80.8807 51.8795H85.3164C86.3021 51.8795 87.1892 51.1799 87.1892 50.218H88.2734ZM89.5548 48.9062H76.8394C76.6423 48.9062 76.5437 48.9937 76.5437 49.1686V55.4649C76.5437 55.6398 76.6423 55.7272 76.8394 55.7272H89.5548C89.752 55.7272 89.8505 55.6398 89.8505 55.4649V49.1686C89.8505 48.9937 89.752 48.9062 89.5548 48.9062ZM80.9793 50.4803C80.7822 50.4803 80.6836 50.3929 80.6836 50.218C80.6836 50.0431 80.7822 49.9556 80.9793 49.9556H85.4149C85.6121 49.9556 85.7106 50.0431 85.7106 50.218C85.7106 50.3929 85.6121 50.4803 85.4149 50.4803H80.9793Z" fill="#FEBE19"/>
<path d="M103.256 50.218V54.3281H93.0048V50.218H93.9905C93.9905 51.0925 94.8776 51.8795 95.8633 51.8795H100.299C101.285 51.8795 102.172 51.1799 102.172 50.218H103.256ZM104.537 48.9062H91.822C91.6248 48.9062 91.5262 48.9937 91.5262 49.1686V55.4649C91.5262 55.6398 91.6248 55.7272 91.822 55.7272H104.537C104.734 55.7272 104.833 55.6398 104.833 55.4649V49.1686C104.833 48.9937 104.636 48.9062 104.537 48.9062ZM95.8633 50.4803C95.6661 50.4803 95.5676 50.3929 95.5676 50.218C95.5676 50.0431 95.6661 49.9556 95.8633 49.9556H100.299C100.496 49.9556 100.595 50.0431 100.595 50.218C100.595 50.3929 100.496 50.4803 100.299 50.4803H95.8633Z" fill="#FEBE19"/>
<path d="M73.1924 41.8228V45.933H62.9412V41.8228H63.9269C63.9269 42.6973 64.814 43.4844 65.7997 43.4844H70.2353C71.221 43.4844 72.1081 42.7847 72.1081 41.8228H73.1924ZM74.4738 40.511H61.7584C61.5612 40.511 61.4626 40.5984 61.4626 40.7733V47.0699C61.4626 47.2448 61.5612 47.3323 61.7584 47.3323H74.4738C74.6709 47.3323 74.7695 47.2448 74.7695 47.0699V40.7733C74.7695 40.5984 74.6709 40.511 74.4738 40.511ZM65.8983 42.0851C65.7011 42.0851 65.6026 41.9977 65.6026 41.8228C65.6026 41.6479 65.7011 41.5604 65.8983 41.5604H70.3339C70.531 41.5604 70.6296 41.6479 70.6296 41.8228C70.6296 41.9977 70.531 42.0851 70.3339 42.0851H65.8983Z" fill="#FEBE19"/>
<path d="M88.2734 41.8228V45.933H78.0222V41.8228H79.0079C79.0079 42.6973 79.8951 43.4844 80.8807 43.4844H85.3164C86.3021 43.4844 87.1892 42.7847 87.1892 41.8228H88.2734ZM89.5548 40.511H76.8394C76.6423 40.511 76.5437 40.5984 76.5437 40.7733V47.0699C76.5437 47.2448 76.6423 47.3323 76.8394 47.3323H89.5548C89.752 47.3323 89.8505 47.2448 89.8505 47.0699V40.7733C89.8505 40.5984 89.752 40.511 89.5548 40.511ZM80.9793 42.0851C80.7822 42.0851 80.6836 41.9977 80.6836 41.8228C80.6836 41.6479 80.7822 41.5604 80.9793 41.5604H85.4149C85.6121 41.5604 85.7106 41.6479 85.7106 41.8228C85.7106 41.9977 85.6121 42.0851 85.4149 42.0851H80.9793Z" fill="#FEBE19"/>
<path d="M73.1924 33.3404V37.4505H62.9412V33.3404H63.9269C63.9269 34.2149 64.814 35.0019 65.7997 35.0019H70.2353C71.221 35.0019 72.1081 34.3023 72.1081 33.3404H73.1924ZM74.4738 31.9412H61.7584C61.5612 31.9412 61.4626 32.0286 61.4626 32.2035V38.4999C61.4626 38.6748 61.5612 38.7623 61.7584 38.7623H74.4738C74.6709 38.7623 74.7695 38.6748 74.7695 38.4999V32.2035C74.7695 32.1161 74.6709 31.9412 74.4738 31.9412ZM65.8983 33.6027C65.7011 33.6027 65.6026 33.5153 65.6026 33.3404C65.6026 33.1655 65.7011 33.078 65.8983 33.078H70.3339C70.531 33.078 70.6296 33.1655 70.6296 33.3404C70.6296 33.5153 70.531 33.6027 70.3339 33.6027H65.8983Z" fill="#FEBE19"/>
<path d="M85.7106 31.5911V35.7013H75.558V31.5911H76.5437C76.5437 32.4656 77.4308 33.2527 78.4165 33.2527H82.8521C83.8378 33.2527 84.7249 32.5531 84.7249 31.5911H85.7106ZM86.992 30.1919H74.2766C74.0795 30.1919 73.9809 30.2793 73.9809 30.4542V36.7507C73.9809 36.9256 74.0795 37.013 74.2766 37.013H86.992C87.1892 37.013 87.2877 36.9256 87.2877 36.7507V30.4542C87.2877 30.2793 87.1892 30.1919 86.992 30.1919ZM78.4165 31.8535C78.2194 31.8535 78.1208 31.766 78.1208 31.5911C78.1208 31.4162 78.2194 31.3287 78.4165 31.3287H82.8521C83.0493 31.3287 83.1478 31.4162 83.1478 31.5911C83.1478 31.766 83.0493 31.8535 82.8521 31.8535H78.4165Z" fill="#FEBE19"/>
<path d="M73.1924 24.9453V29.0554H62.9412V24.9453H63.9269C63.9269 25.8198 64.814 26.6068 65.7997 26.6068H70.2353C71.221 26.6068 72.1081 25.9072 72.1081 24.9453H73.1924ZM74.4738 23.6335H61.7584C61.5612 23.6335 61.4626 23.721 61.4626 23.8959V30.1922C61.4626 30.3671 61.5612 30.4545 61.7584 30.4545H74.4738C74.6709 30.4545 74.7695 30.3671 74.7695 30.1922V23.8959C74.7695 23.721 74.6709 23.6335 74.4738 23.6335ZM65.8983 25.2076C65.7011 25.2076 65.6026 25.1202 65.6026 24.9453C65.6026 24.7704 65.7011 24.6829 65.8983 24.6829H70.3339C70.531 24.6829 70.6296 24.7704 70.6296 24.9453C70.6296 25.1202 70.531 25.2076 70.3339 25.2076H65.8983Z" fill="#FEBE19"/>
<path d="M43 23H3V165H163V23H123" stroke="#FEBE19" stroke-width="5"/>
</svg>
