<svg width="166" height="169" viewBox="0 0 166 169" fill="none" xmlns="http://www.w3.org/2000/svg">
<path d="M74.9733 3.58154H73.5212V5.28566H74.9733V3.58154Z" fill="black"/>
<path d="M86.5904 3.58154H76.4255V5.28566H86.5904V3.58154Z" fill="black"/>
<path d="M89.4946 3.58154H88.0425V5.28566H89.4946V3.58154Z" fill="black"/>
<path d="M102.564 51.296V50.444C102.564 48.3991 101.329 46.695 99.6595 46.269V15.5103H101.112C101.91 15.5103 102.564 14.7435 102.564 13.8062V12.1021C102.564 11.1649 101.91 10.3981 101.112 10.3981V6.13787C101.112 4.6894 100.168 3.58174 98.9334 3.58174H92.3989V2.7297C92.3989 1.28124 91.455 0.173584 90.2207 0.173584H72.7952C71.5609 0.173584 70.617 1.28124 70.617 2.7297V3.58174H64.0824C62.8481 3.58174 61.9042 4.6894 61.9042 6.13787V10.3981C61.1056 10.3981 60.4521 11.1649 60.4521 12.1021V13.8062C60.4521 14.7435 61.1056 15.5103 61.9042 15.5103H63.3564V46.269C61.6864 46.695 60.4521 48.3991 60.4521 50.444V51.296H59V53.0001H104.016V51.296H102.564ZM72.0691 2.7297C72.0691 2.21848 72.3595 1.87766 72.7952 1.87766H90.2207C90.6563 1.87766 90.9467 2.21848 90.9467 2.7297V6.13787C90.9467 6.64909 90.6563 6.98991 90.2207 6.98991H72.7952C72.3595 6.98991 72.0691 6.64909 72.0691 6.13787V2.7297ZM63.3564 6.13787C63.3564 5.62664 63.6468 5.28583 64.0824 5.28583H70.617V6.13787C70.617 7.58633 71.5609 8.69399 72.7952 8.69399H90.2207C91.455 8.69399 92.3989 7.58633 92.3989 6.13787V5.28583H98.9334C99.369 5.28583 99.6595 5.62664 99.6595 6.13787V10.3981H63.3564V6.13787ZM61.9042 12.1021H101.112V13.8062H61.9042V12.1021ZM98.2073 15.5103V46.1838H89.4946V30.847H90.9467V29.1429H72.0691V30.847H73.5212V46.1838H64.8085V15.5103H98.2073ZM80.7819 30.847V34.2552H77.8776V42.7756H80.7819V46.1838H74.9734V30.847H80.7819ZM80.7819 41.0715H79.3297V35.9593H80.7819V41.0715ZM82.234 35.9593H83.6861V41.0715H82.234V35.9593ZM82.234 42.7756H85.1382V34.2552H82.234V30.847H88.0425V46.1838H82.234V42.7756ZM61.9042 50.444C61.9042 48.9955 62.8481 47.8878 64.0824 47.8878H98.9334C100.168 47.8878 101.112 48.9955 101.112 50.444V51.296H61.9042V50.444Z" fill="black"/>
<path d="M74.9733 18.9185H67.7127V25.7347H74.9733V18.9185ZM73.5212 24.0306H69.1649V20.6225H73.5212V24.0306Z" fill="#FEBE19"/>
<path d="M85.1382 18.9185H77.8776V25.7347H85.1382V18.9185ZM83.6861 24.0306H79.3297V20.6225H83.6861V24.0306Z" fill="#FEBE19"/>
<path d="M95.3031 18.9185H88.0425V25.7347H95.3031V18.9185ZM93.851 24.0306H89.4946V20.6225H93.851V24.0306Z" fill="#FEBE19"/>
<path d="M90.9467 42.7755H96.7552V34.2549H90.9467V42.7755ZM92.3988 35.959H95.3031V41.0713H92.3988V35.959Z" fill="#FEBE19"/>
<path d="M72.0691 42.7755V34.2549H66.2606V42.7755H72.0691ZM67.7127 35.959H70.617V41.0713H67.7127V35.959Z" fill="#FEBE19"/>
<path d="M43 24H3V166H163V24H123" stroke="#FEBE19" stroke-width="5"/>
</svg>
