<svg width="17" height="11" viewBox="0 0 17 11" fill="none" xmlns="http://www.w3.org/2000/svg">
<path d="M5.57742 5.79786C5.5328 5.83278 5.5328 5.83278 5.5328 5.83278C5.5328 5.83278 5.5328 5.83278 5.48818 5.86771C5.44356 5.90263 5.39895 5.93755 5.35433 5.93755C4.86351 6.2868 4.3727 6.67096 3.92651 7.0202C3.39107 7.43929 2.81102 7.89331 2.23097 8.34732C2.14173 8.41717 2.05249 8.48702 1.96325 8.55687C1.69554 8.76641 1.42782 8.97596 1.11548 9.1855C0.981626 9.29027 0.847768 9.36012 0.75853 9.46489C0.71391 9.49982 0.624671 9.56967 0.580052 9.60459C0.490813 9.63952 0.490813 9.63952 0.446194 9.67444L0.401574 9.70936C0.401574 9.70936 0.401574 9.70936 0.401574 9.74429C0.356955 9.77921 0.312336 9.81414 0.267716 9.81414C0.223097 9.84906 0.133858 9.91891 0.0892388 9.95383C0.0446194 9.98876 0 9.98876 0 10.0237V1.53711L0.0446194 1.57203C0.0446194 1.57203 0.0446194 1.57203 0.0892388 1.60696C0.133858 1.64188 0.0892388 1.60696 0.133858 1.64188C0.133858 1.64188 0.133858 1.64188 0.178478 1.67681C0.223097 1.71173 0.267716 1.74665 0.312336 1.74665C0.356955 1.78158 0.401574 1.8165 0.446194 1.85143C0.446194 1.85143 0.446194 1.85143 0.490813 1.88635C0.580052 1.9562 0.669291 2.02605 0.75853 2.0959L0.803149 2.13082C0.803149 2.13082 0.803149 2.13082 0.847768 2.16574C1.1601 2.41021 1.47244 2.65468 1.78478 2.89915C1.82939 2.93408 1.91863 3.00392 2.05249 3.07377C2.23097 3.24839 2.45407 3.42301 2.67716 3.56271C3.39107 4.1215 4.10498 4.64536 4.81889 5.20415C5.08661 5.41369 5.35433 5.58831 5.57742 5.79786Z" fill="#FEBE19"/>
<path d="M16.1969 0.908203C16.063 1.01298 15.9738 1.11776 15.8399 1.18761C15.7507 1.25747 15.6614 1.32732 15.5276 1.4321C15.483 1.46702 15.483 1.46702 15.4383 1.50195C14.9029 1.92106 14.4121 2.34018 13.8767 2.72437C13.252 3.24826 12.5827 3.73723 11.958 4.26112C11.4672 4.64531 11.021 5.02949 10.5302 5.41368C10.4856 5.44861 10.441 5.44861 10.3963 5.48353C10.3517 5.51846 10.3517 5.55339 10.3071 5.55339C10.1732 5.65817 10.0394 5.76294 9.90553 5.86772C9.86091 5.90265 9.81629 5.93757 9.81629 5.9725L9.77167 6.00743C9.72705 6.04235 9.68243 6.04235 9.63781 6.07728C9.59319 6.07728 9.59319 6.11221 9.54857 6.11221C9.41471 6.18206 9.28086 6.25191 9.147 6.28684C9.01314 6.32176 8.87928 6.35669 8.74542 6.35669C8.61156 6.35669 8.52233 6.35669 8.38847 6.35669C8.25461 6.32176 8.12075 6.32176 7.98689 6.28684C7.94227 6.28684 7.94227 6.28684 7.94227 6.25191C7.89765 6.25191 7.89765 6.21698 7.89765 6.21698C7.85303 6.18206 7.80841 6.18206 7.76379 6.14713C7.71917 6.11221 7.67456 6.11221 7.62994 6.07728C7.62994 6.07728 7.58532 6.07728 7.58532 6.04235C7.49608 6.00743 7.45146 5.93758 7.40684 5.90265C7.36222 5.86772 7.27298 5.79787 7.22836 5.76294C7.0945 5.65817 7.00526 5.58831 6.87141 5.48353C6.82679 5.44861 6.82679 5.44861 6.78217 5.41368C6.46983 5.20412 6.20211 4.95964 5.88978 4.75008C5.17587 4.22619 4.50658 3.66737 3.79266 3.14348C3.07875 2.65451 2.40946 2.13062 1.78479 1.64165C1.74017 1.60673 1.65093 1.5718 1.60631 1.53687C1.60631 1.53687 1.60631 1.53687 1.56169 1.50195C1.56169 1.50195 1.56169 1.50195 1.51707 1.46702C1.51707 1.46702 1.47245 1.4321 1.42783 1.39717C1.38321 1.36224 1.33859 1.32732 1.29398 1.29239C1.29398 1.29239 1.29398 1.29239 1.24936 1.25747C1.24936 1.25747 1.24936 1.25747 1.20474 1.22254C1.20474 1.22254 1.20474 1.22254 1.16012 1.18761L1.1155 1.15269L1.07088 1.11776C1.07088 1.08283 1.02626 1.08283 0.981639 1.04791C0.93702 1.01298 0.892401 0.943129 0.803162 0.908203C0.892401 0.908203 0.981639 0.908203 1.02626 0.908203H16.1969Z" fill="#FEBE19"/>
<path d="M17 1.53711V10.0237C16.8661 9.91891 16.7323 9.81414 16.643 9.74429C16.5984 9.70936 16.5092 9.63952 16.4646 9.60459C16.3753 9.53474 16.3307 9.49982 16.2861 9.42997C15.8845 9.11565 15.4829 8.80134 15.126 8.48702C14.5905 8.033 14.0105 7.61391 13.4751 7.1599C12.9842 6.77573 12.4934 6.39157 12.0472 6.0074C11.958 5.93755 11.8241 5.83278 11.7349 5.76293C11.7795 5.72801 11.8241 5.69308 11.9134 5.62324C12.5827 5.09937 13.252 4.57551 13.9213 4.01672C14.5905 3.49286 15.2598 2.93408 15.9291 2.41021C16.063 2.30544 16.1968 2.16574 16.3753 2.06097C16.5092 1.9562 16.643 1.85143 16.7323 1.78158C16.7323 1.74665 16.8661 1.64188 17 1.53711C16.9554 1.53711 17 1.53711 17 1.53711Z" fill="#FEBE19"/>
<path d="M16.1969 10.6526H0.803162C0.93702 10.5478 1.07088 10.443 1.20474 10.3732C1.24936 10.3383 1.33859 10.2684 1.38321 10.2335C1.42783 10.1986 1.51707 10.1287 1.56169 10.0938C1.96327 9.77948 2.40946 9.46516 2.81104 9.15085C3.39109 8.69683 3.97114 8.27774 4.55119 7.82373C5.04201 7.43956 5.57744 7.05539 6.06826 6.67123C6.20211 6.60138 6.29135 6.49661 6.42521 6.42676C6.69293 6.6363 6.96064 6.84585 7.3176 6.98555C7.89765 7.26494 8.61156 7.36971 9.32547 7.23001C9.86091 7.12524 10.3517 6.88077 10.7533 6.56645C10.7979 6.53153 10.8872 6.46168 10.9318 6.42676C10.9764 6.46168 11.021 6.49661 11.1103 6.56645C11.5564 6.9157 12.0473 7.29986 12.4935 7.64911C13.0289 8.10312 13.6089 8.52221 14.1444 8.97623C14.5906 9.32547 15.0814 9.70963 15.5276 10.0589L15.5722 10.0938C15.6614 10.1636 15.7953 10.2684 15.8845 10.3383C15.9292 10.443 16.063 10.5478 16.1969 10.6526Z" fill="#FEBE19"/>
</svg>
