<svg width="19" height="17" viewBox="0 0 19 17" fill="none" xmlns="http://www.w3.org/2000/svg">
<path d="M18 12.987C18 13.214 17.9359 13.4409 17.8719 13.7814C17.8078 14.1218 17.6797 14.3488 17.6157 14.5758C17.4235 14.9729 16.911 15.3701 16.0783 15.7673C15.3096 16.1645 14.4769 16.3347 13.7082 16.3347C13.452 16.3347 13.2598 16.3347 13.0676 16.278C12.8754 16.278 12.6192 16.2212 12.363 16.1645C12.1068 16.1078 11.9146 16.051 11.7865 15.9943C11.6584 15.9375 11.4021 15.8808 11.0818 15.7673C10.7616 15.6538 10.5053 15.5971 10.4413 15.5403C9.60854 15.2566 8.83986 14.9729 8.19929 14.5758C7.11032 14.0084 5.95729 13.1572 4.80427 12.1359C3.65125 11.1146 2.75445 10.0933 2.04982 9.12867C1.66548 8.56126 1.28114 7.88038 0.960854 7.14275C0.960854 7.08601 0.83274 6.91579 0.704626 6.57534C0.576512 6.29164 0.512455 6.06468 0.448399 5.9512C0.320285 5.89446 0.256228 5.72424 0.192171 5.49727C0.128114 5.21357 0.0640569 4.98661 0.0640569 4.81639C0 4.64617 0 4.4192 0 4.24898C0 3.5681 0.192171 2.83047 0.640569 2.14958C1.08897 1.41195 1.53737 0.90129 1.98576 0.787809C2.17794 0.731068 2.49822 0.617587 2.88256 0.560847C3.2669 0.447366 3.52313 0.390625 3.77936 0.390625C3.90747 0.390625 3.97153 0.390625 4.03559 0.447366C4.1637 0.504106 4.41993 0.787809 4.74021 1.29847C4.80427 1.41195 4.93238 1.63892 5.12455 1.92262C5.31673 2.20632 5.44484 2.43328 5.57295 2.66025C5.70107 2.83047 5.82918 3.05743 5.95729 3.22765C5.95729 3.28439 6.08541 3.34113 6.14947 3.51135C6.27758 3.68158 6.40569 3.79506 6.46975 3.90854C6.53381 4.02202 6.53381 4.1355 6.53381 4.24898C6.53381 4.4192 6.40569 4.58943 6.14947 4.81639C5.95729 5.04335 5.63701 5.21357 5.38078 5.44053C5.12455 5.61075 4.80427 5.78098 4.6121 6.00794C4.35587 6.2349 4.22776 6.40512 4.22776 6.5186C4.22776 6.57534 4.22776 6.68882 4.29181 6.74557C4.35587 6.85905 4.35587 6.91579 4.41993 6.97253C4.41993 7.02927 4.48398 7.14275 4.6121 7.25623C4.67616 7.36971 4.74021 7.48319 4.74021 7.48319C5.38078 8.50452 6.14947 9.41237 6.98221 10.15C7.81495 10.8876 8.83986 11.5685 9.99288 12.1359C9.99288 12.1359 10.121 12.1927 10.2491 12.2494C10.3772 12.3061 10.5053 12.3629 10.5694 12.4196C10.6335 12.4196 10.6975 12.4764 10.8256 12.5331C10.9537 12.5898 11.0178 12.5898 11.0818 12.5898C11.21 12.5898 11.4021 12.4764 11.6584 12.2494C11.9146 12.0224 12.1068 11.7955 12.363 11.5685C12.5552 11.3415 12.8114 11.0578 13.0676 10.8876C13.3238 10.6607 13.516 10.5472 13.7082 10.5472C13.8363 10.5472 13.9644 10.5472 14.0925 10.6039C14.2206 10.6607 14.3488 10.7174 14.5409 10.8309C14.7331 10.9444 14.7972 11.0011 14.8612 11.0011C15.0534 11.1146 15.3096 11.2281 15.5658 11.3415C15.8221 11.455 16.0783 11.5685 16.3986 11.7387C16.7189 11.909 16.911 12.0224 17.1032 12.0792C17.6797 12.3629 18 12.5331 18.0641 12.7033C18 12.7601 18 12.8735 18 12.987Z" fill="#FEBE19"/>
</svg>
