<svg width="14" height="18" viewBox="0 0 14 18" fill="none" xmlns="http://www.w3.org/2000/svg">
<path d="M7.66516 17.4904C10.3891 15.1309 14 10.5331 14 7.38718C14 3.69679 10.8959 0.671875 7.03167 0.671875C3.16742 0.671875 0 3.69679 0 7.38718C0 10.7751 3.86425 15.01 6.71493 17.4904C6.96833 17.7324 7.34842 17.7324 7.66516 17.4904ZM7.03167 4.66476C8.55204 4.66476 9.75566 5.87472 9.75566 7.38718C9.75566 8.89963 8.55204 9.9886 7.03167 9.9886C5.51131 9.9886 4.18099 8.83914 4.18099 7.38718C4.18099 5.93522 5.51131 4.66476 7.03167 4.66476Z" fill="#FEBE19"/>
</svg>
